<?xml version="1.0" encoding="UTF-8" standalone="no"?>
<!DOCTYPE svg PUBLIC "-//W3C//DTD SVG 1.1//EN" "http://www.w3.org/Graphics/SVG/1.1/DTD/svg11.dtd">
<svg width="100%" height="100%" viewBox="0 0 112 88" version="1.1" xmlns="http://www.w3.org/2000/svg" xmlns:xlink="http://www.w3.org/1999/xlink" xml:space="preserve" xmlns:serif="http://www.serif.com/" style="fill-rule:evenodd;clip-rule:evenodd;stroke-linecap:round;stroke-linejoin:round;stroke-miterlimit:1.5;">
    <g transform="matrix(1,0,0,1,-20,-34)">
        <g id="Layer6">
            <g transform="matrix(0.946213,0,0,0.946213,6.30735,2.79908)">
                <path d="M90.039,54.901L60,54.901L60,34.822L80,34.822C82.45,34.801 83.447,35.165 84.016,35.893C84.278,36.228 84.672,36.685 85.02,38.838L87.028,50.885C87.346,52.837 87.397,53.288 87.68,53.763C87.927,54.177 88.317,54.895 90.039,54.901Z" style="fill:none;stroke:currentColor;stroke-width:1.75px;"/>
            </g>
            <path d="M70.039,54.901L130,54.901C131.105,54.901 132,55.797 132,56.901C132,66.74 132,109.926 132,119.765C132,120.296 131.789,120.804 131.414,121.179C131.039,121.555 130.53,121.765 130,121.765C116.242,121.765 35.758,121.765 22,121.765C21.47,121.765 20.961,121.555 20.586,121.179C20.211,120.804 20,120.296 20,119.765C20,109.926 20,66.74 20,56.901C20,56.371 20.211,55.862 20.586,55.487C20.961,55.112 21.47,54.901 22,54.901C22.541,54.901 22.98,54.901 22.98,54.901C24.702,54.895 25.093,54.177 25.34,53.763C25.623,53.288 25.674,52.837 25.992,50.885L28,38.838C28.348,36.685 28.742,36.228 29.004,35.893C29.572,35.167 30.565,34.803 33,34.822L33.02,34.822L60,34.822C62.45,34.801 63.447,35.165 64.016,35.893C64.278,36.228 64.672,36.685 65.02,38.838L67.028,50.885C67.346,52.837 67.397,53.288 67.68,53.763C67.927,54.177 68.317,54.895 70.039,54.901Z" style="fill:none;"/>
        </g>
    </g>
</svg>
