<?xml version="1.0" encoding="UTF-8" standalone="no"?>
<!DOCTYPE svg PUBLIC "-//W3C//DTD SVG 1.1//EN" "http://www.w3.org/Graphics/SVG/1.1/DTD/svg11.dtd">
<svg width="100%" height="100%" viewBox="0 0 80 66" version="1.1" xmlns="http://www.w3.org/2000/svg" xmlns:xlink="http://www.w3.org/1999/xlink" xml:space="preserve" xmlns:serif="http://www.serif.com/" style="fill-rule:evenodd;clip-rule:evenodd;stroke-linecap:round;stroke-linejoin:round;stroke-miterlimit:1.5;">
    <g transform="matrix(1,0,0,1,-29,-35)">
        <g transform="matrix(0.680807,0,0,0.908283,17.5979,5.233)">
            <g id="Layer1" transform="matrix(1.46884,0,0,1.10098,-25.8486,-5.76142)">
                <g transform="matrix(0.680807,0,0,0.908283,17.5979,5.233)">
                    <path d="M70.039,54.901L129.062,54.901C130.685,54.901 132,55.887 132,57.103C132,65.139 132,92.835 132,100.871C132,102.087 130.685,103.072 129.062,103.072C113.283,103.072 38.717,103.072 22.938,103.072C21.315,103.072 20,102.087 20,100.871C20,92.835 20,65.139 20,57.103C20,55.887 21.315,54.901 22.938,54.901C22.965,54.901 22.98,54.901 22.98,54.901C24.702,54.895 25.093,54.177 25.34,53.763C25.623,53.288 25.674,52.837 25.992,50.885L28,38.838C28.348,36.685 28.742,36.228 29.004,35.893C29.572,35.167 30.565,34.803 33,34.822L33.02,34.822L60,34.822C62.45,34.801 63.447,35.165 64.016,35.893C64.278,36.228 64.672,36.685 65.02,38.838L67.028,50.885C67.346,52.837 67.397,53.288 67.68,53.763C67.927,54.177 68.317,54.895 70.039,54.901Z" style="fill:currentColor;fill-opacity:0.33;stroke:currentColor;stroke-width:3.11px;"/>
                </g>
                <g transform="matrix(0.658398,0,0,0.544555,19.3605,27.8984)">
                    <path d="M126.481,58C127.32,58 128,58.822 128,59.836C128,69.224 128,111.776 128,121.164C128,122.178 127.32,123 126.481,123C114.648,123 37.352,123 25.519,123C24.68,123 24,122.178 24,121.164C24,111.776 24,69.224 24,59.836C24,58.822 24.68,58 25.519,58C37.352,58 114.648,58 126.481,58Z" style="fill:currentColor;"/>
                </g>
            </g>
        </g>
    </g>
</svg>
