<?xml version="1.0" encoding="UTF-8" standalone="no"?>
<!DOCTYPE svg PUBLIC "-//W3C//DTD SVG 1.1//EN" "http://www.w3.org/Graphics/SVG/1.1/DTD/svg11.dtd">
<svg width="100%" height="100%" viewBox="0 0 77 64" version="1.1" xmlns="http://www.w3.org/2000/svg" xmlns:xlink="http://www.w3.org/1999/xlink" xml:space="preserve" xmlns:serif="http://www.serif.com/" style="fill-rule:evenodd;clip-rule:evenodd;stroke-linecap:round;stroke-linejoin:round;stroke-miterlimit:1.5;">
    <g transform="matrix(1,0,0,1,-31,-36)">
        <g transform="matrix(0.680807,0,0,0.908283,17.5979,5.233)">
            <g id="Layer2" transform="matrix(1.46884,0,0,1.10098,-25.8486,-5.76142)">
                <g transform="matrix(0.680807,0,0,0.908283,17.5979,5.233)">
                    <path d="M70.039,54.901L129.062,54.901C130.685,54.901 132,55.887 132,57.103C132,65.139 132,92.835 132,100.871C132,102.087 130.685,103.072 129.062,103.072C113.283,103.072 38.717,103.072 22.938,103.072C21.315,103.072 20,102.087 20,100.871C20,92.835 20,65.139 20,57.103C20,55.887 21.315,54.901 22.938,54.901C22.965,54.901 22.98,54.901 22.98,54.901C24.702,54.895 25.093,54.177 25.34,53.763C25.623,53.288 25.674,52.837 25.992,50.885L28,38.838C28.348,36.685 28.742,36.228 29.004,35.893C29.572,35.167 30.565,34.803 33,34.822L33.02,34.822L60,34.822C62.45,34.801 63.447,35.165 64.016,35.893C64.278,36.228 64.672,36.685 65.02,38.838L67.028,50.885C67.346,52.837 67.397,53.288 67.68,53.763C67.927,54.177 68.317,54.895 70.039,54.901Z" style="fill:none;stroke:black;stroke-width:0.05px;"/>
                </g>
                <g transform="matrix(0.680807,0,0,0.908283,17.5979,5.233)">
                    <path d="M63.891,35.748L82.004,35.748C84.322,35.728 85.266,36.073 85.804,36.762C86.052,37.079 86.425,37.511 86.754,39.548L88.654,50.948C88.955,52.794 89.003,53.221 89.271,53.671C89.505,54.062 89.875,54.741 91.504,54.747L68.868,54.747C68.107,54.512 67.857,54.06 67.68,53.763C67.397,53.288 67.346,52.837 67.028,50.885L65.02,38.838C64.672,36.685 64.278,36.228 64.016,35.893C63.976,35.843 63.935,35.794 63.891,35.748Z" style="fill:currentColor;fill-opacity:0.33;stroke:currentColor;stroke-width:2.08px;"/>
                </g>
            </g>
        </g>
    </g>
</svg>
