<?xml version="1.0" encoding="UTF-8" standalone="no"?>
<!DOCTYPE svg PUBLIC "-//W3C//DTD SVG 1.1//EN" "http://www.w3.org/Graphics/SVG/1.1/DTD/svg11.dtd">
<svg width="100%" height="100%" viewBox="0 0 77 64" version="1.1" xmlns="http://www.w3.org/2000/svg" xmlns:xlink="http://www.w3.org/1999/xlink" xml:space="preserve" xmlns:serif="http://www.serif.com/" style="fill-rule:evenodd;clip-rule:evenodd;stroke-linecap:round;stroke-linejoin:round;stroke-miterlimit:1.5;">
    <g transform="matrix(1,0,0,1,-31,-36)">
        <g transform="matrix(0.680807,0,0,0.908283,17.5979,5.233)">
            <g id="Layer4" transform="matrix(1.46884,0,0,1.10098,-25.8486,-5.76142)">
                <g transform="matrix(0.680807,0,0,0.908283,17.5979,5.233)">
                    <path d="M70.039,54.901L129.062,54.901C130.685,54.901 132,55.887 132,57.103C132,65.139 132,92.835 132,100.871C132,102.087 130.685,103.072 129.062,103.072C113.283,103.072 38.717,103.072 22.938,103.072C21.315,103.072 20,102.087 20,100.871C20,92.835 20,65.139 20,57.103C20,55.887 21.315,54.901 22.938,54.901C22.965,54.901 22.98,54.901 22.98,54.901C24.702,54.895 25.093,54.177 25.34,53.763C25.623,53.288 25.674,52.837 25.992,50.885L28,38.838C28.348,36.685 28.742,36.228 29.004,35.893C29.572,35.167 30.565,34.803 33,34.822L33.02,34.822L60,34.822C62.45,34.801 63.447,35.165 64.016,35.893C64.278,36.228 64.672,36.685 65.02,38.838L67.028,50.885C67.346,52.837 67.397,53.288 67.68,53.763C67.927,54.177 68.317,54.895 70.039,54.901Z" style="fill:none;stroke:black;stroke-width:0.05px;"/>
                </g>
                <g transform="matrix(1,0,0,1,11.214,2.03933)">
                    <path d="M76.282,35.663L88.483,35.663C90.061,35.645 90.703,35.958 91.07,36.584C91.239,36.872 91.493,37.264 91.717,39.115L93.01,49.468C93.215,51.146 93.248,51.534 93.431,51.942C93.59,52.297 93.841,52.914 94.95,52.92L82.702,52.92C81.557,52.914 81.297,52.297 81.133,51.942C80.944,51.534 80.91,51.146 80.698,49.468L79.362,39.115C79.131,37.264 78.869,36.872 78.694,36.584C78.337,35.992 77.724,35.68 76.282,35.663Z" style="fill:currentColor;fill-opacity:0.33;stroke:currentColor;stroke-width:1.67px;"/>
                </g>
            </g>
        </g>
    </g>
</svg>
