<?xml version="1.0" encoding="UTF-8" standalone="no"?><!DOCTYPE svg PUBLIC "-//W3C//DTD SVG 1.1//EN" "http://www.w3.org/Graphics/SVG/1.1/DTD/svg11.dtd"><svg width="100%" height="100%" viewBox="0 0 26 24" version="1.1" xmlns="http://www.w3.org/2000/svg" xmlns:xlink="http://www.w3.org/1999/xlink" xml:space="preserve" xmlns:serif="http://www.serif.com/" style="fill-rule:evenodd;clip-rule:evenodd;stroke-linejoin:round;stroke-miterlimit:2;"><g id="Polygon"><path d="M10.604,1.653c1.262,-0.917 2.97,-0.917 4.232,-0c2.316,1.682 6.006,4.364 8.322,6.046c1.262,0.917 1.79,2.542 1.308,4.025c-0.885,2.722 -2.294,7.061 -3.179,9.783c-0.482,1.483 -1.864,2.488 -3.424,2.488l-10.286,-0c-1.56,-0 -2.942,-1.005 -3.424,-2.488c-0.885,-2.722 -2.294,-7.061 -3.179,-9.783c-0.482,-1.483 0.046,-3.108 1.308,-4.025c2.316,-1.682 6.006,-4.364 8.322,-6.046Z" style="fill:#fff;fill-opacity:0.05;"/></g></svg>