<?xml version="1.0" encoding="UTF-8" standalone="no"?><!DOCTYPE svg PUBLIC "-//W3C//DTD SVG 1.1//EN" "http://www.w3.org/Graphics/SVG/1.1/DTD/svg11.dtd"><svg width="100%" height="100%" viewBox="0 0 26 25" version="1.1" xmlns="http://www.w3.org/2000/svg" xmlns:xlink="http://www.w3.org/1999/xlink" xml:space="preserve" xmlns:serif="http://www.serif.com/" style="fill-rule:evenodd;clip-rule:evenodd;stroke-linejoin:round;stroke-miterlimit:2;"><g id="Star"><path d="M12.149,1.888c0.081,-0.247 0.311,-0.415 0.571,-0.415c0.26,0 0.49,0.168 0.571,0.415c0.861,2.65 2.393,7.365 2.393,7.365c-0,-0 4.957,-0 7.743,-0c0.26,-0 0.491,0.167 0.571,0.414c0.08,0.248 -0.008,0.518 -0.218,0.671c-2.254,1.638 -6.265,4.552 -6.265,4.552c0,-0 1.532,4.715 2.393,7.365c0.08,0.247 -0.008,0.518 -0.218,0.67c-0.21,0.153 -0.495,0.153 -0.705,0c-2.254,-1.637 -6.265,-4.551 -6.265,-4.551c0,-0 -4.011,2.914 -6.265,4.551c-0.21,0.153 -0.495,0.153 -0.705,0c-0.21,-0.152 -0.298,-0.423 -0.218,-0.67c0.861,-2.65 2.393,-7.365 2.393,-7.365c-0,-0 -4.011,-2.914 -6.265,-4.552c-0.21,-0.153 -0.298,-0.423 -0.218,-0.671c0.08,-0.247 0.311,-0.414 0.571,-0.414c2.786,-0 7.743,-0 7.743,-0c0,-0 1.532,-4.715 2.393,-7.365Z" style="fill:#fff;"/></g></svg>