<?xml version="1.0" encoding="UTF-8" standalone="no"?>
<!DOCTYPE svg PUBLIC "-//W3C//DTD SVG 1.1//EN" "http://www.w3.org/Graphics/SVG/1.1/DTD/svg11.dtd">
<svg width="100%" height="100%" viewBox="0 0 513 513" version="1.1" xmlns="http://www.w3.org/2000/svg" xmlns:xlink="http://www.w3.org/1999/xlink" xml:space="preserve" xmlns:serif="http://www.serif.com/" style="fill-rule:evenodd;clip-rule:evenodd;stroke-linecap:round;stroke-linejoin:round;stroke-miterlimit:1.5;">
    <g transform="matrix(1,0,0,1,-1027,-331)">
        <g id="Orange" transform="matrix(1.82886,0,0,1.82886,300.508,-699.397)">
            <g transform="matrix(0.651312,0.794221,-0.816234,0.669364,634.302,-239.236)">
                <ellipse cx="650.229" cy="637.373" rx="136.302" ry="132.626" style="fill:none;"/>
            </g>
            <g transform="matrix(-0.845824,0,0,0.845824,1327.86,305.556)">
                <path d="M976.124,524.018C976.157,525.355 977.27,526.414 978.607,526.381C979.945,526.348 981.004,525.235 980.971,523.897C980.937,522.56 979.824,521.501 978.487,521.534C977.149,521.567 976.09,522.68 976.124,524.018ZM975.78,519.106C975.939,520.434 977.147,521.383 978.476,521.223C979.804,521.064 980.753,519.856 980.593,518.527C980.434,517.199 979.226,516.25 977.897,516.41C976.569,516.569 975.62,517.777 975.78,519.106ZM974.92,514.324C975.239,515.623 976.553,516.419 977.852,516.1C979.152,515.781 979.947,514.467 979.628,513.167C979.309,511.868 977.995,511.072 976.696,511.391C975.397,511.71 974.601,513.024 974.92,514.324ZM973.452,509.74C973.949,510.983 975.361,511.588 976.603,511.091C977.845,510.593 978.45,509.181 977.953,507.939C977.456,506.697 976.044,506.092 974.802,506.589C973.56,507.086 972.955,508.498 973.452,509.74ZM971.356,505.382C972.01,506.549 973.488,506.966 974.656,506.311C975.823,505.657 976.239,504.179 975.585,503.012C974.931,501.844 973.453,501.428 972.285,502.082C971.118,502.736 970.702,504.215 971.356,505.382ZM968.734,501.186C969.486,502.293 970.994,502.582 972.102,501.831C973.209,501.08 973.498,499.571 972.746,498.464C971.995,497.357 970.486,497.068 969.379,497.819C968.272,498.57 967.983,500.079 968.734,501.186ZM965.8,497.023C966.58,498.111 968.096,498.361 969.183,497.581C970.27,496.802 970.52,495.286 969.741,494.199C968.961,493.111 967.446,492.861 966.358,493.641C965.271,494.42 965.021,495.936 965.8,497.023Z" style="fill:currentColor;"/>
            </g>
            <g transform="matrix(-0.845824,0,0,0.845824,1327.86,305.556)">
                <path d="M814.89,483.566C815.354,489.645 813.236,492.415 813.236,492.415" style="fill:none;stroke:currentColor;stroke-width:4.85px;"/>
            </g>
            <g transform="matrix(-0.334202,1.11834,-1.07227,-0.320432,1677.76,-453.398)">
                <path d="M1188.28,709.823C1191.34,715.273 1189.56,721.903 1185.38,727.507C1189.6,721.879 1194.28,719.026 1200.1,720.416" style="fill:none;stroke:currentColor;stroke-width:3.59px;"/>
            </g>
        </g>
    </g>
</svg>
