<?xml version="1.0" encoding="UTF-8" standalone="no"?>
<!DOCTYPE svg PUBLIC "-//W3C//DTD SVG 1.1//EN" "http://www.w3.org/Graphics/SVG/1.1/DTD/svg11.dtd">
<svg width="100%" height="100%" viewBox="0 0 513 513" version="1.1" xmlns="http://www.w3.org/2000/svg" xmlns:xlink="http://www.w3.org/1999/xlink" xml:space="preserve" xmlns:serif="http://www.serif.com/" style="fill-rule:evenodd;clip-rule:evenodd;stroke-linecap:round;stroke-linejoin:round;stroke-miterlimit:1.5;">
    <g transform="matrix(1,0,0,1,-1027,-331)">
        <g id="Ring-Runes" serif:id="Ring Runes" transform="matrix(0.118562,1.82502,-1.82502,0.118562,2504.39,-476.698)">
            <g transform="matrix(0.302827,-0.613198,0.742928,0.366893,-134.99,1194.68)">
                <path d="M1243.22,488.307C1234.87,491.775 1250.3,503.928 1233.22,506.533" style="fill:none;stroke:currentColor;stroke-width:5.4px;"/>
            </g>
            <g transform="matrix(0.302827,-0.613198,0.742928,0.366893,-134.99,1194.68)">
                <path d="M1233.23,506.507C1246.53,503.764 1253.84,537.661 1241.4,545.78" style="fill:none;stroke:currentColor;stroke-width:5.4px;"/>
            </g>
            <g transform="matrix(3.54811,-4.87108,5.52842,4.02692,-5838.39,4553.46)">
                <ellipse cx="1159.18" cy="421.218" rx="0.498" ry="0.439" style="fill:currentColor;stroke:currentColor;stroke-width:0.08px;"/>
            </g>
            <g transform="matrix(0.634109,0.773243,-0.773243,0.634109,740.915,-158.141)">
                <path d="M495.358,585.043C492.046,582.666 484.154,581.905 480.294,586.288C476.122,591.025 478.359,598.849 469.663,598.377" style="fill:none;stroke:currentColor;stroke-width:4.1px;"/>
            </g>
            <g transform="matrix(3.54811,-4.87108,5.52842,4.02692,-5773.35,4647.81)">
                <ellipse cx="1159.18" cy="421.218" rx="0.498" ry="0.439" style="fill:currentColor;stroke:currentColor;stroke-width:0.08px;"/>
            </g>
            <g transform="matrix(3.54811,-4.87108,5.52842,4.02692,-5772.65,4667.25)">
                <ellipse cx="1159.18" cy="421.218" rx="0.498" ry="0.439" style="fill:currentColor;stroke:currentColor;stroke-width:0.08px;"/>
            </g>
            <g transform="matrix(5.10435,-3.20346,3.63576,5.79317,-6821.5,2070.24)">
                <ellipse cx="1159.18" cy="421.218" rx="0.498" ry="0.439" style="fill:currentColor;stroke:currentColor;stroke-width:0.08px;"/>
            </g>
            <g transform="matrix(5.10435,-3.20346,3.63576,5.79317,-6862.3,2082.99)">
                <ellipse cx="1159.18" cy="421.218" rx="0.498" ry="0.439" style="fill:currentColor;stroke:currentColor;stroke-width:0.08px;"/>
            </g>
            <g transform="matrix(0.634109,0.773243,-0.773243,0.634109,741.988,-158.395)">
                <path d="M555.044,581.594C554.746,580.502 555.391,579.374 556.483,579.076C557.575,578.779 558.703,579.424 559,580.516C559.298,581.608 558.653,582.736 557.561,583.033C556.469,583.331 555.341,582.686 555.044,581.594ZM556.413,586.039C556.024,584.976 556.571,583.797 557.634,583.409C558.697,583.02 559.875,583.567 560.264,584.63C560.653,585.693 560.105,586.871 559.043,587.26C557.98,587.649 556.801,587.101 556.413,586.039ZM558.492,590.457C557.898,589.493 558.199,588.229 559.163,587.636C560.127,587.043 561.391,587.344 561.984,588.307C562.577,589.271 562.277,590.535 561.313,591.128C560.349,591.722 559.085,591.421 558.492,590.457ZM562.176,594.372C561.216,593.772 560.923,592.506 561.523,591.546C562.123,590.587 563.389,590.294 564.348,590.894C565.308,591.493 565.601,592.759 565.001,593.719C564.402,594.679 563.136,594.971 562.176,594.372ZM566.958,596.202C565.857,595.938 565.178,594.83 565.441,593.73C565.705,592.629 566.813,591.95 567.913,592.214C569.014,592.477 569.693,593.585 569.429,594.686C569.166,595.786 568.058,596.465 566.958,596.202ZM571.596,597.007C570.473,596.869 569.673,595.845 569.811,594.722C569.949,593.599 570.973,592.799 572.096,592.937C573.22,593.075 574.019,594.099 573.881,595.222C573.743,596.346 572.719,597.146 571.596,597.007ZM576.176,597.422C575.046,597.35 574.188,596.375 574.26,595.245C574.332,594.116 575.308,593.258 576.437,593.33C577.566,593.402 578.425,594.377 578.353,595.507C578.28,596.636 577.305,597.494 576.176,597.422ZM580.704,597.636C579.573,597.594 578.689,596.642 578.731,595.511C578.773,594.38 579.725,593.496 580.856,593.538C581.987,593.58 582.871,594.532 582.829,595.663C582.787,596.794 581.835,597.678 580.704,597.636Z" style="fill:currentColor;"/>
            </g>
            <g transform="matrix(4.73082,-6.49478,7.37123,5.36923,-7967.6,5875.36)">
                <ellipse cx="1159.18" cy="421.218" rx="0.498" ry="0.439" style="fill:none;stroke:currentColor;stroke-width:0.48px;"/>
            </g>
            <g transform="matrix(0.634109,0.773243,-0.773243,0.634109,740.915,-158.141)">
                <path d="M468.318,591.847C465.069,591.924 462.009,594.775 461.856,598.397C461.663,602.963 466.148,608.163 472.976,607.416" style="fill:none;stroke:currentColor;stroke-width:4.1px;"/>
            </g>
            <g transform="matrix(0.634109,0.773243,-0.773243,0.634109,740.915,-158.141)">
                <path d="M580.486,586.659C584.282,585.957 589.284,585.233 591.896,587.972C595.401,591.646 588.68,601.364 594.347,605.964" style="fill:none;stroke:currentColor;stroke-width:4.1px;"/>
            </g>
            <g transform="matrix(0.634109,0.773243,-0.773243,0.634109,740.915,-158.141)">
                <path d="M599.197,586.313C599.665,590.657 604.219,590.773 605.336,595.497C606.294,599.553 607.248,604.894 603.545,610.939" style="fill:none;stroke:currentColor;stroke-width:4.1px;"/>
            </g>
            <g transform="matrix(0.634109,0.773243,-0.773243,0.634109,740.915,-158.141)">
                <path d="M433.726,629.334C431.291,629.361 425.467,639.91 426.768,641.853C428.069,643.796 440.372,643.077 441.532,640.991C442.691,638.904 436.24,629.305 433.726,629.334Z" style="fill:none;stroke:currentColor;stroke-width:4.1px;"/>
            </g>
            <g transform="matrix(0.785898,0.618357,-0.618357,0.785898,550.534,-184.1)">
                <path d="M650.664,684.773C649.261,686.733 651.462,700.885 653.02,702.144C654.466,703.313 668.747,702.256 669.846,700.361C670.87,698.594 669.674,683.947 667.382,682.588C665.035,681.197 652.085,682.789 650.664,684.773Z" style="fill:none;stroke:currentColor;stroke-width:4.1px;"/>
            </g>
            <g transform="matrix(0.387021,0.769451,-0.833743,0.419359,949.497,21.7166)">
                <path d="M593.975,799.76C592.377,799.723 592.075,806.873 589.606,808.631C587.136,810.388 579.576,809.047 579.159,810.303C578.743,811.56 586.339,813.66 587.108,816.172C587.877,818.683 582.737,824.8 583.775,825.371C584.813,825.943 590.191,819.829 593.335,819.601C596.479,819.373 601.661,824.483 602.638,824.003C603.615,823.523 598.117,818.884 599.197,816.722C600.276,814.559 609.116,812.341 609.116,811.029C609.116,809.717 601.72,810.728 599.197,808.85C596.673,806.972 595.574,799.797 593.975,799.76Z" style="fill:none;stroke:currentColor;stroke-width:4.57px;"/>
            </g>
            <g transform="matrix(0.634109,0.773243,-0.773243,0.634109,740.915,-158.141)">
                <path d="M447.644,789.102C450.699,791.173 456.809,795.313 461.04,796.516C464.884,797.609 469.877,797.379 473.027,796.317" style="fill:none;stroke:currentColor;stroke-width:4.1px;"/>
            </g>
            <g transform="matrix(0.634109,0.773243,-0.773243,0.634109,740.915,-158.141)">
                <path d="M457.468,809.372C457.383,806.481 456.755,804.174 455.629,801.852C453.992,798.474 449.76,792.226 447.644,789.102" style="fill:none;stroke:currentColor;stroke-width:4.1px;"/>
            </g>
            <g transform="matrix(-0.83276,-0.0671974,0.163048,-0.885387,1527.7,1271.62)">
                <path d="M1289.75,404.739C1283.81,405.345 1268.21,406.274 1262.2,397.789" style="fill:none;stroke:currentColor;stroke-width:4.98px;"/>
            </g>
            <g transform="matrix(-0.00594759,-0.105024,-0.111967,0.0151814,572.165,899.653)">
                <path d="M757.58,428.868C774.892,348.665 802.156,338.737 829.308,323.314C853.003,309.854 857.503,287.08 845.283,268.788C836.545,255.707 815.105,247.172 795.688,258.54C785.069,264.757 775.055,276.926 768.054,297.56C744.672,366.471 757.407,428.955 757.58,428.868Z" style="fill:none;stroke:currentColor;stroke-width:39.12px;"/>
            </g>
            <g transform="matrix(-0.0707927,0.0778066,-0.07738,-0.0823378,547.673,772.392)">
                <path d="M757.58,428.868C774.892,348.665 802.156,338.737 829.308,323.314C853.003,309.854 857.503,287.08 845.283,268.788C836.545,255.707 815.105,247.172 795.688,258.54C785.069,264.757 775.055,276.926 768.054,297.56C744.672,366.471 757.407,428.955 757.58,428.868Z" style="fill:none;stroke:currentColor;stroke-width:39.12px;"/>
            </g>
            <g transform="matrix(0.634109,0.773243,-0.773243,0.634109,740.915,-158.141)">
                <path d="M580.927,808.824C578.885,812.847 574.111,815.379 570.571,815.094" style="fill:none;stroke:currentColor;stroke-width:4.1px;"/>
            </g>
            <g transform="matrix(-5.48071,-2.64834,3.00183,-6.29581,5639.89,6550.39)">
                <ellipse cx="1159.18" cy="421.218" rx="0.498" ry="0.439" style="fill:none;stroke:currentColor;stroke-width:0.62px;"/>
            </g>
            <g transform="matrix(-0.0987057,0.578506,-0.574584,-0.0980365,997.197,659.523)">
                <path d="M395.287,696.866C397.207,697.053 398.614,698.774 398.429,700.706C398.243,702.639 396.534,704.056 394.615,703.869C392.695,703.682 391.288,701.962 391.473,700.029C391.659,698.097 393.368,696.679 395.287,696.866ZM388.708,694.373C390.295,695.477 390.692,697.67 389.596,699.267C388.499,700.864 386.321,701.265 384.735,700.161C383.148,699.057 382.751,696.864 383.847,695.267C384.944,693.67 387.122,693.269 388.708,694.373ZM384.073,689.048C384.927,690.789 384.216,692.901 382.486,693.76C380.757,694.619 378.66,693.903 377.807,692.162C376.953,690.421 377.664,688.31 379.394,687.451C381.123,686.592 383.22,687.307 384.073,689.048ZM383.094,682.832C382.61,684.711 380.701,685.84 378.834,685.352C376.968,684.863 375.846,682.941 376.331,681.062C376.816,679.183 378.725,678.054 380.592,678.542C382.458,679.03 383.579,680.952 383.094,682.832ZM386.667,678.556C384.907,679.351 382.838,678.558 382.048,676.787C381.258,675.016 382.045,672.933 383.805,672.137C385.564,671.342 387.633,672.135 388.423,673.906C389.213,675.677 388.426,677.76 386.667,678.556Z" style="fill:currentColor;"/>
            </g>
            <g transform="matrix(0.573414,0.124935,-0.124088,0.569526,436.538,383.862)">
                <path d="M391.859,682.304C392.781,686.177 405.836,689.642 416.539,679.765C423.153,673.66 433.178,664.936 435.801,639.308" style="fill:none;stroke:currentColor;stroke-width:7.01px;"/>
            </g>
            <g transform="matrix(0.634109,0.773243,-0.773243,0.634109,740.915,-158.141)">
                <path d="M448.094,631.689C444.095,628.528 440.598,623.402 439.854,621.412C438.604,618.07 438.242,614.009 440.796,610.644C443.131,607.57 447.128,606.903 450.107,608.467C453.755,610.383 453.65,613.888 452.88,616.2C451.998,618.851 449.41,618.736 447.397,617.777" style="fill:none;stroke:currentColor;stroke-width:4.1px;"/>
            </g>
            <g transform="matrix(-5.82788,-1.53374,1.74072,-6.61434,6438.7,5242.49)">
                <ellipse cx="1159.18" cy="421.218" rx="0.498" ry="0.439" style="fill:currentColor;stroke:currentColor;stroke-width:0.08px;"/>
            </g>
            <g transform="matrix(-5.82788,-1.53374,1.74072,-6.61434,6438.7,5242.49)">
                <ellipse cx="1159.18" cy="421.218" rx="0.498" ry="0.439" style="fill:currentColor;stroke:currentColor;stroke-width:0.08px;"/>
            </g>
            <g transform="matrix(-5.82788,-1.53374,1.74072,-6.61434,6451.36,5215.36)">
                <ellipse cx="1159.18" cy="421.218" rx="0.498" ry="0.439" style="fill:currentColor;stroke:currentColor;stroke-width:0.08px;"/>
            </g>
            <g transform="matrix(-5.82788,-1.53374,1.74072,-6.61434,6579.73,5154.71)">
                <ellipse cx="1159.18" cy="421.218" rx="0.498" ry="0.439" style="fill:currentColor;stroke:currentColor;stroke-width:0.08px;"/>
            </g>
            <g transform="matrix(0.634109,0.773243,-0.773243,0.634109,740.915,-158.141)">
                <path d="M436.292,652.898C430.295,651.485 425.244,651.16 421.467,651.995C415.878,653.23 414.377,656.957 415.593,660.764C417.151,665.645 425.816,667.742 427.34,665.31C429.122,662.465 427.226,660.169 424.77,659.699" style="fill:none;stroke:currentColor;stroke-width:4.1px;"/>
            </g>
            <g transform="matrix(-5.82788,-1.53374,1.74072,-6.61434,6436.02,5224.04)">
                <ellipse cx="1159.18" cy="421.218" rx="0.498" ry="0.439" style="fill:currentColor;stroke:currentColor;stroke-width:0.08px;"/>
            </g>
            <g transform="matrix(-7.7705,-2.04499,2.32096,-8.81911,8458.94,6752.31)">
                <ellipse cx="1159.18" cy="421.218" rx="0.498" ry="0.439" style="fill:none;stroke:currentColor;stroke-width:0.48px;"/>
            </g>
            <g transform="matrix(-7.7705,-2.04499,2.32096,-8.81911,8688.33,6795.94)">
                <ellipse cx="1159.18" cy="421.218" rx="0.498" ry="0.439" style="fill:none;stroke:currentColor;stroke-width:0.48px;"/>
            </g>
            <g transform="matrix(-7.7705,-2.04499,2.32096,-8.81911,8507.91,6679.26)">
                <ellipse cx="1159.18" cy="421.218" rx="0.498" ry="0.439" style="fill:none;stroke:currentColor;stroke-width:0.48px;"/>
            </g>
            <g transform="matrix(0.634109,0.773243,-0.773243,0.634109,740.915,-158.141)">
                <path d="M497.103,809.232C501.118,811.49 509.148,816.006 515.789,817.543C522.532,819.104 532.55,818.764 537.558,818.595" style="fill:none;stroke:currentColor;stroke-width:4.1px;"/>
            </g>
            <g transform="matrix(0.634109,0.773243,-0.773243,0.634109,740.915,-158.141)">
                <path d="M543.266,817.553C545.169,817.468 550.925,813.275 553.429,819.006C555.334,823.364 548.431,831.322 543.667,831.305" style="fill:none;stroke:currentColor;stroke-width:4.1px;"/>
            </g>
            <g transform="matrix(0.634109,0.773243,-0.773243,0.634109,740.915,-158.141)">
                <path d="M537.039,828.744C538.134,828.457 539.256,829.114 539.542,830.209C539.829,831.303 539.172,832.425 538.078,832.711C536.983,832.998 535.861,832.342 535.575,831.247C535.288,830.152 535.945,829.031 537.039,828.744ZM532.951,829.217C534.082,829.188 535.024,830.082 535.054,831.213C535.084,832.345 534.189,833.287 533.058,833.317C531.927,833.346 530.984,832.452 530.954,831.321C530.925,830.189 531.819,829.247 532.951,829.217ZM528.544,829.11C529.673,829.183 530.531,830.16 530.458,831.289C530.385,832.418 529.408,833.276 528.279,833.203C527.15,833.129 526.292,832.153 526.365,831.024C526.438,829.895 527.415,829.037 528.544,829.11ZM524.08,828.691C525.204,828.825 526.007,829.847 525.872,830.971C525.738,832.094 524.716,832.897 523.592,832.763C522.469,832.628 521.666,831.606 521.801,830.483C521.935,829.359 522.957,828.556 524.08,828.691ZM519.615,828.058C520.732,828.24 521.492,829.294 521.311,830.411C521.129,831.528 520.075,832.288 518.958,832.106C517.841,831.925 517.081,830.871 517.263,829.753C517.444,828.636 518.498,827.877 519.615,828.058ZM515.366,827.171C516.452,827.487 517.078,828.626 516.761,829.713C516.445,830.799 515.306,831.424 514.219,831.108C513.133,830.792 512.507,829.652 512.824,828.566C513.14,827.479 514.279,826.854 515.366,827.171ZM511.206,825.714C512.26,826.128 512.778,827.319 512.364,828.372C511.95,829.425 510.759,829.944 509.706,829.53C508.653,829.116 508.134,827.925 508.548,826.872C508.962,825.819 510.153,825.3 511.206,825.714ZM506.999,823.984C508.042,824.421 508.534,825.624 508.097,826.668C507.659,827.711 506.456,828.203 505.413,827.765C504.369,827.328 503.877,826.125 504.315,825.082C504.753,824.038 505.955,823.546 506.999,823.984ZM502.711,822.22C503.763,822.637 504.279,823.83 503.862,824.882C503.445,825.934 502.252,826.45 501.2,826.032C500.148,825.615 499.632,824.423 500.05,823.371C500.467,822.319 501.659,821.803 502.711,822.22ZM498.301,820.591C499.373,820.953 499.95,822.117 499.588,823.189C499.226,824.262 498.062,824.838 496.99,824.476C495.917,824.114 495.341,822.95 495.703,821.878C496.065,820.806 497.229,820.229 498.301,820.591ZM493.737,819.241C494.835,819.516 495.503,820.63 495.229,821.728C494.954,822.826 493.84,823.494 492.742,823.22C491.644,822.945 490.976,821.831 491.25,820.733C491.525,819.635 492.639,818.967 493.737,819.241ZM489.015,818.315C490.135,818.471 490.919,819.508 490.763,820.629C490.607,821.75 489.57,822.533 488.45,822.377C487.329,822.221 486.545,821.185 486.701,820.064C486.857,818.943 487.894,818.159 489.015,818.315ZM484.172,817.95C485.303,817.961 486.214,818.888 486.203,820.02C486.193,821.151 485.265,822.062 484.134,822.051C483.002,822.041 482.092,821.113 482.102,819.982C482.113,818.85 483.04,817.94 484.172,817.95ZM479.297,818.25C480.418,818.1 481.451,818.888 481.602,820.01C481.752,821.131 480.964,822.164 479.842,822.315C478.721,822.465 477.688,821.677 477.537,820.555C477.387,819.434 478.175,818.401 479.297,818.25Z" style="fill:currentColor;"/>
            </g>
            <g transform="matrix(0.634109,0.773243,-0.773243,0.634109,740.915,-158.141)">
                <path d="M491.745,803.631C492.771,804.11 493.214,805.332 492.735,806.357C492.256,807.382 491.034,807.825 490.009,807.346C488.984,806.867 488.54,805.646 489.02,804.62C489.499,803.595 490.72,803.152 491.745,803.631ZM485.91,803.203C487.027,803.02 488.082,803.779 488.265,804.896C488.447,806.013 487.689,807.068 486.572,807.25C485.455,807.433 484.4,806.674 484.217,805.557C484.035,804.441 484.793,803.386 485.91,803.203ZM481.168,804.243C482.269,803.982 483.375,804.665 483.635,805.766C483.895,806.868 483.212,807.973 482.111,808.234C481.01,808.494 479.904,807.811 479.644,806.71C479.384,805.609 480.066,804.503 481.168,804.243ZM476.735,805.124C477.856,804.968 478.893,805.751 479.049,806.871C479.206,807.992 478.423,809.029 477.302,809.186C476.181,809.342 475.144,808.559 474.988,807.438C474.832,806.317 475.615,805.28 476.735,805.124ZM472.474,805.304C473.602,805.39 474.449,806.375 474.364,807.504C474.278,808.632 473.293,809.479 472.164,809.393C471.036,809.308 470.189,808.323 470.275,807.194C470.36,806.066 471.345,805.219 472.474,805.304ZM468.511,804.401C469.561,804.825 470.069,806.021 469.645,807.07C469.221,808.119 468.025,808.627 466.976,808.204C465.927,807.78 465.419,806.584 465.842,805.535C466.266,804.485 467.462,803.977 468.511,804.401ZM465.026,802.301C465.899,803.021 466.023,804.315 465.303,805.188C464.583,806.061 463.289,806.185 462.417,805.464C461.544,804.744 461.419,803.451 462.14,802.578C462.86,801.705 464.153,801.581 465.026,802.301Z" style="fill:currentColor;"/>
            </g>
            <g transform="matrix(0.634109,0.773243,-0.773243,0.634109,740.915,-158.141)">
                <path d="M623.101,625.869C623.512,624.814 624.702,624.293 625.757,624.704C626.811,625.116 627.333,626.305 626.921,627.36C626.51,628.414 625.32,628.936 624.265,628.524C623.211,628.113 622.689,626.923 623.101,625.869ZM623.694,632.385C623.207,631.364 623.64,630.139 624.662,629.651C625.683,629.164 626.908,629.597 627.395,630.619C627.883,631.64 627.449,632.865 626.428,633.352C625.407,633.84 624.182,633.406 623.694,632.385ZM627.576,637.05C626.639,636.414 626.395,635.138 627.031,634.202C627.667,633.266 628.943,633.022 629.879,633.657C630.816,634.293 631.06,635.569 630.424,636.506C629.788,637.442 628.512,637.686 627.576,637.05ZM634.024,638.259C632.922,638.517 631.819,637.831 631.561,636.73C631.303,635.628 631.989,634.524 633.091,634.266C634.192,634.008 635.296,634.694 635.554,635.796C635.812,636.898 635.126,638.001 634.024,638.259ZM639.248,634.964C638.48,635.795 637.181,635.845 636.351,635.076C635.52,634.307 635.471,633.009 636.239,632.178C637.008,631.348 638.307,631.298 639.137,632.067C639.967,632.836 640.017,634.134 639.248,634.964ZM642.435,630.552C641.841,631.515 640.577,631.817 639.614,631.223C638.65,630.63 638.349,629.366 638.942,628.403C639.535,627.439 640.799,627.138 641.763,627.731C642.727,628.324 643.028,629.588 642.435,630.552Z" style="fill:currentColor;"/>
            </g>
            <g transform="matrix(0.634109,0.773243,-0.773243,0.634109,739.487,-155.719)">
                <path d="M650.218,642.926C648.491,642.997 645.037,643.139 643.998,640.334C642.784,637.055 645.74,633.815 647.217,632.195" style="fill:none;stroke:currentColor;stroke-width:4.1px;"/>
            </g>
            <g transform="matrix(0.301302,0.953529,-0.953529,0.301302,1054.88,-28.7758)">
                <path d="M652.049,645.395C649.624,646.71 644.773,649.34 644.024,654.194C643.118,660.066 644.678,666.813 650.802,671.272" style="fill:none;stroke:currentColor;stroke-width:4.1px;"/>
            </g>
            <g transform="matrix(0.488484,0.595666,-0.612176,0.502023,610.116,-3.47087)">
                <ellipse cx="650.229" cy="637.373" rx="136.302" ry="132.626" style="fill:none;stroke:currentColor;stroke-width:5.25px;"/>
            </g>
            <g transform="matrix(0.634109,0.773243,-0.773243,0.634109,740.915,-158.141)">
                <path d="M431.895,744.379C433.259,738.643 417.736,735.343 411.626,730.068C407.85,726.808 407.672,719.576 407.92,715.488" style="fill:none;stroke:currentColor;stroke-width:4.1px;"/>
            </g>
            <g transform="matrix(0.634109,0.773243,-0.773243,0.634109,740.915,-158.141)">
                <path d="M428.873,731.281C425.48,729.431 421.406,726.152 419.488,721.982C418.031,718.814 418.684,715.411 417.794,712.662C416.653,709.136 412.641,705.339 406.155,702.402" style="fill:none;stroke:currentColor;stroke-width:4.1px;"/>
            </g>
            <g transform="matrix(0.634109,0.773243,-0.773243,0.634109,740.915,-158.141)">
                <path d="M407.92,695.805C411.815,698.613 417.805,700.283 420.469,698.659C423.706,696.687 425.863,691.578 427.668,683.467" style="fill:none;stroke:currentColor;stroke-width:4.1px;"/>
            </g>
            <g transform="matrix(0.651312,0.794221,-0.816234,0.669364,634.302,-239.236)">
                <ellipse cx="650.229" cy="637.373" rx="136.302" ry="132.626" style="fill:none;"/>
            </g>
        </g>
    </g>
</svg>
