<?xml version="1.0" encoding="UTF-8" standalone="no"?>
<!DOCTYPE svg PUBLIC "-//W3C//DTD SVG 1.1//EN" "http://www.w3.org/Graphics/SVG/1.1/DTD/svg11.dtd">
<svg width="100%" height="100%" viewBox="0 0 513 513" version="1.1" xmlns="http://www.w3.org/2000/svg" xmlns:xlink="http://www.w3.org/1999/xlink" xml:space="preserve" xmlns:serif="http://www.serif.com/" style="fill-rule:evenodd;clip-rule:evenodd;stroke-linecap:round;stroke-linejoin:round;stroke-miterlimit:1.5;">
    <g transform="matrix(1,0,0,1,-1027,-331)">
        <g id="Salmon" transform="matrix(1.82886,0,0,1.82886,300.508,-699.397)">
            <g transform="matrix(0.651312,0.794221,-0.816234,0.669364,634.302,-239.236)">
                <ellipse cx="650.229" cy="637.373" rx="136.302" ry="132.626" style="fill:none;"/>
            </g>
            <g transform="matrix(-0.104533,0.193451,-0.204152,-0.0990543,774.542,656.69)">
                <path d="M757.58,428.868C774.892,348.665 802.156,338.737 829.308,323.314C853.003,309.854 857.503,287.08 845.283,268.788C836.545,255.707 815.105,247.172 795.688,258.54C785.069,264.757 775.055,276.926 768.054,297.56C744.672,366.471 757.407,428.955 757.58,428.868Z" style="fill:none;stroke:currentColor;stroke-width:17.97px;"/>
            </g>
            <g transform="matrix(-0.403477,1.47095,-1.55231,-0.382329,1339.41,-463.306)">
                <path d="M894.251,238.872C894.397,231.389 895.541,218.162 888.062,214.162" style="fill:none;stroke:currentColor;stroke-width:2.59px;"/>
            </g>
            <g transform="matrix(5.52093,2.41576,-2.74176,6.26596,-4637.42,-4690.82)">
                <ellipse cx="1159.18" cy="421.218" rx="0.498" ry="0.439" style="fill:currentColor;stroke:currentColor;stroke-width:0.08px;"/>
            </g>
            <g transform="matrix(5.52093,2.41576,-2.74176,6.26596,-4647.1,-4672.11)">
                <ellipse cx="1159.18" cy="421.218" rx="0.498" ry="0.439" style="fill:currentColor;stroke:currentColor;stroke-width:0.08px;"/>
            </g>
            <g transform="matrix(7.36124,3.22101,-3.65568,8.35462,-6398.37,-6499.19)">
                <ellipse cx="1159.18" cy="421.218" rx="0.498" ry="0.439" style="fill:none;stroke:currentColor;stroke-width:0.48px;"/>
            </g>
        </g>
    </g>
</svg>
