<?xml version="1.0" encoding="UTF-8" standalone="no"?>
<!DOCTYPE svg PUBLIC "-//W3C//DTD SVG 1.1//EN" "http://www.w3.org/Graphics/SVG/1.1/DTD/svg11.dtd">
<svg width="100%" height="100%" viewBox="0 0 513 513" version="1.1" xmlns="http://www.w3.org/2000/svg" xmlns:xlink="http://www.w3.org/1999/xlink" xml:space="preserve" xmlns:serif="http://www.serif.com/" style="fill-rule:evenodd;clip-rule:evenodd;stroke-linejoin:round;stroke-miterlimit:2;">
    <g transform="matrix(1,0,0,1,-1027,-331)">
        <g id="Text" transform="matrix(1.82886,0,0,1.82886,413.825,-579.282)">
            <g transform="matrix(0.651312,0.794221,-0.816234,0.669364,572.342,-304.914)">
                <ellipse cx="650.229" cy="637.373" rx="136.302" ry="132.626" style="fill:none;"/>
            </g>
            <g transform="matrix(1,0,0,1,-61.9601,-65.6776)">
                <path d="M401.077,735.072C394.934,708.1 396.933,679.833 406.701,654.055C410.628,654.133 414.481,654.329 418.3,654.564C436.176,655.666 466.741,664.272 486.256,669.421C488.909,670.122 491.041,670.727 492.747,671.252C494.368,662.606 494.858,653.704 493.906,647.216C492.134,635.135 482.589,618.509 483.575,617.359C484.755,615.984 498.98,630.682 515.866,636.892C534.095,643.596 554.829,644.774 570.124,646.846C586.79,649.105 600.439,653.753 612.337,660.959C623.617,667.79 634.15,678.666 640.527,688.716C646.611,698.304 649.325,715.213 648.509,725.993C647.875,734.37 642.482,745.57 641.541,747.295C640.971,748.34 639.382,747.593 637.028,745.963L636.79,746.212L624.931,755.973L626.109,738.797L626.167,738.157C623.167,736.208 619.87,734.365 616.401,733.076C609.266,730.426 601.196,726.87 593.13,726.944C585.052,727.018 578.381,728.721 573.664,732.657C568.292,737.139 565.597,742.428 565.352,748.342C565.106,754.256 567.767,763.095 572.909,767.986C582.685,777.284 610.953,794.962 614.33,794.871C617.024,794.797 614.131,800.539 611.318,802.462C608.411,804.451 605.318,806.415 600.932,806.05C594.706,805.532 581.824,802.174 574,798.747C560.196,792.702 528.17,780.188 515.866,772.834C508.507,768.435 498.602,761.985 499.448,753.287C499.465,753.121 499.483,752.956 499.504,752.794C497.679,752.139 495.457,751.203 492.757,749.883C476.294,741.834 441.238,730.061 410.274,733.466C406.981,733.828 403.925,734.355 401.077,735.072Z" style="fill:currentColor;"/>
            </g>
        </g>
    </g>
</svg>
