<?xml version="1.0" encoding="UTF-8" standalone="no"?>
<!DOCTYPE svg PUBLIC "-//W3C//DTD SVG 1.1//EN" "http://www.w3.org/Graphics/SVG/1.1/DTD/svg11.dtd">
<svg width="100%" height="100%" viewBox="0 0 513 513" version="1.1" xmlns="http://www.w3.org/2000/svg" xmlns:xlink="http://www.w3.org/1999/xlink" xml:space="preserve" xmlns:serif="http://www.serif.com/" style="fill-rule:evenodd;clip-rule:evenodd;stroke-linecap:round;stroke-linejoin:round;stroke-miterlimit:1.5;">
    <g transform="matrix(1,0,0,1,-1027,-331)">
        <g id="TextOffset" transform="matrix(1.82886,0,0,1.82886,413.825,-579.282)">
            <g transform="matrix(0.651312,0.794221,-0.816234,0.669364,572.342,-304.914)">
                <ellipse cx="650.229" cy="637.373" rx="136.302" ry="132.626" style="fill:none;"/>
            </g>
            <g transform="matrix(-0.845824,0,0,0.845824,1265.9,239.879)">
                <path d="M996.834,459.115C988.32,446.266 983.702,419.344 985.963,403.937C988.058,389.654 999.343,369.997 998.177,368.638C996.782,367.012 979.964,384.389 960,391.731C938.449,399.657 913.935,401.05 895.852,403.5C876.148,406.17 860.011,411.665 845.945,420.185C832.609,428.262 820.155,441.12 812.616,453.002C805.423,464.337 802.214,484.329 803.179,497.074C803.929,506.978 810.304,520.219 811.417,522.259C813.405,525.902 825.87,511.119 841.14,505.448C849.575,502.315 859.116,498.11 868.653,498.198C878.204,498.286 886.09,500.299 891.667,504.952C898.018,510.251 901.204,516.504 901.494,523.496C901.785,530.489 898.639,540.938 892.559,546.721C881.002,557.713 847.58,578.615 843.588,578.506C840.403,578.42 843.823,585.207 847.149,587.482C850.587,589.833 854.242,592.155 859.428,591.723C866.789,591.111 882.019,587.141 891.269,583.09C907.59,575.942 945.454,561.147 960,552.453C968.701,547.252 980.411,539.627 979.41,529.343" style="fill:none;stroke:currentColor;stroke-width:4.85px;"/>
            </g>
            <g transform="matrix(-0.845824,0,0,0.845824,1265.9,239.879)">
                <path d="M995.007,430.19C1018.08,424.102 1054.22,413.928 1075.35,412.625C1079.88,412.345 1084.25,412.114 1088.91,412.023" style="fill:none;stroke:currentColor;stroke-width:4.85px;"/>
            </g>
            <g transform="matrix(-0.845824,0,0,0.845824,1265.9,239.879)">
                <path d="M987.322,525.318C1006.78,515.803 1048.23,501.883 1084.84,505.909C1088.76,506.34 1092.2,506.925 1095.59,507.782" style="fill:none;stroke:currentColor;stroke-width:4.85px;"/>
            </g>
            <g transform="matrix(-0.845824,0,0,0.845824,1265.9,239.879)">
                <path d="M817.034,520.978L831.055,532.518L829.663,512.211" style="fill:none;stroke:currentColor;stroke-width:4.85px;"/>
            </g>
        </g>
    </g>
</svg>
