<?xml version="1.0" encoding="UTF-8" standalone="no"?>
<!DOCTYPE svg PUBLIC "-//W3C//DTD SVG 1.1//EN" "http://www.w3.org/Graphics/SVG/1.1/DTD/svg11.dtd">
<svg width="100%" height="100%" viewBox="0 0 513 513" version="1.1" xmlns="http://www.w3.org/2000/svg" xmlns:xlink="http://www.w3.org/1999/xlink" xml:space="preserve" xmlns:serif="http://www.serif.com/" style="fill-rule:evenodd;clip-rule:evenodd;stroke-linecap:round;stroke-linejoin:round;stroke-miterlimit:1.5;">
    <g transform="matrix(1,0,0,1,-1027,-331)">
        <g id="Yellow" transform="matrix(1.82886,0,0,1.82886,129.481,264.716)">
            <g transform="matrix(0.651312,0.794221,-0.816234,0.669364,727.817,-766.401)">
                <ellipse cx="650.229" cy="637.373" rx="136.302" ry="132.626" style="fill:none;"/>
            </g>
            <g transform="matrix(-5.41274,2.64929,-3.00681,-6.14318,8105.68,-365.338)">
                <ellipse cx="1159.18" cy="421.218" rx="0.498" ry="0.439" style="fill:currentColor;stroke:currentColor;stroke-width:0.08px;"/>
            </g>
            <g transform="matrix(-5.41274,2.64929,-3.00681,-6.14318,8097.51,-394.143)">
                <ellipse cx="1159.18" cy="421.218" rx="0.498" ry="0.439" style="fill:currentColor;stroke:currentColor;stroke-width:0.08px;"/>
            </g>
            <g transform="matrix(-5.41274,2.64929,-3.00681,-6.14318,8091.58,-377.552)">
                <ellipse cx="1159.18" cy="421.218" rx="0.498" ry="0.439" style="fill:currentColor;stroke:currentColor;stroke-width:0.08px;"/>
            </g>
            <g transform="matrix(-7.21699,3.53239,-4.00908,-8.1909,10621.5,-543.539)">
                <ellipse cx="1159.18" cy="421.218" rx="0.498" ry="0.439" style="fill:none;stroke:currentColor;stroke-width:0.48px;"/>
            </g>
            <g transform="matrix(5.80007,1.63577,-1.85651,6.58277,-5217.81,-4479.77)">
                <ellipse cx="1159.18" cy="421.218" rx="0.498" ry="0.439" style="fill:currentColor;stroke:currentColor;stroke-width:0.08px;"/>
            </g>
        </g>
    </g>
</svg>
