<?xml version="1.0" encoding="UTF-8" standalone="no"?>
<!DOCTYPE svg PUBLIC "-//W3C//DTD SVG 1.1//EN" "http://www.w3.org/Graphics/SVG/1.1/DTD/svg11.dtd">
<svg width="100%" height="100%" viewBox="0 0 480 480" version="1.1" xmlns="http://www.w3.org/2000/svg" xmlns:xlink="http://www.w3.org/1999/xlink" xml:space="preserve" xmlns:serif="http://www.serif.com/" style="fill-rule:evenodd;clip-rule:evenodd;stroke-linecap:round;stroke-linejoin:round;stroke-miterlimit:1.5;">
    <g transform="matrix(1,0,0,1,-40,-60)">
        <g id="Website-Logo" serif:id="Website Logo" transform="matrix(1.5358,0,0,1.5358,-547.773,-765.956)">
            <g id="BackroundOffset" transform="matrix(0.675055,0.823173,-0.846056,0.69382,639.29,-283.41)">
                <ellipse cx="650.229" cy="637.373" rx="136.302" ry="132.626" style="fill:rgb(90,93,92);"/>
            </g>
            <g id="RingOffset" transform="matrix(1.03654,0,0,1.03654,-18.2137,-35.4669)">
                <path d="M645.813,615.049C694.809,674.796 686.081,763.082 626.334,812.078C566.587,861.075 478.301,852.347 429.304,792.6C380.308,732.853 389.036,644.567 448.783,595.57C508.53,546.574 596.816,555.302 645.813,615.049ZM618.749,637.243C582.002,592.433 515.787,585.887 470.977,622.634C426.167,659.381 419.621,725.596 456.368,770.406C493.115,815.216 559.33,821.762 604.14,785.015C648.95,748.268 655.496,682.053 618.749,637.243Z" style="fill:rgb(207,180,206);fill-opacity:0.33;"/>
            </g>
            <g transform="matrix(-0.583305,0.545293,-0.560406,-0.599473,1275.45,721.595)">
                <ellipse cx="650.229" cy="637.373" rx="136.302" ry="132.626" style="fill:none;stroke:rgb(207,180,206);stroke-width:5.36px;"/>
            </g>
            <g id="Glyphs" transform="matrix(0.651126,0,0,0.651126,356.669,498.734)">
                <g transform="matrix(1.00536,0.417777,-0.506163,1.21805,-569.162,-717.729)">
                    <path d="M1243.22,488.307C1234.87,491.775 1250.3,503.928 1233.22,506.533" style="fill:none;stroke:rgb(207,180,206);stroke-width:5.51px;"/>
                </g>
                <g transform="matrix(1.00536,0.417777,-0.506163,1.21805,-569.162,-717.729)">
                    <path d="M1233.23,506.507C1246.53,503.764 1253.84,537.661 1241.4,545.78" style="fill:none;stroke:rgb(207,180,206);stroke-width:5.51px;"/>
                </g>
                <g transform="matrix(8.10419,5.1337,-5.82648,9.19782,-6493.38,-9431.32)">
                    <ellipse cx="1159.18" cy="421.218" rx="0.498" ry="0.439" style="fill:rgb(207,180,206);stroke:rgb(207,180,206);stroke-width:0.65px;"/>
                </g>
                <g transform="matrix(-1.16291,1.08712,-1.08712,-1.16291,1670.27,534.09)">
                    <path d="M495.358,585.043C492.046,582.666 484.154,581.905 480.294,586.288C476.122,591.025 478.359,598.849 469.663,598.377" style="fill:none;stroke:rgb(207,180,206);stroke-width:4.19px;"/>
                </g>
                <g transform="matrix(8.10419,5.1337,-5.82648,9.19782,-6636.56,-9318.25)">
                    <ellipse cx="1159.18" cy="421.218" rx="0.498" ry="0.439" style="fill:rgb(207,180,206);stroke:rgb(207,180,206);stroke-width:0.65px;"/>
                </g>
                <g transform="matrix(8.10419,5.1337,-5.82648,9.19782,-6667.36,-9315.14)">
                    <ellipse cx="1159.18" cy="421.218" rx="0.498" ry="0.439" style="fill:rgb(207,180,206);stroke:rgb(207,180,206);stroke-width:0.65px;"/>
                </g>
                <g transform="matrix(5.61567,7.77798,-8.8276,6.37349,-2650.1,-11249.3)">
                    <ellipse cx="1159.18" cy="421.218" rx="0.498" ry="0.439" style="fill:rgb(207,180,206);stroke:rgb(207,180,206);stroke-width:0.65px;"/>
                </g>
                <g transform="matrix(5.61567,7.77798,-8.8276,6.37349,-2674.56,-11312.8)">
                    <ellipse cx="1159.18" cy="421.218" rx="0.498" ry="0.439" style="fill:rgb(207,180,206);stroke:rgb(207,180,206);stroke-width:0.65px;"/>
                </g>
                <g transform="matrix(-1.16291,1.08712,-1.08712,-1.16291,1670.79,535.767)">
                    <path d="M557.022,581.055C557.868,584.159 559.56,590.368 563.315,592.665C567.274,595.087 576.278,595.421 580.78,595.587" style="fill:none;stroke:rgb(207,180,206);stroke-width:4.19px;stroke-dasharray:0,4.4,0,0,0,0;"/>
                </g>
                <g transform="matrix(10.8056,6.84493,-7.76864,12.2638,-8813.05,-12677.3)">
                    <ellipse cx="1159.18" cy="421.218" rx="0.498" ry="0.439" style="fill:none;stroke:rgb(207,180,206);stroke-width:0.49px;"/>
                </g>
                <g transform="matrix(-1.16291,1.08712,-1.08712,-1.16291,1670.27,534.09)">
                    <path d="M468.318,591.847C465.069,591.924 462.009,594.775 461.856,598.397C461.663,602.963 466.148,608.163 472.976,607.416" style="fill:none;stroke:rgb(207,180,206);stroke-width:4.19px;"/>
                </g>
                <g transform="matrix(-1.16291,1.08712,-1.08712,-1.16291,1670.27,534.09)">
                    <path d="M580.486,586.659C584.282,585.957 589.284,585.233 591.896,587.972C595.401,591.646 588.68,601.364 594.347,605.964" style="fill:none;stroke:rgb(207,180,206);stroke-width:4.19px;"/>
                </g>
                <g transform="matrix(-1.16291,1.08712,-1.08712,-1.16291,1670.27,534.09)">
                    <path d="M599.197,586.313C599.665,590.657 604.219,590.773 605.336,595.497C606.294,599.553 607.248,604.894 603.545,610.939" style="fill:none;stroke:rgb(207,180,206);stroke-width:4.19px;"/>
                </g>
                <g transform="matrix(-1.16291,1.08712,-1.08712,-1.16291,1670.27,534.09)">
                    <path d="M433.726,629.334C431.291,629.361 425.467,639.91 426.768,641.853C428.069,643.796 440.372,643.077 441.532,640.991C442.691,638.904 436.24,629.305 433.726,629.334Z" style="fill:none;stroke:rgb(207,180,206);stroke-width:4.19px;"/>
                </g>
                <g transform="matrix(-0.901193,1.31226,-1.31226,-0.901193,1691.86,228.978)">
                    <path d="M650.664,684.773C649.261,686.733 651.462,700.885 653.02,702.144C654.466,703.313 668.747,702.256 669.846,700.361C670.87,698.594 669.674,683.947 667.382,682.588C665.035,681.197 652.085,682.789 650.664,684.773Z" style="fill:none;stroke:rgb(207,180,206);stroke-width:4.19px;"/>
                </g>
                <g transform="matrix(-1.18238,0.694216,-0.752221,-1.28118,1406.08,883.996)">
                    <path d="M593.975,799.76C592.377,799.723 592.075,806.873 589.606,808.631C587.136,810.388 579.576,809.047 579.159,810.303C578.743,811.56 586.339,813.66 587.108,816.172C587.877,818.683 582.737,824.8 583.775,825.371C584.813,825.943 590.191,819.829 593.335,819.601C596.479,819.373 601.661,824.483 602.638,824.003C603.615,823.523 598.117,818.884 599.197,816.722C600.276,814.559 609.116,812.341 609.116,811.029C609.116,809.717 601.72,810.728 599.197,808.85C596.673,806.972 595.574,799.797 593.975,799.76Z" style="fill:none;stroke:rgb(207,180,206);stroke-width:4.66px;"/>
                </g>
                <g transform="matrix(-1.16291,1.08712,-1.08712,-1.16291,1670.27,534.09)">
                    <path d="M447.644,789.102C450.699,791.173 456.809,795.313 461.04,796.516C464.884,797.609 469.877,797.379 473.027,796.317" style="fill:none;stroke:rgb(207,180,206);stroke-width:4.19px;"/>
                </g>
                <g transform="matrix(-1.16291,1.08712,-1.08712,-1.16291,1670.27,534.09)">
                    <path d="M457.468,809.372C457.383,806.481 456.755,804.174 455.629,801.852C453.992,798.474 449.76,792.226 447.644,789.102" style="fill:none;stroke:rgb(207,180,206);stroke-width:4.19px;"/>
                </g>
                <g transform="matrix(0.020806,-1.32983,1.42332,0.167639,-519.794,1931.5)">
                    <path d="M1289.75,404.739C1283.81,405.345 1268.21,406.274 1262.2,397.789" style="fill:none;stroke:rgb(207,180,206);stroke-width:5.09px;"/>
                </g>
                <g transform="matrix(0.166224,-0.0202867,-0.0356718,-0.176301,-27.514,375.184)">
                    <path d="M757.58,428.868C774.892,348.665 802.156,338.737 829.308,323.314C853.003,309.854 857.503,287.08 845.283,268.788C836.545,255.707 815.105,247.172 795.688,258.54C785.069,264.757 775.055,276.926 768.054,297.56C744.672,366.471 757.407,428.955 757.58,428.868Z" style="fill:none;stroke:rgb(207,180,206);stroke-width:39.95px;"/>
                </g>
                <g transform="matrix(-0.130906,-0.104429,0.122813,-0.13142,172.119,323.144)">
                    <path d="M757.58,428.868C774.892,348.665 802.156,338.737 829.308,323.314C853.003,309.854 857.503,287.08 845.283,268.788C836.545,255.707 815.105,247.172 795.688,258.54C785.069,264.757 775.055,276.926 768.054,297.56C744.672,366.471 757.407,428.955 757.58,428.868Z" style="fill:none;stroke:rgb(207,180,206);stroke-width:39.95px;"/>
                </g>
                <g transform="matrix(-1.16291,1.08712,-1.08712,-1.16291,1670.27,534.09)">
                    <path d="M580.927,808.824C578.885,812.847 574.111,815.379 570.571,815.094" style="fill:none;stroke:rgb(207,180,206);stroke-width:4.19px;"/>
                </g>
                <g transform="matrix(3.64144,-8.97976,10.3111,4.11886,-8481.08,9008.73)">
                    <ellipse cx="1159.18" cy="421.218" rx="0.498" ry="0.439" style="fill:none;stroke:rgb(207,180,206);stroke-width:0.64px;"/>
                </g>
                <g transform="matrix(-0.929179,-0.0970981,0.0964398,-0.92288,397.81,1025.59)">
                    <path d="M394.951,700.368C387.542,699.646 380.189,693.537 379.378,685.104C379.273,684.01 379.386,677.991 385.236,675.346" style="fill:none;stroke:rgb(207,180,206);stroke-width:7.16px;stroke-dasharray:0,7.52,0,0,0,0;"/>
                </g>
                <g transform="matrix(-0.13929,0.923797,-0.917534,-0.138345,777.855,106.503)">
                    <path d="M391.859,682.304C392.781,686.177 405.836,689.642 416.539,679.765C423.153,673.66 433.178,664.936 435.801,639.308" style="fill:none;stroke:rgb(207,180,206);stroke-width:7.16px;"/>
                </g>
                <g transform="matrix(-1.16291,1.08712,-1.08712,-1.16291,1670.27,534.09)">
                    <path d="M448.094,631.689C444.095,628.528 440.598,623.402 439.854,621.412C438.604,618.07 438.242,614.009 440.796,610.644C443.131,607.57 447.128,606.903 450.107,608.467C453.755,610.383 453.65,613.888 452.88,616.2C451.998,618.851 449.41,618.736 447.397,617.777" style="fill:none;stroke:rgb(207,180,206);stroke-width:4.19px;"/>
                </g>
                <g transform="matrix(1.83501,-9.41623,10.6869,2.08264,-6320.96,10142.7)">
                    <ellipse cx="1159.18" cy="421.218" rx="0.498" ry="0.439" style="fill:rgb(207,180,206);stroke:rgb(207,180,206);stroke-width:0.65px;"/>
                </g>
                <g transform="matrix(1.83501,-9.41623,10.6869,2.08264,-6320.96,10142.7)">
                    <ellipse cx="1159.18" cy="421.218" rx="0.498" ry="0.439" style="fill:rgb(207,180,206);stroke:rgb(207,180,206);stroke-width:0.65px;"/>
                </g>
                <g transform="matrix(1.83501,-9.41623,10.6869,2.08264,-6276.55,10160)">
                    <ellipse cx="1159.18" cy="421.218" rx="0.498" ry="0.439" style="fill:rgb(207,180,206);stroke:rgb(207,180,206);stroke-width:0.65px;"/>
                </g>
                <g transform="matrix(1.83501,-9.41623,10.6869,2.08264,-6166.96,10357.7)">
                    <ellipse cx="1159.18" cy="421.218" rx="0.498" ry="0.439" style="fill:rgb(207,180,206);stroke:rgb(207,180,206);stroke-width:0.65px;"/>
                </g>
                <g transform="matrix(-1.16291,1.08712,-1.08712,-1.16291,1670.27,534.09)">
                    <path d="M436.292,652.898C430.295,651.485 425.244,651.16 421.467,651.995C415.878,653.23 414.377,656.957 415.593,660.764C417.151,665.645 425.816,667.742 427.34,665.31C429.122,662.465 427.226,660.169 424.77,659.699" style="fill:none;stroke:rgb(207,180,206);stroke-width:4.19px;"/>
                </g>
                <g transform="matrix(1.83501,-9.41623,10.6869,2.08264,-6291.92,10136.6)">
                    <ellipse cx="1159.18" cy="421.218" rx="0.498" ry="0.439" style="fill:rgb(207,180,206);stroke:rgb(207,180,206);stroke-width:0.65px;"/>
                </g>
                <g transform="matrix(2.44668,-12.555,14.2492,2.77685,-8510.9,13507.8)">
                    <ellipse cx="1159.18" cy="421.218" rx="0.498" ry="0.439" style="fill:none;stroke:rgb(207,180,206);stroke-width:0.49px;"/>
                </g>
                <g transform="matrix(2.44668,-12.555,14.2492,2.77685,-8556.55,13876.7)">
                    <ellipse cx="1159.18" cy="421.218" rx="0.498" ry="0.439" style="fill:none;stroke:rgb(207,180,206);stroke-width:0.49px;"/>
                </g>
                <g transform="matrix(2.44668,-12.555,14.2492,2.77685,-8389.81,13578.1)">
                    <ellipse cx="1159.18" cy="421.218" rx="0.498" ry="0.439" style="fill:none;stroke:rgb(207,180,206);stroke-width:0.49px;"/>
                </g>
                <g transform="matrix(-1.16291,1.08712,-1.08712,-1.16291,1670.27,534.09)">
                    <path d="M497.103,809.232C501.118,811.49 509.148,816.006 515.789,817.543C522.532,819.104 532.55,818.764 537.558,818.595" style="fill:none;stroke:rgb(207,180,206);stroke-width:4.19px;"/>
                </g>
                <g transform="matrix(-1.16291,1.08712,-1.08712,-1.16291,1670.27,534.09)">
                    <path d="M543.266,817.553C545.169,817.468 550.925,813.275 553.429,819.006C555.334,823.364 548.431,831.322 543.667,831.305" style="fill:none;stroke:rgb(207,180,206);stroke-width:4.19px;"/>
                </g>
                <g transform="matrix(-1.16291,1.08712,-1.08712,-1.16291,1670.27,534.09)">
                    <path d="M537.558,830.728C532.915,831.943 523.974,830.944 517.331,829.747C507.666,828.006 494.906,818.224 479.57,820.282" style="fill:none;stroke:rgb(207,180,206);stroke-width:4.19px;stroke-dasharray:0,4.4,0,0,0,0;"/>
                </g>
                <g transform="matrix(-1.16291,1.08712,-1.08712,-1.16291,1670.27,534.09)">
                    <path d="M490.877,805.489C485.389,802.923 473.729,812.139 463.721,803.883" style="fill:none;stroke:rgb(207,180,206);stroke-width:4.19px;stroke-dasharray:0,4.4,0,0,0,0;"/>
                </g>
                <g transform="matrix(-1.16291,1.08712,-1.08712,-1.16291,1670.27,534.09)">
                    <path d="M625.011,626.614C623.765,629.806 626.798,634.713 629.737,635.902C635.34,638.169 638.906,632.374 640.688,629.477" style="fill:none;stroke:rgb(207,180,206);stroke-width:4.19px;stroke-dasharray:0,4.4,0,0,0,0;"/>
                </g>
                <g transform="matrix(-1.16291,1.08712,-1.08712,-1.16291,1666.28,532.07)">
                    <path d="M650.218,642.926C648.491,642.997 645.037,643.139 643.998,640.334C642.784,637.055 645.74,633.815 647.217,632.195" style="fill:none;stroke:rgb(207,180,206);stroke-width:4.19px;"/>
                </g>
                <g transform="matrix(-1.48365,0.577041,-0.577041,-1.48365,1497.17,1046.2)">
                    <path d="M652.049,645.395C649.624,646.71 644.773,649.34 644.024,654.194C643.118,660.066 644.678,666.813 650.802,671.272" style="fill:none;stroke:rgb(207,180,206);stroke-width:4.19px;"/>
                </g>
                <g transform="matrix(-1.16291,1.08712,-1.08712,-1.16291,1670.27,534.09)">
                    <path d="M431.895,744.379C433.259,738.643 417.736,735.343 411.626,730.068C407.85,726.808 407.672,719.576 407.92,715.488" style="fill:none;stroke:rgb(207,180,206);stroke-width:4.19px;"/>
                </g>
                <g transform="matrix(-1.16291,1.08712,-1.08712,-1.16291,1670.27,534.09)">
                    <path d="M428.873,731.281C425.48,729.431 421.406,726.152 419.488,721.982C418.031,718.814 418.684,715.411 417.794,712.662C416.653,709.136 412.641,705.339 406.155,702.402" style="fill:none;stroke:rgb(207,180,206);stroke-width:4.19px;"/>
                </g>
                <g transform="matrix(-1.16291,1.08712,-1.08712,-1.16291,1670.27,534.09)">
                    <path d="M407.92,695.805C411.815,698.613 417.805,700.283 420.469,698.659C423.706,696.687 425.863,691.578 427.668,683.467" style="fill:none;stroke:rgb(207,180,206);stroke-width:4.19px;"/>
                </g>
            </g>
            <g transform="matrix(1.03654,0,0,1.03654,-18.2137,-35.4669)">
                <path d="M401.077,735.072C394.934,708.1 396.933,679.833 406.701,654.055C410.628,654.133 414.481,654.329 418.3,654.564C436.176,655.666 466.741,664.272 486.256,669.421C488.909,670.122 491.041,670.727 492.747,671.252C494.368,662.606 494.858,653.704 493.906,647.216C492.134,635.135 482.589,618.509 483.575,617.359C484.755,615.984 498.98,630.682 515.866,636.892C534.095,643.596 554.829,644.774 570.124,646.846C586.79,649.105 600.439,653.753 612.337,660.959C623.617,667.79 634.15,678.666 640.527,688.716C646.611,698.304 649.325,715.213 648.509,725.993C647.875,734.37 642.482,745.57 641.541,747.295C640.971,748.34 639.382,747.593 637.028,745.963L636.79,746.212L624.931,755.973L626.109,738.797L626.167,738.157C623.167,736.208 619.87,734.365 616.401,733.076C609.266,730.426 601.196,726.87 593.13,726.944C585.052,727.018 578.381,728.721 573.664,732.657C568.292,737.139 565.597,742.428 565.352,748.342C565.106,754.256 567.767,763.095 572.909,767.986C582.685,777.284 610.953,794.962 614.33,794.871C617.024,794.797 614.131,800.539 611.318,802.462C608.411,804.451 605.318,806.415 600.932,806.05C594.706,805.532 581.824,802.174 574,798.747C560.196,792.702 528.17,780.188 515.866,772.834C508.507,768.435 498.602,761.985 499.448,753.287C499.465,753.121 499.483,752.956 499.504,752.794C497.679,752.139 495.457,751.203 492.757,749.883C476.294,741.834 441.238,730.061 410.274,733.466C406.981,733.828 403.925,734.355 401.077,735.072Z" style="fill:white;"/>
            </g>
            <g id="Outline" transform="matrix(0.651126,0,0,0.651126,356.669,498.734)">
                <g transform="matrix(-1.34648,0,0,1.34648,1538.08,-334.007)">
                    <path d="M996.834,459.115C988.32,446.266 983.702,419.344 985.963,403.937C988.058,389.654 999.343,369.997 998.177,368.638C996.782,367.012 979.964,384.389 960,391.731C938.449,399.657 913.935,401.05 895.852,403.5C876.148,406.17 860.011,411.665 845.945,420.185C832.609,428.262 820.155,441.12 812.616,453.002C805.423,464.337 802.214,484.329 803.179,497.074C803.929,506.978 810.304,520.219 811.417,522.259C813.405,525.902 825.87,511.119 841.14,505.448C849.575,502.315 859.116,498.11 868.653,498.198C878.204,498.286 886.09,500.299 891.667,504.952C898.018,510.251 901.204,516.504 901.494,523.496C901.785,530.489 898.639,540.938 892.559,546.721C881.002,557.713 847.58,578.615 843.588,578.506C840.403,578.42 843.823,585.207 847.149,587.482C850.587,589.833 854.242,592.155 859.428,591.723C866.789,591.111 882.019,587.141 891.269,583.09C907.59,575.942 945.454,561.147 960,552.453C968.701,547.252 980.411,539.627 979.41,529.343" style="fill:none;stroke:rgb(229,229,219);stroke-width:4.95px;"/>
                </g>
                <g transform="matrix(-1.34648,0,0,1.34648,1538.08,-334.007)">
                    <path d="M995.007,430.19C1018.08,424.102 1054.22,413.928 1075.35,412.625C1079.88,412.345 1084.25,412.114 1088.91,412.023" style="fill:none;stroke:rgb(229,229,219);stroke-width:4.95px;"/>
                </g>
                <g transform="matrix(-1.34648,0,0,1.34648,1538.08,-334.007)">
                    <path d="M987.322,525.318C1006.78,515.803 1048.23,501.883 1084.84,505.909C1088.76,506.34 1092.2,506.925 1095.59,507.782" style="fill:none;stroke:rgb(229,229,219);stroke-width:4.95px;"/>
                </g>
                <g transform="matrix(-1.34648,0,0,1.34648,1538.08,-334.007)">
                    <path d="M817.034,520.978L831.055,532.518L829.663,512.211" style="fill:none;stroke:rgb(229,229,219);stroke-width:4.95px;"/>
                </g>
            </g>
            <g id="Red" transform="matrix(0.651126,0,0,0.651126,356.669,498.734)">
                <g transform="matrix(1.03683,1.26433,-1.29937,1.06557,434.007,-1201.27)">
                    <ellipse cx="650.229" cy="637.373" rx="136.302" ry="132.626" style="fill:none;"/>
                </g>
                <g transform="matrix(11.7184,5.12757,-5.81952,13.2998,-10761.4,-11166.6)">
                    <ellipse cx="1159.18" cy="421.218" rx="0.498" ry="0.439" style="fill:none;stroke:rgb(205,133,135);stroke-width:0.49px;"/>
                </g>
                <g transform="matrix(8.78883,3.84568,-4.36464,9.97486,-7973.51,-8258.01)">
                    <ellipse cx="1159.18" cy="421.218" rx="0.498" ry="0.439" style="fill:rgb(205,133,135);stroke:rgb(205,133,135);stroke-width:0.65px;"/>
                </g>
                <g transform="matrix(8.78883,3.84568,-4.36464,9.97486,-7958.11,-8287.8)">
                    <ellipse cx="1159.18" cy="421.218" rx="0.498" ry="0.439" style="fill:rgb(205,133,135);stroke:rgb(205,133,135);stroke-width:0.65px;"/>
                </g>
                <g transform="matrix(-0.6423,2.34162,-2.47114,-0.608634,1556.47,-1557.97)">
                    <path d="M894.251,238.872C894.397,231.389 895.541,218.162 888.062,214.162" style="fill:none;stroke:rgb(205,133,135);stroke-width:2.65px;"/>
                </g>
                <g transform="matrix(-0.166408,0.307957,-0.324991,-0.157686,657.257,224.967)">
                    <path d="M757.58,428.868C774.892,348.665 802.156,338.737 829.308,323.314C853.003,309.854 857.503,287.08 845.283,268.788C836.545,255.707 815.105,247.172 795.688,258.54C785.069,264.757 775.055,276.926 768.054,297.56C744.672,366.471 757.407,428.955 757.58,428.868Z" style="fill:rgb(205,133,135);stroke:rgb(205,133,135);stroke-width:18.35px;"/>
                </g>
            </g>
            <g id="Yellow" transform="matrix(0.651126,0,0,0.651126,356.669,498.734)">
                <g transform="matrix(9.2332,2.60399,-2.9554,10.4792,-9030.9,-7112.62)">
                    <ellipse cx="1159.18" cy="421.218" rx="0.498" ry="0.439" style="fill:rgb(203,187,106);stroke:rgb(203,187,106);stroke-width:0.65px;"/>
                </g>
                <g transform="matrix(-11.0625,6.42141,-7.28796,-12.5554,16078.7,-1976.17)">
                    <ellipse cx="1159.18" cy="421.218" rx="0.498" ry="0.439" style="fill:none;stroke:rgb(203,187,106);stroke-width:0.49px;"/>
                </g>
                <g transform="matrix(-8.29688,4.81606,-5.46597,-9.41653,12080.1,-1427.87)">
                    <ellipse cx="1159.18" cy="421.218" rx="0.498" ry="0.439" style="fill:rgb(203,187,106);stroke:rgb(203,187,106);stroke-width:0.65px;"/>
                </g>
                <g transform="matrix(-8.29688,4.81606,-5.46597,-9.41653,12087.6,-1454.88)">
                    <ellipse cx="1159.18" cy="421.218" rx="0.498" ry="0.439" style="fill:rgb(203,187,106);stroke:rgb(203,187,106);stroke-width:0.65px;"/>
                </g>
                <g transform="matrix(-8.29688,4.81606,-5.46597,-9.41653,12103.8,-1410.06)">
                    <ellipse cx="1159.18" cy="421.218" rx="0.498" ry="0.439" style="fill:rgb(203,187,106);stroke:rgb(203,187,106);stroke-width:0.65px;"/>
                </g>
                <g transform="matrix(1.03683,1.26433,-1.29937,1.06557,434.007,-1201.27)">
                    <ellipse cx="650.229" cy="637.373" rx="136.302" ry="132.626" style="fill:none;"/>
                </g>
            </g>
            <g id="Blue" transform="matrix(0.651126,0,0,0.651126,356.669,498.734)">
                <g transform="matrix(-1.34648,0,0,1.34648,1538.08,-334.007)">
                    <path d="M934.494,452.519C934.568,450.231 910.629,435.084 901.547,432.497C894.662,430.536 882.639,431.683 875.974,439.04C866.134,449.901 860.22,467.155 860.945,468.158C862.703,470.589 876.64,473.157 884.416,473.366C892.841,473.593 901.941,472.015 910.292,468.459C918.643,464.902 934.425,454.639 934.494,452.519Z" style="fill:none;stroke:rgb(94,126,159);stroke-width:4.95px;"/>
                </g>
                <g transform="matrix(1.03683,1.26433,-1.29937,1.06557,434.007,-1201.27)">
                    <ellipse cx="650.229" cy="637.373" rx="136.302" ry="132.626" style="fill:none;"/>
                </g>
            </g>
            <g id="Turqoise" transform="matrix(0.651126,0,0,0.651126,356.669,498.734)">
                <g transform="matrix(-1.34648,4.41844e-17,-4.41844e-17,1.34648,1538.08,-334.007)">
                    <path d="M890.612,441.993C887.261,451.514 888.668,459.693 894.885,462.059" style="fill:none;stroke:rgb(76,150,148);stroke-width:4.95px;"/>
                </g>
                <g transform="matrix(9.2332,2.60399,-2.9554,10.4792,-9131.33,-7159.99)">
                    <ellipse cx="1159.18" cy="421.218" rx="0.498" ry="0.439" style="fill:rgb(76,150,148);stroke:rgb(76,150,148);stroke-width:0.65px;"/>
                </g>
                <g transform="matrix(1.03683,1.26433,-1.29937,1.06557,434.007,-1201.27)">
                    <ellipse cx="650.229" cy="637.373" rx="136.302" ry="132.626" style="fill:none;"/>
                </g>
            </g>
            <g id="Orange" transform="matrix(0.651126,0,0,0.651126,356.669,498.734)">
                <g transform="matrix(-0.532019,1.7803,-1.70695,-0.5101,2095.1,-1542.2)">
                    <path d="M1188.28,709.823C1191.34,715.273 1189.56,721.903 1185.38,727.507C1192,720.381 1195.86,718.043 1200.1,720.416" style="fill:none;stroke:rgb(224,163,109);stroke-width:3.66px;"/>
                </g>
                <g transform="matrix(-1.34648,0,0,1.34648,1538.08,-334.007)">
                    <path d="M814.89,483.566C815.354,489.645 813.236,492.415 813.236,492.415" style="fill:none;stroke:rgb(224,163,109);stroke-width:4.95px;"/>
                </g>
                <g transform="matrix(-1.34648,0,0,1.34648,1538.08,-334.007)">
                    <path d="M979.185,522.722C978.839,508.817 978.749,507.394 973.591,498.386" style="fill:none;stroke:rgb(224,163,109);stroke-width:4.95px;stroke-dasharray:0,5.2,0,0,0,0;"/>
                </g>
                <g transform="matrix(1.03683,1.26433,-1.29937,1.06557,434.007,-1201.27)">
                    <ellipse cx="650.229" cy="637.373" rx="136.302" ry="132.626" style="fill:none;"/>
                </g>
            </g>
            <g transform="matrix(0.651126,0,0,0.651126,356.669,498.734)">
                <path d="M271.248,60.162C403.618,55.332 515.007,158.878 519.838,291.248C524.668,423.618 421.122,535.007 288.752,539.838C156.382,544.668 44.993,441.122 40.162,308.752C35.332,176.382 138.878,64.993 271.248,60.162ZM271.872,77.281C148.95,81.766 52.795,185.205 57.281,308.128C61.766,431.05 165.205,527.205 288.128,522.719C411.05,518.234 507.205,414.795 502.719,291.872C498.234,168.95 394.795,72.795 271.872,77.281Z" style="fill:rgb(207,180,206);"/>
            </g>
        </g>
    </g>
</svg>
