<?xml version="1.0" encoding="UTF-8" standalone="no"?>
<!DOCTYPE svg PUBLIC "-//W3C//DTD SVG 1.1//EN" "http://www.w3.org/Graphics/SVG/1.1/DTD/svg11.dtd">
<svg width="100%" height="100%" viewBox="0 0 108 75" version="1.1" xmlns="http://www.w3.org/2000/svg" xmlns:xlink="http://www.w3.org/1999/xlink" xml:space="preserve" xmlns:serif="http://www.serif.com/" style="fill-rule:evenodd;clip-rule:evenodd;stroke-linejoin:round;stroke-miterlimit:2;">
    <g transform="matrix(1,0,0,1,-21,-39)">
        <g transform="matrix(1,-1.11022e-16,1.11022e-16,1,-18.3594,37.993)">
            <g id="Check">
                <path d="M76.312,70.336C74.256,68.281 42.084,36.108 42.084,36.108C40.86,34.885 40.173,33.225 40.173,31.495C40.173,29.765 40.861,28.105 42.084,26.881C43.308,25.658 44.967,24.97 46.698,24.97C48.428,24.97 50.087,25.658 51.311,26.881C51.311,26.881 70.086,45.656 78.079,53.65C80.032,55.602 83.198,55.602 85.15,53.65C97.125,41.675 135.408,3.392 135.408,3.392C136.632,2.169 138.291,1.481 140.021,1.481C141.752,1.481 143.411,2.169 144.635,3.392C145.858,4.616 146.546,6.276 146.546,8.006C146.546,9.736 145.859,11.396 144.635,12.619C144.635,12.619 88.973,68.281 86.918,70.336C85.512,71.742 83.604,72.533 81.615,72.533C79.626,72.533 77.718,71.742 76.312,70.336Z" style="fill:currentColor;"/>
            </g>
        </g>
    </g>
</svg>
