<?xml version="1.0" encoding="UTF-8" standalone="no"?>
<!DOCTYPE svg PUBLIC "-//W3C//DTD SVG 1.1//EN" "http://www.w3.org/Graphics/SVG/1.1/DTD/svg11.dtd">
<svg width="100%" height="100%" viewBox="0 0 88 73" version="1.1" xmlns="http://www.w3.org/2000/svg" xmlns:xlink="http://www.w3.org/1999/xlink" xml:space="preserve" xmlns:serif="http://www.serif.com/" style="fill-rule:evenodd;clip-rule:evenodd;stroke-linejoin:round;stroke-miterlimit:2;">
    <g transform="matrix(1,0,0,1,-25,-31)">
        <g id="ClassPop-OutButton" transform="matrix(0.680807,0,0,0.908283,17.5979,5.233)">
            <g transform="matrix(0.763394,0,0,0.763394,55.8641,8.05043)">
                <path d="M63.891,35.748L82.004,35.748C84.322,35.728 85.266,36.073 85.804,36.762C86.052,37.079 86.425,37.511 86.754,39.548L88.654,50.948C88.955,52.794 89.003,53.221 89.271,53.671C89.505,54.062 89.875,54.741 91.504,54.747L68.868,54.747C68.107,54.512 67.857,54.06 67.68,53.763C67.397,53.288 67.346,52.837 67.028,50.885L65.02,38.838C64.672,36.685 64.278,36.228 64.016,35.893C63.976,35.843 63.935,35.794 63.891,35.748Z" style="fill:rgb(183,143,188);fill-opacity:0.66;"/>
            </g>
            <g transform="matrix(1.12131,0,0,0.84048,36.1314,3.6522)">
                <path d="M62.089,37.702L62.052,37.41C61.757,35.034 61.423,34.531 61.201,34.161C61.168,34.106 61.133,34.052 61.096,34L76.448,34.001C78.413,33.979 79.212,34.359 79.669,35.119C79.879,35.469 80.195,35.945 80.474,38.193L82.084,50.767C82.34,52.805 82.381,53.276 82.608,53.771C82.806,54.203 83.119,54.953 84.5,54.959L79.894,54.959C78.785,54.954 78.533,54.337 78.375,53.981C78.192,53.573 78.159,53.185 77.954,51.508L76.661,41.154C76.437,39.303 76.183,38.911 76.014,38.623C75.647,37.997 75.005,37.684 73.427,37.702L62.089,37.702Z" style="fill:rgb(183,143,188);"/>
            </g>
            <g transform="matrix(0.763394,0,0,0.763394,38.6856,8.05043)">
                <path d="M63.891,35.748L82.004,35.748C84.322,35.728 85.266,36.073 85.804,36.762C86.052,37.079 86.425,37.511 86.754,39.548L88.654,50.948C88.955,52.794 89.003,53.221 89.271,53.671C89.505,54.062 89.875,54.741 91.504,54.747L68.868,54.747C68.107,54.512 67.857,54.06 67.68,53.763C67.397,53.288 67.346,52.837 67.028,50.885L65.02,38.838C64.672,36.685 64.278,36.228 64.016,35.893C63.976,35.843 63.935,35.794 63.891,35.748Z" style="fill:rgb(205,133,135);fill-opacity:0.66;"/>
            </g>
            <g transform="matrix(1.12131,0,0,0.84048,18.953,3.6522)">
                <path d="M62.089,37.702L62.052,37.41C61.757,35.034 61.423,34.531 61.201,34.161C61.168,34.106 61.133,34.052 61.096,34L76.448,34.001C78.413,33.979 79.212,34.359 79.669,35.119C79.879,35.469 80.195,35.945 80.474,38.193L82.084,50.767C82.34,52.805 82.381,53.276 82.608,53.771C82.806,54.203 83.119,54.953 84.5,54.959L79.894,54.959C78.785,54.954 78.533,54.337 78.375,53.981C78.192,53.573 78.159,53.185 77.954,51.508L76.661,41.154C76.437,39.303 76.183,38.911 76.014,38.623C75.647,37.997 75.005,37.684 73.427,37.702L62.089,37.702Z" style="fill:rgb(205,133,135);"/>
            </g>
            <g transform="matrix(0.763394,0,0,0.763394,20.852,8.05043)">
                <path d="M63.891,35.748L82.004,35.748C84.322,35.728 85.266,36.073 85.804,36.762C86.052,37.079 86.425,37.511 86.754,39.548L88.654,50.948C88.955,52.794 89.003,53.221 89.271,53.671C89.505,54.062 89.875,54.741 91.504,54.747L68.868,54.747C68.107,54.512 67.857,54.06 67.68,53.763C67.397,53.288 67.346,52.837 67.028,50.885L65.02,38.838C64.672,36.685 64.278,36.228 64.016,35.893C63.976,35.843 63.935,35.794 63.891,35.748Z" style="fill:rgb(76,150,148);fill-opacity:0.66;"/>
            </g>
            <g transform="matrix(1.12131,0,0,0.84048,1.11932,3.6522)">
                <path d="M62.089,37.702L62.052,37.41C61.757,35.034 61.423,34.531 61.201,34.161C61.168,34.106 61.133,34.052 61.096,34L76.448,34.001C78.413,33.979 79.212,34.359 79.669,35.119C79.879,35.469 80.195,35.945 80.474,38.193L82.084,50.767C82.34,52.805 82.381,53.276 82.608,53.771C82.806,54.203 83.119,54.953 84.5,54.959L79.894,54.959C78.785,54.954 78.533,54.337 78.375,53.981C78.192,53.573 78.159,53.185 77.954,51.508L76.661,41.154C76.437,39.303 76.183,38.911 76.014,38.623C75.647,37.997 75.005,37.684 73.427,37.702L62.089,37.702Z" style="fill:rgb(76,150,148);"/>
            </g>
            <g transform="matrix(1.32357,0,0,1.12919,-14.5542,-12.2003)">
                <path d="M63.913,59.425L110.727,59.425L110.727,102.085L26.107,102.085L26.107,59.425L28.359,59.425C29.66,59.419 29.955,58.783 30.141,58.417C30.355,57.996 30.394,57.597 30.634,55.868L32.151,45.199C32.414,43.292 32.712,42.888 32.91,42.591C33.339,41.948 34.089,41.626 35.929,41.643L35.944,41.643L56.328,41.643C58.179,41.624 58.932,41.946 59.362,42.591C59.56,42.888 59.858,43.292 60.121,45.199L61.638,55.868C61.878,57.597 61.917,57.996 62.131,58.417C62.317,58.783 62.612,59.419 63.913,59.425Z" style="fill:currentColor;fill-opacity:0.66;"/>
            </g>
            <g transform="matrix(1.46884,0,0,1.10098,-25.8486,-5.76142)">
                <path d="M70.801,50.459L107.5,50.459C110.261,50.459 112.5,52.698 112.5,55.459C112.5,65.666 112.5,88.793 112.5,99C112.5,100.326 111.973,101.598 111.036,102.536C110.098,103.473 108.826,104 107.5,104C92.184,104 46.027,104 30.711,104C29.385,104 28.113,103.473 27.176,102.536C26.238,101.598 25.711,100.326 25.711,99C25.711,87.922 25.711,61.622 25.711,53.143C25.711,52.432 25.994,51.749 26.497,51.246C27.001,50.742 27.683,50.459 28.395,50.459C28.396,50.459 28.397,50.459 28.397,50.459C29.948,50.453 30.3,49.717 30.523,49.292C30.778,48.805 30.824,48.343 31.111,46.341L32.92,36.06C33.233,33.851 33.589,33.383 33.825,33.039C34.336,32.294 35.231,31.921 37.425,31.94L37.443,31.941L61.755,31.941C63.962,31.919 64.861,32.292 65.373,33.039C65.609,33.383 65.965,33.851 66.278,36.06L68.087,46.341C68.374,48.343 68.42,48.805 68.675,49.292C68.898,49.717 69.25,50.453 70.801,50.459ZM65.281,55.099C64.109,55.093 63.843,54.441 63.675,54.065C63.482,53.634 63.447,53.224 63.231,51.451L61.864,40.509C61.627,38.553 61.359,38.139 61.18,37.834C60.793,37.173 60.114,36.842 58.446,36.861L40.078,36.861L40.065,36.861C38.407,36.844 37.73,37.175 37.344,37.834C37.166,38.139 36.897,38.553 36.66,40.509L35.294,51.451C35.077,53.224 35.042,53.634 34.849,54.065C34.681,54.441 34.415,55.093 33.243,55.099L33.242,55.099C32.122,55.099 31.214,56.007 31.214,57.127C31.214,63.656 31.214,84.262 31.214,93.852C31.214,95.178 31.741,96.45 32.678,97.388C33.616,98.325 34.888,98.852 36.214,98.852L102.464,98.852C103.791,98.852 105.062,98.325 106,97.388C106.938,96.45 107.464,95.178 107.464,93.852L107.464,60.099C107.464,57.337 105.226,55.099 102.464,55.099C91.293,55.099 65.281,55.099 65.281,55.099Z" style="fill:currentColor;"/>
            </g>
            <g transform="matrix(0.881153,0,0,0.517786,8.13814,32.0397)">
                <path d="M119.665,58C124.268,58 128,62.76 128,68.632C128,80.706 128,100.294 128,112.368C128,118.24 124.268,123 119.665,123C100.179,123 51.821,123 32.335,123C27.732,123 24,118.24 24,112.368C24,100.294 24,80.706 24,68.632C24,62.76 27.732,58 32.335,58C51.821,58 100.179,58 119.665,58Z" style="fill:currentColor;"/>
            </g>
        </g>
    </g>
</svg>
