<?xml version="1.0" encoding="UTF-8" standalone="no"?>
<!DOCTYPE svg PUBLIC "-//W3C//DTD SVG 1.1//EN" "http://www.w3.org/Graphics/SVG/1.1/DTD/svg11.dtd">
<svg width="100%" height="100%" viewBox="0 0 29 26" version="1.1" xmlns="http://www.w3.org/2000/svg" xmlns:xlink="http://www.w3.org/1999/xlink" xml:space="preserve" xmlns:serif="http://www.serif.com/" style="fill-rule:evenodd;clip-rule:evenodd;stroke-linejoin:round;stroke-miterlimit:2;">
    <g id="codePost">
        <path d="M10.439,12.396c0.243,0.332 0.365,0.674 0.365,1.028c-0,0.354 -0.122,0.646 -0.365,0.879c-0.243,0.232 -0.552,0.348 -0.928,0.348c-0.243,-0 -0.52,-0.067 -0.829,-0.199c-0.552,-0.398 -1.171,-0.851 -1.856,-1.359c-0.685,-0.509 -1.381,-1.028 -2.089,-1.558c-0.707,-0.531 -1.403,-1.056 -2.088,-1.575c-0.685,-0.519 -1.315,-0.978 -1.89,-1.376c-0.353,-0.353 -0.53,-0.718 -0.53,-1.094c0,-0.442 0.21,-0.828 0.63,-1.16l0.746,-0.597c0.386,-0.309 0.856,-0.674 1.409,-1.093c0.552,-0.42 1.132,-0.873 1.74,-1.36c0.608,-0.486 1.188,-0.939 1.74,-1.359c0.553,-0.42 1.028,-0.79 1.426,-1.11c0.397,-0.321 0.641,-0.514 0.729,-0.58c0.287,-0.111 0.53,-0.166 0.729,-0.166c0.376,-0 0.685,0.122 0.928,0.365c0.244,0.243 0.365,0.541 0.365,0.895c0,0.375 -0.144,0.74 -0.431,1.094c-0.376,0.309 -0.851,0.685 -1.425,1.127c-0.575,0.442 -1.172,0.906 -1.79,1.392c-0.619,0.486 -1.216,0.95 -1.79,1.392c-0.575,0.442 -1.05,0.818 -1.426,1.127c0.442,0.332 0.956,0.713 1.542,1.144c0.585,0.431 1.176,0.873 1.773,1.326c0.597,0.453 1.188,0.895 1.774,1.326c0.585,0.431 1.099,0.812 1.541,1.143Zm7.694,-11.469c0.354,-0.575 0.784,-0.862 1.293,-0.862c0.331,-0 0.63,0.122 0.895,0.365c0.265,0.243 0.398,0.563 0.398,0.961c-0,0.199 -0.056,0.442 -0.166,0.729c-1.658,3.868 -3.321,7.713 -4.989,11.536c-1.669,3.823 -3.343,7.669 -5.022,11.536c-0.177,0.243 -0.376,0.414 -0.597,0.514c-0.221,0.099 -0.431,0.149 -0.63,0.149c-0.331,0 -0.619,-0.122 -0.862,-0.365c-0.243,-0.243 -0.364,-0.585 -0.364,-1.027l-0,-0.216c-0,-0.077 0.011,-0.16 0.033,-0.248c1.657,-3.868 3.32,-7.713 4.989,-11.536c1.668,-3.823 3.342,-7.669 5.022,-11.536Zm-0.252,22.674c0.442,-0.332 0.956,-0.713 1.541,-1.144c0.586,-0.431 1.177,-0.873 1.774,-1.326c0.597,-0.453 1.188,-0.895 1.773,-1.326c0.586,-0.431 1.1,-0.812 1.542,-1.143c-0.376,-0.31 -0.851,-0.685 -1.426,-1.127c-0.574,-0.442 -1.171,-0.906 -1.79,-1.393c-0.618,-0.486 -1.215,-0.95 -1.79,-1.392c-0.574,-0.442 -1.049,-0.818 -1.425,-1.127c-0.287,-0.354 -0.431,-0.718 -0.431,-1.094c-0,-0.354 0.121,-0.652 0.365,-0.895c0.243,-0.243 0.552,-0.365 0.928,-0.365c0.199,0 0.442,0.056 0.729,0.166c0.111,0.066 0.359,0.26 0.746,0.58c0.387,0.321 0.856,0.691 1.409,1.111c0.552,0.42 1.132,0.873 1.74,1.359c0.608,0.486 1.188,0.939 1.74,1.359c0.553,0.42 1.023,0.785 1.409,1.094l0.746,0.597c0.42,0.331 0.63,0.718 0.63,1.16c-0,0.375 -0.177,0.74 -0.53,1.094c-0.553,0.398 -1.177,0.856 -1.873,1.375c-0.697,0.52 -1.398,1.045 -2.105,1.575c-0.708,0.53 -1.404,1.05 -2.089,1.558c-0.685,0.508 -1.304,0.961 -1.856,1.359c-0.287,0.133 -0.564,0.199 -0.829,0.199c-0.376,0 -0.685,-0.116 -0.928,-0.348c-0.243,-0.232 -0.365,-0.525 -0.365,-0.878c0,-0.354 0.122,-0.697 0.365,-1.028Z" style="fill:currentColor;"/>
    </g>
</svg>