<?xml version="1.0" encoding="UTF-8" standalone="no"?>
<!DOCTYPE svg PUBLIC "-//W3C//DTD SVG 1.1//EN" "http://www.w3.org/Graphics/SVG/1.1/DTD/svg11.dtd">
<svg width="100%" height="100%" viewBox="0 0 118 108" version="1.1" xmlns="http://www.w3.org/2000/svg" xmlns:xlink="http://www.w3.org/1999/xlink" xml:space="preserve" xmlns:serif="http://www.serif.com/" style="fill-rule:evenodd;clip-rule:evenodd;stroke-linejoin:round;stroke-miterlimit:2;">
    <g transform="matrix(1,0,0,1,-16,-21)">
        <g id="codePost">
            <path d="M59.496,72.652C60.509,74.033 61.015,75.46 61.015,76.934C61.015,78.407 60.509,79.627 59.496,80.594C58.483,81.561 57.194,82.044 55.628,82.044C54.616,82.044 53.465,81.768 52.175,81.215C49.873,79.558 47.295,77.67 44.441,75.552C41.586,73.435 38.686,71.271 35.739,69.061C32.792,66.851 29.892,64.664 27.037,62.5C24.183,60.336 21.558,58.425 19.164,56.768C17.691,55.295 16.954,53.775 16.954,52.21C16.954,50.368 17.829,48.757 19.579,47.376L22.686,44.89C24.298,43.6 26.255,42.081 28.557,40.331C30.859,38.582 33.276,36.694 35.808,34.669C38.34,32.643 40.757,30.755 43.059,29.006C45.361,27.256 47.341,25.714 48.999,24.378C50.656,23.043 51.669,22.238 52.037,21.961C53.234,21.501 54.247,21.271 55.076,21.271C56.641,21.271 57.93,21.777 58.943,22.79C59.956,23.803 60.463,25.046 60.463,26.519C60.463,28.085 59.864,29.604 58.667,31.077C57.102,32.366 55.122,33.932 52.728,35.773C50.334,37.615 47.848,39.549 45.269,41.575C42.691,43.6 40.205,45.534 37.811,47.376C35.417,49.217 33.437,50.783 31.872,52.072C33.713,53.453 35.854,55.041 38.294,56.837C40.734,58.633 43.198,60.474 45.684,62.362C48.17,64.25 50.633,66.091 53.073,67.887C55.513,69.682 57.654,71.271 59.496,72.652Z" style="fill:currentColor;"/>
            <path d="M91.554,24.862C93.027,22.468 94.823,21.271 96.941,21.271C98.322,21.271 99.565,21.777 100.67,22.79C101.775,23.803 102.327,25.138 102.327,26.796C102.327,27.624 102.097,28.637 101.637,29.834C94.731,45.948 87.802,61.971 80.849,77.901C73.897,93.831 66.922,109.853 59.924,125.967C59.187,126.98 58.359,127.693 57.438,128.108C56.517,128.522 55.642,128.729 54.814,128.729C53.432,128.729 52.235,128.223 51.222,127.21C50.209,126.197 49.703,124.77 49.703,122.928L49.703,122.03C49.703,121.708 49.749,121.363 49.841,120.994C56.747,104.88 63.676,88.858 70.628,72.928C77.581,56.998 84.556,40.976 91.554,24.862Z" style="fill:currentColor;fill-opacity:0.66;"/>
            <path d="M90.504,119.337C92.346,117.956 94.487,116.367 96.927,114.572C99.367,112.776 101.83,110.935 104.316,109.047C106.802,107.159 109.266,105.318 111.706,103.522C114.146,101.727 116.287,100.138 118.128,98.757C116.563,97.468 114.583,95.902 112.189,94.061C109.795,92.219 107.309,90.285 104.731,88.26C102.152,86.234 99.666,84.3 97.272,82.459C94.878,80.617 92.898,79.052 91.333,77.762C90.136,76.289 89.537,74.77 89.537,73.204C89.537,71.731 90.044,70.488 91.057,69.475C92.07,68.462 93.359,67.956 94.924,67.956C95.753,67.956 96.766,68.186 97.963,68.646C98.423,68.923 99.459,69.728 101.07,71.064C102.682,72.399 104.639,73.941 106.941,75.691C109.243,77.44 111.66,79.328 114.192,81.354C116.724,83.379 119.141,85.267 121.443,87.017C123.745,88.766 125.702,90.285 127.314,91.575L130.421,94.061C132.171,95.442 133.046,97.053 133.046,98.895C133.046,100.46 132.309,101.98 130.836,103.453C128.534,105.11 125.932,107.021 123.032,109.185C120.131,111.349 117.208,113.536 114.261,115.746C111.314,117.956 108.414,120.12 105.559,122.238C102.705,124.355 100.127,126.243 97.825,127.901C96.628,128.453 95.477,128.729 94.372,128.729C92.806,128.729 91.517,128.246 90.504,127.279C89.491,126.312 88.985,125.092 88.985,123.619C88.985,122.145 89.491,120.718 90.504,119.337Z" style="fill:currentColor;"/>
        </g>
    </g>
</svg>
