<?xml version="1.0" encoding="UTF-8" standalone="no"?>
<!DOCTYPE svg PUBLIC "-//W3C//DTD SVG 1.1//EN" "http://www.w3.org/Graphics/SVG/1.1/DTD/svg11.dtd">
<svg width="100%" height="100%" viewBox="0 0 88 110" version="1.1" xmlns="http://www.w3.org/2000/svg" xmlns:xlink="http://www.w3.org/1999/xlink" xml:space="preserve" xmlns:serif="http://www.serif.com/" style="fill-rule:evenodd;clip-rule:evenodd;stroke-linejoin:round;stroke-miterlimit:2;">
    <g transform="matrix(1,0,0,1,-31,-20)">
        <g id="Copy">
            <g transform="matrix(0.821019,0,0,0.821019,24.2907,1.93757)">
                <path d="M114.5,125.91C114.5,127.525 113.858,129.074 112.716,130.216C111.574,131.358 110.025,132 108.41,132C93.296,132 54.204,132 39.09,132C35.727,132 33,129.273 33,125.91C33,106.67 33,47.33 33,28.09C33,26.475 33.642,24.926 34.784,23.784C35.926,22.642 37.475,22 39.09,22C51.359,22 78.611,22 87.173,22C88.849,22 90.451,22.691 91.602,23.91C96.213,28.797 108.388,41.699 112.839,46.417C113.906,47.547 114.5,49.043 114.5,50.597C114.5,61.82 114.5,108.973 114.5,125.91ZM45.09,27.976C41.727,27.976 39,30.703 39,34.066C39,51.644 39,102.331 39,119.91C39,123.273 41.727,126 45.09,126C58.256,126 89.244,126 102.41,126C105.773,126 108.5,123.273 108.5,119.91L108.5,52.688C108.5,51.093 107.874,49.562 106.758,48.424C102.69,44.277 92.605,33.996 88.491,29.801C87.345,28.634 85.779,27.976 84.143,27.976C76.821,27.976 55.624,27.976 45.09,27.976Z" style="fill:currentColor;"/>
            </g>
            <g transform="matrix(0.821019,0,0,0.821019,19.4762,6.8471)">
                <path d="M93.393,132C94.188,132 94.951,132.316 95.513,132.878C96.076,133.441 96.392,134.203 96.392,134.999C96.392,138.838 96.392,145 96.392,145C96.392,146.326 95.865,147.598 94.927,148.536C93.99,149.473 92.718,150 91.392,150L19.892,150C18.566,150 17.294,149.473 16.356,148.536C15.418,147.598 14.892,146.326 14.892,145L14.892,45C14.892,43.674 15.418,42.402 16.356,41.464C17.294,40.527 18.566,40 19.892,40C19.892,40 26.145,40 30.013,40C31.663,40 33,41.337 33,42.987C33,42.987 33,42.988 33,42.989C33,43.781 32.685,44.541 32.125,45.101C31.565,45.661 30.806,45.976 30.013,45.976C28.069,45.976 25.892,45.976 25.892,45.976C23.13,45.976 20.892,48.215 20.892,50.976L20.892,139C20.892,140.326 21.418,141.598 22.356,142.536C23.294,143.473 24.566,144 25.892,144L85.392,144C86.718,144 87.99,143.473 88.927,142.536C89.865,141.598 90.392,140.326 90.392,139L90.392,134.999C90.392,134.203 90.708,133.441 91.27,132.878C91.832,132.316 92.595,132 93.39,132C93.391,132 93.392,132 93.393,132Z" style="fill:currentColor;fill-opacity:0.66;"/>
            </g>
            <g transform="matrix(0.77729,0,0,0.757999,30.9978,-3.54114)">
                <path d="M75.077,61C75.852,61 76.596,61.316 77.144,61.878C77.692,62.44 78,63.202 78,63.997C78,63.999 78,64.001 78,64.003C78,64.798 77.692,65.56 77.144,66.122C76.596,66.684 75.852,67 75.077,67C68.65,67 53.35,67 46.923,67C46.148,67 45.404,66.684 44.856,66.122C44.308,65.56 44,64.798 44,64.003C44,64.001 44,63.999 44,63.997C44,63.202 44.308,62.44 44.856,61.878C45.404,61.316 46.148,61 46.923,61C53.35,61 68.65,61 75.077,61Z" style="fill:currentColor;"/>
            </g>
            <g transform="matrix(1.15543,0,0,0.757999,14.3596,22.0196)">
                <path d="M76.034,61C77.12,61 78,62.342 78,63.997L78,64.003C78,65.658 77.12,67 76.034,67C70.028,67 51.972,67 45.966,67C44.88,67 44,65.658 44,64.003L44,63.997C44,62.342 44.88,61 45.966,61C51.972,61 70.028,61 76.034,61Z" style="fill:currentColor;"/>
            </g>
            <g transform="matrix(1.15543,0,0,0.757999,14.3596,41.9109)">
                <path d="M76.034,61C77.12,61 78,62.342 78,63.997L78,64.003C78,65.658 77.12,67 76.034,67C70.028,67 51.972,67 45.966,67C44.88,67 44,65.658 44,64.003L44,63.997C44,62.342 44.88,61 45.966,61L76.034,61Z" style="fill:currentColor;"/>
            </g>
        </g>
    </g>
</svg>
