<?xml version="1.0" encoding="UTF-8" standalone="no"?>
<!DOCTYPE svg PUBLIC "-//W3C//DTD SVG 1.1//EN" "http://www.w3.org/Graphics/SVG/1.1/DTD/svg11.dtd">
<svg width="100%" height="100%" viewBox="0 0 123 121" version="1.1" xmlns="http://www.w3.org/2000/svg" xmlns:xlink="http://www.w3.org/1999/xlink" xml:space="preserve" xmlns:serif="http://www.serif.com/" style="fill-rule:evenodd;clip-rule:evenodd;stroke-linejoin:round;stroke-miterlimit:2;">
    <g transform="matrix(1,0,0,1,-10,-18)">
        <g id="DarkMode" transform="matrix(1,0,0,1,2.92132,-4.08746)">
            <rect x="7.079" y="22.087" width="122.921" height="120.834" style="fill:none;"/>
            <g transform="matrix(0.971151,-0.27547,0.282719,0.996707,-29.7695,18.9264)">
                <path d="M72.636,23.389C73.515,23.299 74.348,23.794 74.67,24.597C74.991,25.4 74.722,26.313 74.012,26.828C60.484,37.722 50.25,57.705 50.25,80C50.25,102.295 60.484,122.278 74.005,133.181C74.711,133.692 74.98,134.601 74.66,135.399C74.34,136.198 73.512,136.689 72.637,136.599C43.578,133.296 21,109.197 21,80C21,50.803 43.578,26.704 72.636,23.389Z" style="fill:currentColor;"/>
            </g>
            <g id="Stars" opacity="0.66">
                <g transform="matrix(0.816249,-2.20183e-18,0,0.794769,3.29749,-13.1881)">
                    <path d="M98.197,56.973C98.221,56.82 98.349,56.707 98.5,56.707C98.651,56.707 98.779,56.82 98.803,56.973C99.384,60.767 100.602,68.709 100.602,68.709C100.723,69.495 101.083,70.222 101.631,70.785C102.179,71.347 102.886,71.717 103.652,71.841C103.652,71.841 111.384,73.092 115.079,73.689C115.228,73.713 115.337,73.845 115.337,74C115.337,74.155 115.228,74.287 115.079,74.311C111.384,74.908 103.652,76.159 103.652,76.159C102.886,76.283 102.179,76.653 101.631,77.215C101.083,77.778 100.723,78.505 100.602,79.291C100.602,79.291 99.384,87.233 98.803,91.027C98.779,91.18 98.651,91.293 98.5,91.293C98.349,91.293 98.221,91.18 98.197,91.027C97.616,87.233 96.398,79.291 96.398,79.291C96.277,78.505 95.917,77.778 95.369,77.215C94.821,76.653 94.114,76.283 93.348,76.159C93.348,76.159 85.616,74.908 81.921,74.311C81.772,74.287 81.663,74.155 81.663,74C81.663,73.845 81.772,73.713 81.921,73.689C85.616,73.092 93.348,71.841 93.348,71.841C94.114,71.717 94.821,71.347 95.369,70.785C95.917,70.222 96.277,69.495 96.398,68.709C96.398,68.709 97.616,60.767 98.197,56.973Z" style="fill:currentColor;"/>
                </g>
                <g transform="matrix(0.489749,-1.3211e-18,0,0.476861,70.1457,13.7885)">
                    <path d="M97.996,58.288C98.035,58.034 98.249,57.846 98.5,57.846C98.751,57.846 98.965,58.034 99.004,58.288C99.626,62.344 100.602,68.709 100.602,68.709C100.723,69.495 101.083,70.222 101.631,70.785C102.179,71.347 102.886,71.717 103.652,71.841C103.652,71.841 109.849,72.843 113.798,73.482C114.046,73.522 114.229,73.742 114.229,74C114.229,74.258 114.046,74.478 113.798,74.518C109.849,75.157 103.652,76.159 103.652,76.159C102.886,76.283 102.179,76.653 101.631,77.215C101.083,77.778 100.723,78.505 100.602,79.291C100.602,79.291 99.626,85.656 99.004,89.712C98.965,89.966 98.751,90.154 98.5,90.154C98.249,90.154 98.035,89.966 97.996,89.712C97.374,85.656 96.398,79.291 96.398,79.291C96.277,78.505 95.917,77.778 95.369,77.215C94.821,76.653 94.114,76.283 93.348,76.159C93.348,76.159 87.151,75.157 83.202,74.518C82.954,74.478 82.771,74.258 82.771,74C82.771,73.742 82.954,73.522 83.202,73.482C87.151,72.843 93.348,71.841 93.348,71.841C94.114,71.717 94.821,71.347 95.369,70.785C95.917,70.222 96.277,69.495 96.398,68.709C96.398,68.709 97.374,62.344 97.996,58.288Z" style="fill:currentColor;"/>
                </g>
                <g transform="matrix(0.489749,-1.3211e-18,0,0.476861,57.2026,35.706)">
                    <path d="M97.996,58.288C98.035,58.034 98.249,57.846 98.5,57.846C98.751,57.846 98.965,58.034 99.004,58.288C99.626,62.344 100.602,68.709 100.602,68.709C100.723,69.495 101.083,70.222 101.631,70.785C102.179,71.347 102.886,71.717 103.652,71.841C103.652,71.841 109.849,72.843 113.798,73.482C114.046,73.522 114.229,73.742 114.229,74C114.229,74.258 114.046,74.478 113.798,74.518C109.849,75.157 103.652,76.159 103.652,76.159C102.886,76.283 102.179,76.653 101.631,77.215C101.083,77.778 100.723,78.505 100.602,79.291C100.602,79.291 99.626,85.656 99.004,89.712C98.965,89.966 98.751,90.154 98.5,90.154C98.249,90.154 98.035,89.966 97.996,89.712C97.374,85.656 96.398,79.291 96.398,79.291C96.277,78.505 95.917,77.778 95.369,77.215C94.821,76.653 94.114,76.283 93.348,76.159C93.348,76.159 87.151,75.157 83.202,74.518C82.954,74.478 82.771,74.258 82.771,74C82.771,73.742 82.954,73.522 83.202,73.482C87.151,72.843 93.348,71.841 93.348,71.841C94.114,71.717 94.821,71.347 95.369,70.785C95.917,70.222 96.277,69.495 96.398,68.709C96.398,68.709 97.374,62.344 97.996,58.288Z" style="fill:currentColor;"/>
                </g>
            </g>
        </g>
    </g>
</svg>
