<?xml version="1.0" encoding="UTF-8" standalone="no"?>
<!DOCTYPE svg PUBLIC "-//W3C//DTD SVG 1.1//EN" "http://www.w3.org/Graphics/SVG/1.1/DTD/svg11.dtd"><svg width="100%"
    height="100%" viewBox="0 0 30 30" version="1.1" xmlns="http://www.w3.org/2000/svg"
    xmlns:xlink="http://www.w3.org/1999/xlink" xml:space="preserve" xmlns:serif="http://www.serif.com/"
    style="fill-rule:evenodd;clip-rule:evenodd;stroke-linejoin:round;stroke-miterlimit:2;">
    <rect id="DarkMode" x="0.019" y="0.021" width="29.501" height="29" style="fill:none;" />
    <g id="DarkMode1" serif:id="DarkMode">
        <path
            d="M9.692,0.055c0.199,-0.08 0.427,-0.016 0.556,0.155c0.129,0.17 0.129,0.407 -0.002,0.577c-2.414,3.5 -3.443,8.957 -1.93,14.29c1.512,5.333 5.254,9.437 9.145,11.151c0.199,0.076 0.323,0.275 0.303,0.487c-0.02,0.212 -0.18,0.385 -0.39,0.421c-6.997,1.131 -13.895,-3.141 -15.876,-10.125c-1.981,-6.984 1.646,-14.242 8.194,-16.956Z"
            style="fill:currentColor;" />
        <g id="Stars" opacity="0.66">
            <path
                d="M18.348,2.422c0.005,-0.029 0.03,-0.051 0.06,-0.051c0.029,0 0.054,0.022 0.059,0.051c0.114,0.724 0.352,2.239 0.352,2.239c0.024,0.15 0.094,0.288 0.202,0.396c0.107,0.107 0.246,0.178 0.396,0.201c-0,0 1.515,0.239 2.238,0.353c0.029,0.004 0.051,0.029 0.051,0.059c-0,0.029 -0.022,0.055 -0.051,0.059c-0.723,0.114 -2.238,0.353 -2.238,0.353c-0.15,0.023 -0.289,0.094 -0.396,0.201c-0.108,0.108 -0.178,0.246 -0.202,0.396c0,0 -0.238,1.515 -0.352,2.239c-0.005,0.029 -0.03,0.05 -0.059,0.05c-0.03,0 -0.055,-0.021 -0.06,-0.05c-0.114,-0.724 -0.352,-2.239 -0.352,-2.239c-0.024,-0.15 -0.094,-0.288 -0.202,-0.396c-0.107,-0.107 -0.246,-0.178 -0.396,-0.201c0,-0 -1.515,-0.239 -2.238,-0.353c-0.029,-0.004 -0.051,-0.03 -0.051,-0.059c0,-0.03 0.022,-0.055 0.051,-0.059c0.723,-0.114 2.238,-0.353 2.238,-0.353c0.15,-0.023 0.289,-0.094 0.396,-0.201c0.108,-0.108 0.178,-0.246 0.202,-0.396c-0,-0 0.238,-1.515 0.352,-2.239Z"
                style="fill:currentColor;" />
            <path
                d="M26.673,4.7c0.005,-0.029 0.03,-0.051 0.06,-0.051c0.029,0 0.054,0.022 0.059,0.051c0.073,0.464 0.188,1.193 0.188,1.193c0.014,0.09 0.056,0.173 0.121,0.237c0.064,0.065 0.147,0.107 0.237,0.121c0,0 0.729,0.115 1.193,0.188c0.029,0.005 0.05,0.03 0.05,0.059c0,0.03 -0.021,0.055 -0.05,0.06c-0.464,0.073 -1.193,0.187 -1.193,0.187c-0.09,0.015 -0.173,0.057 -0.237,0.121c-0.065,0.065 -0.107,0.148 -0.121,0.238c-0,-0 -0.115,0.728 -0.188,1.192c-0.005,0.03 -0.03,0.051 -0.059,0.051c-0.03,0 -0.055,-0.021 -0.06,-0.051c-0.073,-0.464 -0.187,-1.192 -0.187,-1.192c-0.015,-0.09 -0.057,-0.173 -0.121,-0.238c-0.065,-0.064 -0.148,-0.106 -0.238,-0.121c0,0 -0.728,-0.114 -1.192,-0.187c-0.03,-0.005 -0.051,-0.03 -0.051,-0.06c-0,-0.029 0.021,-0.054 0.051,-0.059c0.464,-0.073 1.192,-0.188 1.192,-0.188c0.09,-0.014 0.173,-0.056 0.238,-0.121c0.064,-0.064 0.106,-0.147 0.121,-0.237c-0,-0 0.114,-0.729 0.187,-1.193Z"
                style="fill:currentColor;" />
            <path
                d="M23.567,9.96c0.005,-0.029 0.03,-0.05 0.059,-0.05c0.03,-0 0.055,0.021 0.06,0.05c0.073,0.465 0.187,1.193 0.187,1.193c0.015,0.09 0.057,0.173 0.121,0.238c0.065,0.064 0.148,0.106 0.238,0.12c-0,0 0.728,0.115 1.192,0.188c0.03,0.005 0.051,0.03 0.051,0.06c0,0.029 -0.021,0.054 -0.051,0.059c-0.464,0.073 -1.192,0.188 -1.192,0.188c-0.09,0.014 -0.173,0.056 -0.238,0.12c-0.064,0.065 -0.106,0.148 -0.121,0.238c0,0 -0.114,0.728 -0.187,1.193c-0.005,0.029 -0.03,0.05 -0.06,0.05c-0.029,0 -0.054,-0.021 -0.059,-0.05c-0.073,-0.465 -0.188,-1.193 -0.188,-1.193c-0.014,-0.09 -0.056,-0.173 -0.121,-0.238c-0.064,-0.064 -0.147,-0.106 -0.237,-0.12c-0,-0 -0.729,-0.115 -1.193,-0.188c-0.029,-0.005 -0.051,-0.03 -0.051,-0.059c0,-0.03 0.022,-0.055 0.051,-0.06c0.464,-0.073 1.193,-0.188 1.193,-0.188c0.09,-0.014 0.173,-0.056 0.237,-0.12c0.065,-0.065 0.107,-0.148 0.121,-0.238c0,-0 0.115,-0.728 0.188,-1.193Z"
                style="fill:currentColor;" />
        </g>
    </g>
</svg>