<?xml version="1.0" encoding="UTF-8" standalone="no"?>
<!DOCTYPE svg PUBLIC "-//W3C//DTD SVG 1.1//EN" "http://www.w3.org/Graphics/SVG/1.1/DTD/svg11.dtd">
<svg width="100%" height="100%" viewBox="0 0 128 114" version="1.1" xmlns="http://www.w3.org/2000/svg" xmlns:xlink="http://www.w3.org/1999/xlink" xml:space="preserve" xmlns:serif="http://www.serif.com/" style="fill-rule:evenodd;clip-rule:evenodd;stroke-linejoin:round;stroke-miterlimit:2;">
    <g transform="matrix(1,0,0,1,-9,-12)">
        <g id="Download" transform="matrix(-0.700003,-8.57257e-17,8.57257e-17,-0.700003,125.714,110.61)">
            <g transform="matrix(-1.42856,1.74949e-16,-1.74949e-16,-1.42856,179.59,158.013)">
                <path d="M120.401,113.923C123.162,113.923 125.401,111.685 125.401,108.923C125.401,103.869 125.401,96.798 125.401,96.798C125.401,93.612 127.983,91.03 131.169,91.03L131.172,91.03C134.357,91.03 136.94,93.612 136.94,96.798L136.94,120.155C136.94,123.341 134.357,125.923 131.172,125.923L131.169,125.923C131.117,125.923 131.066,125.923 131.014,125.921C130.962,125.923 130.91,125.923 130.857,125.923L117.996,125.923C114.683,125.923 111.996,123.237 111.996,119.923C111.996,116.61 114.683,113.923 117.996,113.923C117.996,113.923 119.07,113.923 120.401,113.923Z" style="fill:currentColor;"/>
            </g>
            <g transform="matrix(6.78029e-17,1.0084,-0.290555,-1.96065e-17,65.9585,-81.4816)">
                <path d="M67.591,76C69.821,76 71.96,79.075 73.537,84.548C75.114,90.022 76,97.445 76,105.185L76,105.815C76,113.555 75.114,120.978 73.537,126.452C71.96,131.925 69.821,135 67.591,135L67.5,135C62.806,135 59,121.792 59,105.5L59,105.5C59,89.208 62.806,76 67.5,76C67.53,76 67.56,76 67.591,76Z" style="fill:currentColor;fill-opacity:0.66;"/>
            </g>
            <g transform="matrix(-1.42856,1.74949e-16,-1.74949e-16,-1.42856,179.59,158.013)">
                <path d="M15.559,125.921C15.508,125.923 15.456,125.923 15.404,125.923L15.401,125.923C12.215,125.923 9.633,123.341 9.633,120.155L9.633,96.798C9.633,93.612 12.215,91.03 15.401,91.03L15.404,91.03C18.59,91.03 21.172,93.612 21.172,96.798C21.172,96.798 21.172,103.869 21.172,108.923C21.172,111.685 23.411,113.923 26.172,113.923C41.146,113.923 84.596,113.923 84.596,113.923C86.187,113.923 87.713,114.556 88.839,115.681C89.964,116.806 90.596,118.332 90.596,119.923C90.596,121.515 89.964,123.041 88.839,124.166C87.713,125.291 86.187,125.923 84.596,125.923L15.716,125.923C15.663,125.923 15.611,125.923 15.559,125.921Z" style="fill:currentColor;"/>
            </g>
            <g transform="matrix(1,2.46519e-32,0,1,-0.217092,-2.12077)">
                <path d="M85.344,20.344C79.631,14.631 70.369,14.631 64.656,20.344C51.25,33.75 28.243,56.757 16.831,68.169C13.05,71.95 13.027,78.073 16.779,81.883C16.78,81.884 16.781,81.884 16.781,81.885C18.567,83.698 21.003,84.721 23.547,84.727C26.091,84.734 28.532,83.722 30.326,81.918C39.144,73.052 54.615,57.497 64.836,47.22C70.473,41.551 79.618,41.459 85.369,47.012C95.902,57.183 111.884,72.615 120.702,81.13C124.281,84.586 129.949,84.601 133.547,81.165C133.547,81.164 133.548,81.163 133.549,81.163C135.246,79.541 136.218,77.304 136.245,74.957C136.272,72.61 135.351,70.351 133.691,68.691C122.473,57.473 98.958,33.958 85.344,20.344Z" style="fill:currentColor;"/>
            </g>
            <g transform="matrix(-1.0084,8.58303e-17,-2.19654e-16,-1.35235,142.963,242.767)">
                <path d="M67.412,76C72.155,76 76,78.867 76,82.404C76,93.794 76,117.436 76,128.729C76,130.393 75.114,131.987 73.537,133.163C71.96,134.339 69.821,135 67.591,135L67.588,135C62.845,135 59,132.133 59,128.596C59,117.206 59,93.564 59,82.271C59,80.607 59.886,79.013 61.463,77.837C63.04,76.661 65.179,76 67.409,76C67.41,76 67.411,76 67.412,76Z" style="fill:currentColor;fill-opacity:0.66;"/>
            </g>
        </g>
    </g>
</svg>
