<?xml version="1.0" encoding="UTF-8" standalone="no"?>
<!DOCTYPE svg PUBLIC "-//W3C//DTD SVG 1.1//EN" "http://www.w3.org/Graphics/SVG/1.1/DTD/svg11.dtd">
<svg width="100%" height="100%" viewBox="0 0 89 116" version="1.1" xmlns="http://www.w3.org/2000/svg" xmlns:xlink="http://www.w3.org/1999/xlink" xml:space="preserve" xmlns:serif="http://www.serif.com/" style="fill-rule:evenodd;clip-rule:evenodd;stroke-linejoin:round;stroke-miterlimit:2;">
    <g transform="matrix(1,0,0,1,-33,-16)">
        <g id="folderPost">
            <path d="M114.5,127C114.5,128.326 113.973,129.598 113.036,130.536C112.098,131.473 110.826,132 109.5,132C94.923,132 52.577,132 38,132C36.674,132 35.402,131.473 34.464,130.536C33.527,129.598 33,128.326 33,127C33,108.677 33,45.323 33,27C33,25.674 33.527,24.402 34.464,23.464C35.402,22.527 36.674,22 38,22C47.235,22 66.605,22 72.964,22C74.291,22 75.562,22.527 76.5,23.464C82.709,29.674 106.826,53.791 113.036,60C113.973,60.938 114.5,62.209 114.5,63.536C114.5,73.07 114.5,112.873 114.5,127ZM43,27C41.674,27 40.402,27.527 39.464,28.464C38.527,29.402 38,30.674 38,32C38,49.07 38,104.93 38,122C38,123.326 38.527,124.598 39.464,125.536C40.402,126.473 41.674,127 43,127C56.113,127 91.387,127 104.5,127C105.826,127 107.098,126.473 108.036,125.536C108.973,124.598 109.5,123.326 109.5,122C109.5,108.98 109.5,74.424 109.5,65.607C109.5,64.281 108.973,63.009 108.036,62.071C102.157,56.192 80.308,34.343 74.429,28.464C73.491,27.527 72.219,27 70.893,27C65.479,27 50.787,27 43,27Z" style="fill:currentColor;"/>
            <g transform="matrix(1.08824,0,0,1.33333,-1.88235,-22.3333)">
                <path d="M74.324,61C75.299,61 76.234,61.316 76.923,61.879C77.613,62.441 78,63.204 78,64C78,64.796 77.613,65.559 76.923,66.121C76.234,66.684 75.299,67 74.324,67C67.787,67 54.213,67 47.676,67C46.701,67 45.766,66.684 45.077,66.121C44.387,65.559 44,64.796 44,64C44,63.204 44.387,62.441 45.077,61.879C45.766,61.316 46.701,61 47.676,61C54.213,61 67.787,61 74.324,61Z" style="fill:currentColor;"/>
            </g>
            <g transform="matrix(1.61765,0,0,1.33333,-25.1765,3.66667)">
                <path d="M75.527,61C76.183,61 76.812,61.316 77.276,61.879C77.739,62.441 78,63.204 78,64C78,64.796 77.739,65.559 77.276,66.121C76.812,66.684 76.183,67 75.527,67C69.25,67 52.75,67 46.473,67C45.817,67 45.188,66.684 44.724,66.121C44.261,65.559 44,64.796 44,64C44,63.204 44.261,62.441 44.724,61.879C45.188,61.316 45.817,61 46.473,61C52.75,61 69.25,61 75.527,61Z" style="fill:currentColor;"/>
            </g>
            <g transform="matrix(1.61765,0,0,1.33333,-25.1765,22.6667)">
                <path d="M75.527,61C76.183,61 76.812,61.316 77.276,61.879C77.739,62.441 78,63.204 78,64C78,64.796 77.739,65.559 77.276,66.121C76.812,66.684 76.183,67 75.527,67C69.25,67 52.75,67 46.473,67C45.817,67 45.188,66.684 44.724,66.121C44.261,65.559 44,64.796 44,64C44,63.204 44.261,62.441 44.724,61.879C45.188,61.316 45.817,61 46.473,61C52.75,61 69.25,61 75.527,61Z" style="fill:currentColor;"/>
            </g>
            <path d="M121.5,53.257C121.5,54.471 120.769,55.565 119.648,56.029C118.527,56.493 117.237,56.237 116.379,55.379C107.815,46.815 90.685,29.685 82.121,21.121C81.263,20.263 81.007,18.973 81.471,17.852C81.935,16.731 83.029,16 84.243,16C93.317,16 108.63,16 116.5,16C119.261,16 121.5,18.239 121.5,21L121.5,53.257ZM116.5,23.5C116.5,22.119 115.381,21 114,21L95.107,21C94.095,21 93.184,21.609 92.797,22.543C92.41,23.477 92.624,24.553 93.339,25.268C98.486,30.415 107.085,39.014 112.232,44.161C112.947,44.876 114.023,45.09 114.957,44.703C115.891,44.316 116.5,43.405 116.5,42.393C116.5,36.476 116.5,27.745 116.5,23.5Z" style="fill:currentColor;fill-opacity:0.66;"/>
        </g>
    </g>
</svg>
