<?xml version="1.0" encoding="UTF-8" standalone="no"?>
<!DOCTYPE svg PUBLIC "-//W3C//DTD SVG 1.1//EN" "http://www.w3.org/Graphics/SVG/1.1/DTD/svg11.dtd">
<svg width="100%" height="100%" viewBox="0 0 132 92" version="1.1" xmlns="http://www.w3.org/2000/svg" xmlns:xlink="http://www.w3.org/1999/xlink" xml:space="preserve" xmlns:serif="http://www.serif.com/" style="fill-rule:evenodd;clip-rule:evenodd;stroke-linejoin:round;stroke-miterlimit:2;">
    <g transform="matrix(1,0,0,1,-11,-29)">
        <g id="LeftRightDoubleArrow" transform="matrix(4.28628e-17,0.700003,-0.700003,4.28628e-17,107.836,22.5728)">
            <g transform="matrix(1,0,0,1,-0.217092,-2.12077)">
                <path d="M85.344,20.344C79.631,14.631 70.369,14.631 64.656,20.344C51.25,33.75 28.243,56.757 16.831,68.169C13.05,71.95 13.027,78.073 16.779,81.883C16.78,81.884 16.781,81.884 16.781,81.885C18.567,83.698 21.003,84.721 23.547,84.727C26.091,84.734 28.532,83.722 30.326,81.918C39.144,73.052 54.615,57.497 64.836,47.22C70.473,41.551 79.618,41.459 85.369,47.012C95.902,57.183 111.884,72.615 120.702,81.13C124.281,84.586 129.949,84.601 133.547,81.165C133.547,81.164 133.548,81.163 133.549,81.163C135.246,79.541 136.218,77.304 136.245,74.957C136.272,72.61 135.351,70.351 133.691,68.691C122.473,57.473 98.958,33.958 85.344,20.344Z" style="fill:currentColor;"/>
            </g>
            <g transform="matrix(1,0,0,1,-0.217092,-60.1211)">
                <path d="M85.344,20.344C79.631,14.631 70.369,14.631 64.656,20.344C51.25,33.75 28.243,56.757 16.831,68.169C13.05,71.95 13.027,78.073 16.779,81.883C16.78,81.884 16.781,81.884 16.781,81.885C18.567,83.698 21.003,84.721 23.547,84.727C26.091,84.734 28.532,83.722 30.326,81.918C39.144,73.052 54.615,57.497 64.836,47.22C70.473,41.551 79.618,41.459 85.369,47.012C95.902,57.183 111.884,72.615 120.702,81.13C124.281,84.586 129.949,84.601 133.547,81.165C133.547,81.164 133.548,81.163 133.549,81.163C135.246,79.541 136.218,77.304 136.245,74.957C136.272,72.61 135.351,70.351 133.691,68.691C122.473,57.473 98.958,33.958 85.344,20.344Z" style="fill:currentColor;"/>
            </g>
            <g transform="matrix(1,0,0,1.01695,7.28291,0.591091)">
                <path d="M67.5,76C69.754,76 71.916,76.881 73.51,78.448C75.104,80.016 76,82.142 76,84.358C76,95.584 76,115.416 76,126.642C76,128.858 75.104,130.984 73.51,132.552C71.916,134.119 69.754,135 67.5,135C67.5,135 67.5,135 67.5,135C65.246,135 63.084,134.119 61.49,132.552C59.896,130.984 59,128.858 59,126.642C59,115.416 59,95.584 59,84.358C59,82.142 59.896,80.016 61.49,78.448C63.084,76.881 65.246,76 67.5,76C67.5,76 67.5,76 67.5,76Z" style="fill:currentColor;fill-opacity:0.66;"/>
            </g>
        </g>
    </g>
</svg>
