<?xml version="1.0" encoding="UTF-8" standalone="no"?>
<!DOCTYPE svg PUBLIC "-//W3C//DTD SVG 1.1//EN" "http://www.w3.org/Graphics/SVG/1.1/DTD/svg11.dtd">
<svg width="100%" height="100%" viewBox="0 0 112 112" version="1.1" xmlns="http://www.w3.org/2000/svg" xmlns:xlink="http://www.w3.org/1999/xlink" xml:space="preserve" xmlns:serif="http://www.serif.com/" style="fill-rule:evenodd;clip-rule:evenodd;stroke-linejoin:round;stroke-miterlimit:2;">
    <g transform="matrix(1,0,0,1,-19,-19)">
        <g id="LightMode">
            <g transform="matrix(1.66533e-16,-0.875,0.875,1.66533e-16,22.4932,127.516)">
                <circle cx="60" cy="60" r="40" style="fill:currentColor;"/>
            </g>
            <g id="accent" opacity="0.66">
                <g transform="matrix(5.55112e-17,-0.786833,0.913401,1.11022e-16,8.05883,134.028)">
                    <path d="M75,12.466C76.326,12.466 77.598,12.92 78.536,13.728C79.473,14.535 80,15.631 80,16.773C80,19.487 80,22.979 80,25.693C80,26.835 79.473,27.931 78.536,28.739C77.598,29.546 76.326,30 75,30C75,30 75,30 75,30C73.674,30 72.402,29.546 71.464,28.739C70.527,27.931 70,26.835 70,25.693C70,22.979 70,19.487 70,16.773C70,15.631 70.527,14.535 71.464,13.728C72.402,12.92 73.674,12.466 75,12.466C75,12.466 75,12.466 75,12.466Z" style="fill:currentColor;"/>
                </g>
                <g transform="matrix(0.556375,-0.556375,0.645872,0.645872,-14.0647,69.4142)">
                    <path d="M75,12.466C76.326,12.466 77.598,12.92 78.536,13.728C79.473,14.535 80,15.631 80,16.773C80,19.487 80,22.979 80,25.693C80,26.835 79.473,27.931 78.536,28.739C77.598,29.546 76.326,30 75,30C75,30 75,30 75,30C73.674,30 72.402,29.546 71.464,28.739C70.527,27.931 70,26.835 70,25.693C70,22.979 70,19.487 70,16.773C70,15.631 70.527,14.535 71.464,13.728C72.402,12.92 73.674,12.466 75,12.466C75,12.466 75,12.466 75,12.466Z" style="fill:currentColor;"/>
                </g>
                <g transform="matrix(0.786833,0,0,0.913401,15.9875,8.09796)">
                    <path d="M75,12.466C76.326,12.466 77.598,12.92 78.536,13.728C79.473,14.535 80,15.631 80,16.773C80,19.487 80,22.979 80,25.693C80,26.835 79.473,27.931 78.536,28.739C77.598,29.546 76.326,30 75,30C75,30 75,30 75,30C73.674,30 72.402,29.546 71.464,28.739C70.527,27.931 70,26.835 70,25.693C70,22.979 70,19.487 70,16.773C70,15.631 70.527,14.535 71.464,13.728C72.402,12.92 73.674,12.466 75,12.466C75,12.466 75,12.466 75,12.466Z" style="fill:currentColor;"/>
                </g>
                <g transform="matrix(0.556375,0.556375,-0.645872,0.645872,80.592,-14.0023)">
                    <path d="M75,12.466C76.326,12.466 77.598,12.92 78.536,13.728C79.473,14.535 80,15.631 80,16.773C80,19.487 80,22.979 80,25.693C80,26.835 79.473,27.931 78.536,28.739C77.598,29.546 76.326,30 75,30C75,30 75,30 75,30C73.674,30 72.402,29.546 71.464,28.739C70.527,27.931 70,26.835 70,25.693C70,22.979 70,19.487 70,16.773C70,15.631 70.527,14.535 71.464,13.728C72.402,12.92 73.674,12.466 75,12.466C75,12.466 75,12.466 75,12.466Z" style="fill:currentColor;"/>
                </g>
                <g transform="matrix(5.55112e-17,-0.786833,0.913401,1.11022e-16,103.139,134.094)">
                    <path d="M75,12.466C76.326,12.466 77.598,12.92 78.536,13.728C79.473,14.535 80,15.631 80,16.773C80,19.487 80,22.979 80,25.693C80,26.835 79.473,27.931 78.536,28.739C77.598,29.546 76.326,30 75,30C75,30 75,30 75,30C73.674,30 72.402,29.546 71.464,28.739C70.527,27.931 70,26.835 70,25.693C70,22.979 70,19.487 70,16.773C70,15.631 70.527,14.535 71.464,13.728C72.402,12.92 73.674,12.466 75,12.466C75,12.466 75,12.466 75,12.466Z" style="fill:currentColor;"/>
                </g>
                <g transform="matrix(0.556375,-0.556375,0.645872,0.645872,53.1206,136.693)">
                    <path d="M75,12.466C76.326,12.466 77.598,12.92 78.536,13.728C79.473,14.535 80,15.631 80,16.773C80,19.487 80,22.979 80,25.693C80,26.835 79.473,27.931 78.536,28.739C77.598,29.546 76.326,30 75,30C75,30 75,30 75,30C73.674,30 72.402,29.546 71.464,28.739C70.527,27.931 70,26.835 70,25.693C70,22.979 70,19.487 70,16.773C70,15.631 70.527,14.535 71.464,13.728C72.402,12.92 73.674,12.466 75,12.466C75,12.466 75,12.466 75,12.466Z" style="fill:currentColor;"/>
                </g>
                <g transform="matrix(0.786833,0,0,0.913401,15.9217,103.178)">
                    <path d="M75,12.466C76.326,12.466 77.598,12.92 78.536,13.728C79.473,14.535 80,15.631 80,16.773C80,19.487 80,22.979 80,25.693C80,26.835 79.473,27.931 78.536,28.739C77.598,29.546 76.326,30 75,30C75,30 75,30 75,30C73.674,30 72.402,29.546 71.464,28.739C70.527,27.931 70,26.835 70,25.693C70,22.979 70,19.487 70,16.773C70,15.631 70.527,14.535 71.464,13.728C72.402,12.92 73.674,12.466 75,12.466C75,12.466 75,12.466 75,12.466Z" style="fill:currentColor;"/>
                </g>
                <g transform="matrix(0.556375,0.556375,-0.645872,0.645872,13.3136,53.183)">
                    <path d="M75,12.466C76.326,12.466 77.598,12.92 78.536,13.728C79.473,14.535 80,15.631 80,16.773C80,19.487 80,22.979 80,25.693C80,26.835 79.473,27.931 78.536,28.739C77.598,29.546 76.326,30 75,30C75,30 75,30 75,30C73.674,30 72.402,29.546 71.464,28.739C70.527,27.931 70,26.835 70,25.693C70,22.979 70,19.487 70,16.773C70,15.631 70.527,14.535 71.464,13.728C72.402,12.92 73.674,12.466 75,12.466C75,12.466 75,12.466 75,12.466Z" style="fill:currentColor;"/>
                </g>
            </g>
        </g>
    </g>
</svg>
