<?xml version="1.0" encoding="UTF-8" standalone="no"?>
<!DOCTYPE svg PUBLIC "-//W3C//DTD SVG 1.1//EN" "http://www.w3.org/Graphics/SVG/1.1/DTD/svg11.dtd"><svg width="100%"
    height="100%" viewBox="0 0 27 27" version="1.1" xmlns="http://www.w3.org/2000/svg"
    xmlns:xlink="http://www.w3.org/1999/xlink" xml:space="preserve" xmlns:serif="http://www.serif.com/"
    style="fill-rule:evenodd;clip-rule:evenodd;stroke-linejoin:round;stroke-miterlimit:2;">
    <g id="LightMode">
        <path
            d="M5.038,13.444c0,-4.636 3.764,-8.4 8.4,-8.4c4.636,-0 8.4,3.764 8.4,8.4c0,4.636 -3.764,8.4 -8.4,8.4c-4.636,-0 -8.4,-3.764 -8.4,-8.4Z"
            style="fill:currentColor;" />
        <g id="accent" opacity="0.66">
            <path
                d="M0.107,13.444c-0,-0.251 0.099,-0.491 0.276,-0.668c0.177,-0.177 0.418,-0.276 0.668,-0.276c0.595,-0 1.36,-0 1.955,-0c0.251,-0 0.491,0.099 0.668,0.276c0.177,0.177 0.277,0.417 0.277,0.668c-0,-0 -0,-0 -0,-0c-0,0.25 -0.1,0.49 -0.277,0.667c-0.177,0.178 -0.417,0.277 -0.668,0.277c-0.595,0 -1.36,0 -1.955,0c-0.25,0 -0.491,-0.099 -0.668,-0.277c-0.177,-0.177 -0.276,-0.417 -0.276,-0.667c-0,-0 -0,-0 -0,-0Z"
                style="fill:currentColor;" />
            <path
                d="M4.012,4.017c0.177,-0.177 0.417,-0.277 0.667,-0.277c0.251,0 0.491,0.1 0.668,0.277c0.421,0.421 0.962,0.962 1.383,1.383c0.177,0.177 0.276,0.417 0.276,0.667c0,0.251 -0.099,0.491 -0.276,0.668c-0,-0 -0,-0 -0.001,-0c-0.177,0.177 -0.417,0.277 -0.667,0.277c-0.251,-0 -0.491,-0.1 -0.668,-0.277c-0.42,-0.421 -0.962,-0.962 -1.382,-1.383c-0.178,-0.177 -0.277,-0.417 -0.277,-0.667c0,-0.251 0.099,-0.491 0.277,-0.668c-0,0 -0,0 -0,-0Z"
                style="fill:currentColor;" />
            <path
                d="M13.44,0.116c0.25,0 0.491,0.1 0.668,0.277c0.177,0.177 0.276,0.417 0.276,0.667c0,0.595 0,1.361 0,1.956c0,0.25 -0.099,0.49 -0.276,0.667c-0.177,0.178 -0.418,0.277 -0.668,0.277c0,-0 -0,-0 -0,-0c-0.25,0 -0.491,-0.099 -0.668,-0.277c-0.177,-0.177 -0.276,-0.417 -0.276,-0.667c-0,-0.595 -0,-1.361 -0,-1.956c-0,-0.25 0.099,-0.49 0.276,-0.667c0.177,-0.177 0.418,-0.277 0.668,-0.277c-0,0 0,0 0,0Z"
                style="fill:currentColor;" />
            <path
                d="M22.864,4.027c0.178,0.177 0.277,0.417 0.277,0.667c0,0.251 -0.099,0.491 -0.277,0.668c-0.42,0.421 -0.961,0.962 -1.382,1.383c-0.177,0.177 -0.417,0.276 -0.668,0.276c-0.25,0 -0.49,-0.099 -0.667,-0.276c-0,-0.001 -0,-0.001 -0,-0.001c-0.178,-0.177 -0.277,-0.417 -0.277,-0.667c-0,-0.251 0.099,-0.491 0.277,-0.668c0.42,-0.421 0.961,-0.962 1.382,-1.382c0.177,-0.178 0.417,-0.277 0.668,-0.277c0.25,-0 0.49,0.099 0.667,0.277c0,-0 0,-0 0,-0Z"
                style="fill:currentColor;" />
            <path
                d="M22.926,13.46c0,-0.251 0.1,-0.491 0.277,-0.668c0.177,-0.177 0.417,-0.277 0.667,-0.277c0.595,0 1.361,0 1.956,0c0.25,0 0.49,0.1 0.667,0.277c0.177,0.177 0.277,0.417 0.277,0.668c-0,-0 -0,-0 -0,-0c-0,0.25 -0.1,0.49 -0.277,0.667c-0.177,0.177 -0.417,0.277 -0.667,0.277c-0.595,-0 -1.361,-0 -1.956,-0c-0.25,-0 -0.49,-0.1 -0.667,-0.277c-0.177,-0.177 -0.277,-0.417 -0.277,-0.667c0,-0 0,-0 0,-0Z"
                style="fill:currentColor;" />
            <path
                d="M20.136,20.164c0.177,-0.177 0.417,-0.277 0.668,-0.277c0.25,0 0.49,0.1 0.667,0.277c0.421,0.421 0.962,0.962 1.383,1.382c0.177,0.178 0.277,0.418 0.277,0.668c-0,0.251 -0.1,0.491 -0.277,0.668c-0,-0 -0,-0 -0,-0c-0.177,0.177 -0.417,0.276 -0.668,0.276c-0.25,0 -0.49,-0.099 -0.667,-0.276c-0.421,-0.421 -0.962,-0.962 -1.383,-1.383c-0.177,-0.177 -0.277,-0.417 -0.277,-0.668c0,-0.25 0.1,-0.49 0.277,-0.667c0,-0 0,-0 0,-0Z"
                style="fill:currentColor;" />
            <path
                d="M13.424,22.936c0.251,-0 0.491,0.099 0.668,0.276c0.177,0.177 0.276,0.417 0.276,0.668c0,0.595 0,1.36 0,1.955c0,0.25 -0.099,0.491 -0.276,0.668c-0.177,0.177 -0.417,0.276 -0.668,0.276c0,0 0,0 0,0c-0.25,0 -0.49,-0.099 -0.667,-0.276c-0.178,-0.177 -0.277,-0.418 -0.277,-0.668c0,-0.595 0,-1.36 0,-1.955c-0,-0.251 0.099,-0.491 0.277,-0.668c0.177,-0.177 0.417,-0.276 0.667,-0.276c0,-0 0,-0 0,-0Z"
                style="fill:currentColor;" />
            <path
                d="M6.718,20.151c0.177,0.177 0.276,0.417 0.276,0.668c0,0.25 -0.099,0.49 -0.276,0.667c-0.421,0.421 -0.962,0.962 -1.383,1.383c-0.177,0.177 -0.417,0.277 -0.668,0.277c-0.25,-0 -0.49,-0.1 -0.667,-0.277c-0,-0 -0,-0 -0,-0c-0.177,-0.177 -0.277,-0.417 -0.277,-0.668c0,-0.25 0.1,-0.49 0.277,-0.667c0.42,-0.421 0.962,-0.962 1.382,-1.383c0.177,-0.177 0.418,-0.277 0.668,-0.277c0.25,0 0.491,0.1 0.668,0.277c-0,0 -0,0 -0,0Z"
                style="fill:currentColor;" />
        </g>
    </g>
</svg>