<?xml version="1.0" encoding="UTF-8" standalone="no"?><!DOCTYPE svg PUBLIC "-//W3C//DTD SVG 1.1//EN" "http://www.w3.org/Graphics/SVG/1.1/DTD/svg11.dtd"><svg width="100%" height="100%" viewBox="0 0 24 26" version="1.1" xmlns="http://www.w3.org/2000/svg" xmlns:xlink="http://www.w3.org/1999/xlink" xml:space="preserve" xmlns:serif="http://www.serif.com/" style="fill-rule:evenodd;clip-rule:evenodd;stroke-linecap:round;stroke-linejoin:round;stroke-miterlimit:1.5;"><g id="musicPost"><g id="smallNote" opacity="0.66"><path d="M3.335,8.8c-0.612,-2.825 -0.321,-5.543 0.278,-7.98" style="fill:none;stroke:#fff;stroke-width:1.5px;"/><path d="M3.84,0.72c0.852,1.112 1.089,1.177 2.16,1.2" style="fill:none;stroke:#fff;stroke-width:1px;"/><path d="M3.068,7.089c0.655,0.354 1.1,1.05 1.1,1.851c0,1.159 -0.933,2.1 -2.084,2.1c-1.15,-0 -2.084,-0.941 -2.084,-2.1c0,-1.159 0.934,-2.1 2.084,-2.1c0.356,-0 0.691,0.09 0.984,0.249Z" style="fill:#fefffe;"/></g><g id="largeNote"><path d="M9.181,21.928c-0.291,-0.375 -0.497,-1.183 -0.628,-2.256c-0.32,-2.614 -0.199,-6.803 0.213,-10.159" style="fill:none;stroke:#fff;stroke-width:1.5px;"/><path d="M8.709,19.759c0.834,0.51 1.401,1.511 1.401,2.662c0,1.666 -1.19,3.019 -2.655,3.019c-1.465,0 -2.655,-1.353 -2.655,-3.019c0,-1.666 1.19,-3.019 2.655,-3.019c0.453,-0 0.88,0.129 1.254,0.357Z" style="fill:#fefffe;"/><path d="M21.871,20.342c-0.291,-0.375 -0.497,-1.183 -0.628,-2.256c-0.316,-2.581 -0.202,-6.697 0.197,-10.032" style="fill:none;stroke:#fff;stroke-width:1.5px;"/><path d="M21.399,18.173c0.833,0.51 1.401,1.511 1.401,2.662c-0,1.666 -1.19,3.019 -2.655,3.019c-1.465,0 -2.655,-1.353 -2.655,-3.019c-0,-1.666 1.19,-3.019 2.655,-3.019c0.453,-0 0.88,0.129 1.254,0.357Z" style="fill:#fefffe;"/><path d="M8.766,9.513c0.18,-1.465 0.415,-2.772 0.693,-3.72c4.215,-0.078 8.446,-0.658 12.69,-1.586c-0.286,0.975 -0.527,2.33 -0.709,3.847c-4.016,1.195 -8.476,1.566 -12.674,1.459Z" style="fill:#fefffe;stroke:#fff;stroke-width:1.5px;"/></g></g></svg>