<?xml version="1.0" encoding="UTF-8" standalone="no"?>
<!DOCTYPE svg PUBLIC "-//W3C//DTD SVG 1.1//EN" "http://www.w3.org/Graphics/SVG/1.1/DTD/svg11.dtd">
<svg width="100%" height="100%" viewBox="0 0 94 105" version="1.1" xmlns="http://www.w3.org/2000/svg" xmlns:xlink="http://www.w3.org/1999/xlink" xml:space="preserve" xmlns:serif="http://www.serif.com/" style="fill-rule:evenodd;clip-rule:evenodd;stroke-linejoin:round;stroke-miterlimit:2;">
    <g transform="matrix(1,0,0,1,-20,-26)">
        <g id="musicPost">
            <g id="smallNote" opacity="0.66">
                <path d="M34.77,54.528C34.83,54.903 34.995,55.254 35.247,55.538C36.572,57.065 37.368,59.065 37.368,61.25C37.368,66.079 33.477,70 28.684,70C23.891,70 20,66.079 20,61.25C20,56.421 23.891,52.5 28.684,52.5C29.497,52.5 30.284,52.613 31.03,52.824C30.65,44.949 31.665,35.742 32.376,30.531C32.494,29.686 33.036,28.961 33.812,28.607C34.587,28.253 35.49,28.32 36.206,28.784C38.326,30.311 41.293,32.047 44.216,32.727C45.227,32.892 45.97,33.766 45.97,34.791C46,34.792 46,34.793 46,34.794C46,35.366 45.748,35.909 45.311,36.278C44.874,36.647 44.297,36.805 43.733,36.709C41.021,36.257 38.839,35.601 37.303,35.026C36.741,34.781 36.097,34.809 35.559,35.103C35.02,35.396 34.648,35.922 34.549,36.528C33.577,42.607 33.757,48.154 34.77,54.528Z" style="fill:currentColor;"/>
            </g>
            <g id="largeNote">
                <g transform="matrix(1.58739,0,0,1,14.0769,-8.83589)">
                    <path d="M61.68,115.854C61.683,115.858 61.685,115.862 61.688,115.865L61.682,115.864C61.681,115.86 61.681,115.857 61.68,115.854Z" style="fill:currentColor;"/>
                </g>
                <path d="M62.645,108.419C65.291,110.719 67,114.345 67,118.421C67,125.363 62.043,131 55.937,131C49.832,131 44.875,125.363 44.875,118.421C44.875,111.478 49.832,105.841 55.937,105.841C56.181,105.841 56.422,105.85 56.662,105.868C56.568,105.456 56.479,105.033 56.395,104.6C54.347,94.068 53.987,77.236 56.5,63.5C57.315,59.044 58.021,53.849 58.936,49.968C59.215,48.889 60.176,48.126 61.291,48.098C76.959,47.674 92.684,45.603 108.45,42.347C109.289,42.172 110.158,42.438 110.754,43.053C111.351,43.668 111.591,44.545 111.39,45.378C110.464,49.985 109.584,56.05 109.243,58C106.882,71.532 105.848,87.356 107.845,97.628C108.261,99.765 108.789,101.65 109.437,103.206C110.487,104.274 111.356,105.568 111.987,107.018C111.988,107.022 111.989,107.025 111.991,107.028C112.717,108.702 113.125,110.587 113.125,112.579C113.125,119.522 108.168,125.159 102.063,125.159C95.957,125.159 91,119.522 91,112.579C91,105.637 95.957,100 102.063,100C102.406,100 102.745,100.018 103.08,100.053C102.825,99.144 102.597,98.166 102.395,97.13C100.669,88.252 100.882,75.013 102.496,62.846C102.608,62.036 102.317,61.222 101.715,60.668C101.114,60.114 100.279,59.889 99.481,60.066C88.144,62.502 75.625,63.801 64.072,63.98C62.865,63.995 61.841,64.869 61.639,66.059C59.459,79.442 59.876,94.975 61.845,105.099C62.077,106.288 62.343,107.4 62.645,108.419Z" style="fill:currentColor;"/>
            </g>
        </g>
    </g>
</svg>
