<?xml version="1.0" encoding="UTF-8" standalone="no"?>
<!DOCTYPE svg PUBLIC "-//W3C//DTD SVG 1.1//EN" "http://www.w3.org/Graphics/SVG/1.1/DTD/svg11.dtd">
<svg width="100%" height="100%" viewBox="0 0 112 43" version="1.1" xmlns="http://www.w3.org/2000/svg" xmlns:xlink="http://www.w3.org/1999/xlink" xml:space="preserve" xmlns:serif="http://www.serif.com/" style="fill-rule:evenodd;clip-rule:evenodd;stroke-linejoin:round;stroke-miterlimit:2;">
    <g transform="matrix(1,0,0,1,-13,-51)">
        <g id="NextPostInGroup" transform="matrix(1.01863,0,0,0.980554,-5.42544,1.75016)">
            <g transform="matrix(3.306e-17,-0.539911,0.151205,9.25865e-18,7.43129,108.597)">
                <path d="M67.5,76C72.194,76 76,89.081 76,105.217L76,105.783C76,121.919 72.194,135 67.5,135L67.5,135C62.806,135 59,121.919 59,105.783L59,105.217C59,89.081 62.806,76 67.5,76C67.5,76 67.5,76 67.5,76Z" style="fill:currentColor;fill-opacity:0.66;"/>
            </g>
            <g transform="matrix(3.306e-17,-0.539911,0.151205,9.25865e-18,52.0795,108.597)">
                <path d="M67.5,76C72.194,76 76,89.081 76,105.217L76,105.783C76,121.919 72.194,135 67.5,135L67.5,135C62.806,135 59,121.919 59,105.783L59,105.217C59,89.081 62.806,76 67.5,76C67.5,76 67.5,76 67.5,76Z" style="fill:currentColor;fill-opacity:0.66;"/>
            </g>
            <g transform="matrix(0.981711,0,0,1.01983,5.32621,-1.78487)">
                <path d="M53.874,72.501C53.874,73.695 53.4,74.839 52.556,75.682C51.713,76.526 50.569,77 49.376,77C42.73,77 32.5,77 32.5,77C31.307,77 30.162,76.526 29.318,75.682C28.474,74.838 28,73.693 28,72.5C28,71.307 28.474,70.162 29.318,69.318C30.162,68.474 31.307,68 32.5,68L43.555,68C44.63,68 45.585,67.312 45.926,66.292C48.486,58.845 55.556,53.5 63.874,53.5C72.191,53.5 79.261,58.845 81.835,66.288C82.174,67.302 83.123,67.985 84.192,67.985C87.764,68 95.249,68 95.249,68C96.442,68 97.586,68.474 98.43,69.317C99.273,70.161 99.747,71.305 99.747,72.498L99.747,72.502C99.747,73.695 99.273,74.839 98.43,75.683C97.586,76.526 96.442,77 95.249,77C95.249,77 85.018,77 78.372,77C75.887,77 73.874,74.986 73.874,72.501C73.874,72.501 73.874,72.5 73.874,72.5C73.874,70.881 73.489,69.353 72.806,68C71.16,64.737 67.778,62.5 63.874,62.5C59.969,62.5 56.588,64.737 54.941,68C54.258,69.353 53.874,70.881 53.874,72.5C53.874,72.5 53.874,72.501 53.874,72.501Z" style="fill:currentColor;fill-opacity:0.96;"/>
            </g>
            <g transform="matrix(0.981711,0,0,1.01983,58.6702,-1.77347)">
                <path d="M66.702,68.964C68.655,70.917 68.655,74.083 66.702,76.036C61.105,81.633 50.83,91.907 50.83,91.907C49.052,93.686 46.168,93.686 44.39,91.907L44.389,91.906C42.653,90.17 42.653,87.357 44.389,85.621C44.389,85.621 50.088,79.922 53.974,76.036C54.912,75.098 55.439,73.826 55.439,72.5C55.439,71.174 54.912,69.902 53.974,68.964C50.1,65.09 44.428,59.419 44.428,59.419C43.584,58.575 43.11,57.43 43.11,56.237C43.11,55.043 43.584,53.898 44.428,53.055C45.272,52.211 46.417,51.737 47.61,51.737C48.804,51.737 49.948,52.211 50.792,53.055C50.792,53.055 61.095,63.358 66.702,68.964Z" style="fill:currentColor;"/>
            </g>
        </g>
    </g>
</svg>
