<?xml version="1.0" encoding="UTF-8" standalone="no"?>
<!DOCTYPE svg PUBLIC "-//W3C//DTD SVG 1.1//EN" "http://www.w3.org/Graphics/SVG/1.1/DTD/svg11.dtd">
<svg width="100%" height="100%" viewBox="0 0 118 35" version="1.1" xmlns="http://www.w3.org/2000/svg" xmlns:xlink="http://www.w3.org/1999/xlink" xml:space="preserve" xmlns:serif="http://www.serif.com/" style="fill-rule:evenodd;clip-rule:evenodd;stroke-linejoin:round;stroke-miterlimit:2;">
    <g transform="matrix(1,0,0,1,-12,-55)">
        <g id="NextPostInGroup" transform="matrix(0.872592,0,0,0.872592,5.92404,11.3704)">
            <g transform="matrix(1,0,0,1,-1.50167,7.5)">
                <path d="M129.617,64.75L121.704,56.837C119.432,54.565 119.432,50.881 121.704,48.609L121.706,48.607C123.978,46.335 127.662,46.335 129.934,48.607L141.99,60.663C143.119,61.792 143.687,63.27 143.694,64.75C143.687,66.23 143.119,67.708 141.99,68.837L129.934,80.893C127.662,83.165 123.978,83.165 121.706,80.893L121.704,80.891C119.432,78.619 119.432,74.935 121.704,72.663L129.617,64.75Z" style="fill:currentColor;"/>
            </g>
            <g transform="matrix(1,0,0,1,5.98664,7.25)">
                <path d="M43.5,70.819L24.818,70.819C23.275,70.819 21.795,70.206 20.704,69.115C19.613,68.024 19,66.544 19,65.001L19,64.999C19,63.456 19.613,61.976 20.704,60.885C21.795,59.794 23.275,59.181 24.818,59.181C24.818,59.181 33.969,59.181 39.433,59.181C41.704,59.18 43.761,57.838 44.676,55.76C48.053,48.077 55.592,42.75 64.333,42.75C73.129,42.75 80.707,48.144 84.101,55.883C84.999,57.962 87.047,59.309 89.312,59.309C94.692,59.362 103.571,59.362 103.571,59.362C105.114,59.362 106.594,59.975 107.685,61.066C108.776,62.157 109.389,63.637 109.389,65.18L109.389,65.182C109.389,66.725 108.776,68.205 107.685,69.296C106.594,70.387 105.114,71 103.571,71L82.429,71C81.931,71 81.44,70.936 80.966,70.813C77.761,70.806 75.167,68.205 75.167,65C75.167,58.86 70.312,53.875 64.333,53.875C58.354,53.875 53.5,57.86 53.5,64C53.5,67.124 51,70.674 47.877,70.735L43.5,70.819Z" style="fill:currentColor;"/>
            </g>
            <g id="Dots" opacity="0.66">
                <g transform="matrix(4.14274e-17,-0.676561,0.189475,1.1602e-17,49.997,117.668)">
                    <path d="M67.741,76C69.931,76 72.032,79.107 73.581,84.638C75.13,90.169 76,97.67 76,105.492C76,105.497 76,105.503 76,105.508C76,113.33 75.13,120.831 73.581,126.362C72.032,131.893 69.931,135 67.741,135C67.58,135 67.42,135 67.259,135C65.069,135 62.968,131.893 61.419,126.362C59.87,120.831 59,113.33 59,105.508C59,105.503 59,105.497 59,105.492C59,97.67 59.87,90.169 61.419,84.638C62.968,79.107 65.069,76 67.259,76C67.42,76 67.58,76 67.741,76Z" style="fill:currentColor;"/>
                </g>
                <g transform="matrix(4.14274e-17,-0.676561,0.189475,1.1602e-17,-6.59248,118.014)">
                    <path d="M67.741,76C69.931,76 72.032,79.107 73.581,84.638C75.13,90.169 76,97.67 76,105.492C76,105.497 76,105.503 76,105.508C76,113.33 75.13,120.831 73.581,126.362C72.032,131.893 69.931,135 67.741,135C67.58,135 67.42,135 67.259,135C65.069,135 62.968,131.893 61.419,126.362C59.87,120.831 59,113.33 59,105.508C59,105.503 59,105.497 59,105.492C59,97.67 59.87,90.169 61.419,84.638C62.968,79.107 65.069,76 67.259,76C67.42,76 67.58,76 67.741,76Z" style="fill:currentColor;"/>
                </g>
            </g>
        </g>
    </g>
</svg>
