<?xml version="1.0" encoding="UTF-8" standalone="no"?>
<!DOCTYPE svg PUBLIC "-//W3C//DTD SVG 1.1//EN" "http://www.w3.org/Graphics/SVG/1.1/DTD/svg11.dtd">
<svg width="100%" height="100%" viewBox="0 0 112 43" version="1.1" xmlns="http://www.w3.org/2000/svg" xmlns:xlink="http://www.w3.org/1999/xlink" xml:space="preserve" xmlns:serif="http://www.serif.com/" style="fill-rule:evenodd;clip-rule:evenodd;stroke-linejoin:round;stroke-miterlimit:2;">
    <g transform="matrix(1,0,0,1,-13,-51)">
        <g id="NextPostInTopic" transform="matrix(1.01863,0,0,0.980554,-5.42544,1.75016)">
            <g transform="matrix(3.306e-17,-0.539911,0.151205,9.25865e-18,7.43129,108.597)">
                <path d="M67.5,76C72.194,76 76,89.081 76,105.217L76,105.783C76,121.919 72.194,135 67.5,135L67.5,135C62.806,135 59,121.919 59,105.783L59,105.217C59,89.081 62.806,76 67.5,76C67.5,76 67.5,76 67.5,76Z" style="fill:currentColor;fill-opacity:0.66;"/>
            </g>
            <g transform="matrix(3.33399e-17,-0.539911,1.19381,7.36243e-17,-57.9158,108.597)">
                <path d="M67.5,76C69.754,76 71.916,76.39 73.51,77.084C75.104,77.778 76,78.719 76,79.7L76,131.301C76,132.282 75.105,133.223 73.512,133.917C71.918,134.61 69.757,135 67.504,135C67.501,135 67.499,135 67.496,135C65.243,135 63.082,134.61 61.488,133.917C59.895,133.223 59,132.282 59,131.301C59,120.702 59,90.302 59,79.7C59,78.719 59.896,77.778 61.49,77.084C63.084,76.39 65.246,76 67.5,76L67.5,76Z" style="fill:currentColor;"/>
            </g>
            <g transform="matrix(0.981711,0,0,1.01983,58.6702,-1.77347)">
                <path d="M66.702,68.964C68.655,70.917 68.655,74.083 66.702,76.036C61.105,81.633 50.83,91.907 50.83,91.907C49.052,93.686 46.168,93.686 44.39,91.907L44.389,91.906C42.653,90.17 42.653,87.357 44.389,85.621C44.389,85.621 50.088,79.922 53.974,76.036C54.912,75.098 55.439,73.826 55.439,72.5C55.439,71.174 54.912,69.902 53.974,68.964C50.1,65.09 44.428,59.419 44.428,59.419C43.584,58.575 43.11,57.43 43.11,56.237C43.11,55.043 43.584,53.898 44.428,53.055C45.272,52.211 46.417,51.737 47.61,51.737C48.804,51.737 49.948,52.211 50.792,53.055C50.792,53.055 61.095,63.358 66.702,68.964Z" style="fill:currentColor;"/>
            </g>
        </g>
    </g>
</svg>
