<?xml version="1.0" encoding="UTF-8" standalone="no"?>
<!DOCTYPE svg PUBLIC "-//W3C//DTD SVG 1.1//EN" "http://www.w3.org/Graphics/SVG/1.1/DTD/svg11.dtd">
<svg width="100%" height="100%" viewBox="0 0 118 35" version="1.1" xmlns="http://www.w3.org/2000/svg" xmlns:xlink="http://www.w3.org/1999/xlink" xml:space="preserve" xmlns:serif="http://www.serif.com/" style="fill-rule:evenodd;clip-rule:evenodd;stroke-linejoin:round;stroke-miterlimit:2;">
    <g transform="matrix(1,0,0,1,-12,-55)">
        <g id="NextPostInTopic" transform="matrix(1.01863,0,0,0.980554,-5.42544,1.75016)">
            <g transform="matrix(1,0,0,1,-10.7508,7.40294)">
                <path d="M129.617,64.75L121.704,56.837C119.432,54.565 119.432,50.881 121.704,48.609L121.706,48.607C123.978,46.335 127.662,46.335 129.934,48.607L141.99,60.663C143.119,61.792 143.687,63.27 143.694,64.75C143.687,66.23 143.119,67.708 141.99,68.837L129.934,80.893C127.662,83.165 123.978,83.165 121.706,80.893L121.704,80.891C119.432,78.619 119.432,74.935 121.704,72.663L129.617,64.75Z" style="fill:currentColor;"/>
            </g>
            <g transform="matrix(4.14274e-17,-0.676561,0.189475,1.1602e-17,3.39384,117.821)">
                <path d="M67.501,76C69.755,76 71.917,79.078 73.511,84.556C75.105,90.034 76,97.464 76,105.212C76,105.404 76,105.596 76,105.788C76,113.536 75.105,120.966 73.511,126.444C71.917,131.922 69.755,135 67.501,135C67.5,135 67.5,135 67.499,135C65.245,135 63.083,131.922 61.489,126.444C59.895,120.966 59,113.536 59,105.788C59,105.596 59,105.404 59,105.212C59,97.464 59.895,90.034 61.489,84.556C63.083,79.078 65.245,76 67.499,76C67.5,76 67.5,76 67.501,76Z" style="fill:currentColor;fill-opacity:0.66;"/>
            </g>
            <g transform="matrix(3.96556e-17,-0.647059,1.19381,7.3165e-17,-57.9158,115.829)">
                <path d="M67.502,76C69.756,76 71.917,76.467 73.511,77.299C75.105,78.13 76,79.258 76,80.434C76,91.385 76,119.615 76,130.566C76,131.742 75.105,132.87 73.511,133.701C71.917,134.533 69.756,135 67.502,135C67.501,135 67.499,135 67.498,135C65.244,135 63.083,134.533 61.489,133.701C59.895,132.87 59,131.742 59,130.566C59,119.615 59,91.385 59,80.434C59,79.258 59.895,78.13 61.489,77.299C63.083,76.467 65.244,76 67.498,76C67.499,76 67.501,76 67.502,76Z" style="fill:currentColor;"/>
            </g>
        </g>
    </g>
</svg>
