<?xml version="1.0" encoding="UTF-8" standalone="no"?>
<!DOCTYPE svg PUBLIC "-//W3C//DTD SVG 1.1//EN" "http://www.w3.org/Graphics/SVG/1.1/DTD/svg11.dtd">
<svg width="100%" height="100%" viewBox="0 0 126 119" version="1.1" xmlns="http://www.w3.org/2000/svg" xmlns:xlink="http://www.w3.org/1999/xlink" xml:space="preserve" xmlns:serif="http://www.serif.com/" style="fill-rule:evenodd;clip-rule:evenodd;stroke-linejoin:round;stroke-miterlimit:2;">
    <g transform="matrix(1,0,0,1,-12,-16)">
        <g id="settingsCog">
            <path d="M84.479,16.502C87.241,16.502 89.479,18.74 89.479,21.502C89.479,24.997 89.479,29.572 89.479,32.643C89.48,34.652 90.683,36.466 92.533,37.248C98.33,39.756 103.499,43.511 107.695,48.231C109.004,49.741 111.089,50.322 112.99,49.704C115.919,48.782 120.27,47.368 123.594,46.288C126.221,45.434 129.041,46.872 129.895,49.498C131.535,54.547 134.113,62.48 135.753,67.528C136.607,70.155 135.169,72.976 132.543,73.829C129.218,74.909 124.868,76.323 121.947,77.272C120.036,77.893 118.683,79.598 118.511,81.599C117.917,87.887 115.943,93.964 112.751,99.413C111.719,101.124 111.812,103.287 112.986,104.904C114.769,107.405 117.457,111.105 119.512,113.934C121.135,116.168 120.64,119.294 118.406,120.918C114.111,124.038 107.363,128.941 103.068,132.061C100.834,133.684 97.707,133.189 96.084,130.955C94.03,128.127 91.341,124.426 89.536,121.941C88.354,120.316 86.315,119.556 84.358,120.011C78.195,121.389 71.805,121.389 65.636,120.037C63.69,119.585 61.662,120.341 60.487,121.958C58.659,124.426 55.97,128.127 53.916,130.955C52.293,133.189 49.166,133.684 46.932,132.061C42.637,128.941 35.889,124.038 31.594,120.918C29.36,119.294 28.865,116.168 30.488,113.934C32.543,111.105 35.231,107.405 37.037,104.92C38.217,103.294 38.31,101.12 37.272,99.399C34.057,93.964 32.083,87.887 31.462,81.602C31.291,79.611 29.945,77.916 28.044,77.298C25.132,76.323 20.782,74.909 17.457,73.829C14.831,72.976 13.393,70.155 14.247,67.528C15.887,62.48 18.465,54.547 20.105,49.498C20.959,46.872 23.779,45.434 26.406,46.288C29.73,47.368 34.081,48.782 37.002,49.731C38.913,50.351 41.01,49.768 42.325,48.249C46.501,43.511 51.67,39.756 57.456,37.223C59.297,36.445 60.493,34.641 60.493,32.643C60.521,29.572 60.521,24.997 60.521,21.502C60.521,18.74 62.759,16.502 65.521,16.502C70.829,16.502 79.171,16.502 84.479,16.502ZM75,55.426C62.927,55.426 53.125,65.228 53.125,77.301C53.125,89.374 62.927,99.176 75,99.176C87.073,99.176 96.875,89.374 96.875,77.301C96.875,65.228 87.073,55.426 75,55.426Z" style="fill:currentColor;"/>
        </g>
    </g>
</svg>
