<?xml version="1.0" encoding="UTF-8" standalone="no"?><!DOCTYPE svg PUBLIC "-//W3C//DTD SVG 1.1//EN" "http://www.w3.org/Graphics/SVG/1.1/DTD/svg11.dtd"><svg width="100%" height="100%" viewBox="0 0 27 27" version="1.1" xmlns="http://www.w3.org/2000/svg" xmlns:xlink="http://www.w3.org/1999/xlink" xml:space="preserve" xmlns:serif="http://www.serif.com/" style="fill-rule:evenodd;clip-rule:evenodd;stroke-linecap:round;stroke-linejoin:round;stroke-miterlimit:1.5;"><g id="tbBlogLogo"><circle cx="13.2" cy="13.2" r="13.2" style="fill:#ea8bd9;"/><path d="M5.33,4.912c0.491,5.165 0.119,5.742 0.39,5.403" style="fill:none;stroke:#000;stroke-width:0.24px;"/><path d="M5.264,5.172c1.395,0.399 2.823,2.578 1.107,2.376" style="fill:none;stroke:#000;stroke-width:0.24px;"/><path d="M7.934,4.814c-0.103,2.775 0.509,5.495 0.52,5.501" style="fill:none;stroke:#000;stroke-width:0.24px;"/><path d="M10.7,9.729c-0.803,-0.978 -0.723,-1.298 -1.171,-1.074c-0.142,0.071 -0.202,2.255 0.651,0.456" style="fill:none;stroke:#000;stroke-width:0.24px;"/><path d="M11.775,8.33c-0.323,0.698 -0.812,0.502 -0.684,1.269c0.058,0.35 0.837,0.239 0.911,0.228" style="fill:none;stroke:#000;stroke-width:0.24px;"/><path d="M13.098,9.838c-0.159,-0.703 -0.697,-1.36 -0.445,-1.411c0.126,-0.025 1.534,0.528 0.261,0.619" style="fill:none;stroke:#000;stroke-width:0.24px;"/><path d="M14.281,4.358c0.035,0.386 0.053,0.373 0.485,4.818c0.088,-1.179 0.255,-1.162 0.329,-1.107c0.072,0.055 0.914,0.957 1.106,1.725" style="fill:none;stroke:#000;stroke-width:0.24px;"/><path d="M17.243,8.46c-0.732,-0.122 -0.652,0.657 -0.618,0.716c0.447,0.784 0.936,-0.03 0.976,-0.098" style="fill:none;stroke:#000;stroke-width:0.24px;"/><path d="M17.511,5.028c0.15,0.086 0.086,0.137 0.611,4.408" style="fill:none;stroke:#000;stroke-width:0.24px;"/><path d="M18.886,4.925c0.044,0.083 0.797,3.711 0.603,3.828c-0.016,0.01 -0.742,0.25 -0.618,0.521c0.046,0.102 0.734,0.719 0.846,-0.066" style="fill:none;stroke:#000;stroke-width:0.24px;"/><path d="M20.291,9.614c0.118,-0.905 -0.732,-1.277 -0.216,-1.317c1.402,-0.108 -0.067,0.382 -0.098,0.391" style="fill:none;stroke:#000;stroke-width:0.24px;"/><path d="M21.273,9.3c0.16,-0.862 -0.424,-0.818 -0.254,-1.101c0.047,-0.078 0.049,-0.082 1.139,-0.032" style="fill:none;stroke:#000;stroke-width:0.24px;"/><path d="M6.827,13.342c-0.1,2.809 0.595,2.861 -0.228,5.534c-0.238,0.773 0.482,0.542 1.953,0.033" style="fill:none;stroke:#000;stroke-width:0.24px;"/><path d="M9.659,17.563c-0.191,-0.127 -1.455,1.046 -0.781,1.248c0.454,0.136 1.806,-0.372 1.204,-1.335" style="fill:none;stroke:#000;stroke-width:0.24px;"/><path d="M11.026,17.248c-0.834,2.086 0.979,0.571 1.009,0.521c0.196,-0.326 -1.082,-0.121 -0.521,0.814c0.126,0.209 2.668,3.517 2.181,3.906c-0.377,0.302 -2.059,-1.227 -2.213,-1.367" style="fill:none;stroke:#000;stroke-width:0.24px;"/><path d="M13.337,17.183c-0.981,0.545 -0.57,1.286 -0.358,1.302c0.701,0.054 1.418,-1.027 0.944,-1.106" style="fill:none;stroke:#000;stroke-width:0.24px;"/><path d="M15.132,17.835c0.049,0.026 0.06,0 0.028,0.032" style="fill:none;stroke:#000;stroke-width:0.24px;"/><path d="M15.095,17.118c-0.055,-1.072 0.014,-1.067 -0.228,-2.116c-0.102,-0.442 -0.37,-1.127 -0.326,-1.171" style="fill:none;stroke:#000;stroke-width:0.24px;"/><path d="M16.455,17.56c0.061,0.072 0.017,0.061 -0.058,0.112" style="fill:none;stroke:#000;stroke-width:0.24px;"/><path d="M16.494,17.053c-0.614,-1.35 -0.531,-3.35 -0.553,-3.808" style="fill:none;stroke:#000;stroke-width:0.24px;"/></g></svg>