<?xml version="1.0" encoding="UTF-8" standalone="no"?>
<!DOCTYPE svg PUBLIC "-//W3C//DTD SVG 1.1//EN" "http://www.w3.org/Graphics/SVG/1.1/DTD/svg11.dtd">
<svg width="100%" height="100%" viewBox="0 0 116 116" version="1.1" xmlns="http://www.w3.org/2000/svg" xmlns:xlink="http://www.w3.org/1999/xlink" xml:space="preserve" xmlns:serif="http://www.serif.com/" style="fill-rule:evenodd;clip-rule:evenodd;stroke-linejoin:round;stroke-miterlimit:2;">
    <g transform="matrix(1,0,0,1,-17,-17)">
        <g id="textPost">
            <path d="M129.678,17.5L132.289,48.841L129.593,48.841C127.908,43.056 125.62,38.057 122.727,33.844C119.835,29.632 116.465,26.388 112.617,24.114C108.77,21.839 104.74,20.701 100.527,20.701C97.214,20.701 94.335,21.389 91.892,22.766C89.449,24.142 87.637,26.037 86.458,28.452C85.335,30.755 84.773,34.462 84.773,39.573L84.773,106.804C84.773,111.803 85.11,115.468 85.784,117.799C86.458,120.129 87.75,122.165 89.659,123.907C93.085,126.996 98.084,128.99 104.656,129.888L104.656,132.5L45.26,132.5L45.26,129.888C52.562,128.877 57.897,126.574 61.267,122.98C62.784,121.351 63.823,119.357 64.385,116.998C64.946,114.639 65.227,111.241 65.227,106.804L65.227,39.573C65.227,34.013 64.469,29.969 62.952,27.441C61.773,25.363 60.004,23.72 57.645,22.513C55.286,21.305 52.562,20.701 49.473,20.701C43.126,20.701 37.327,23.215 32.075,28.242C26.824,33.269 22.906,40.135 20.322,48.841L17.711,48.841L20.322,17.5L129.678,17.5ZM60.509,128.203L85.194,128.203L81.908,125.76C79.886,124.244 78.623,123.092 78.117,122.306C77.612,121.52 77.359,120.284 77.359,118.599L77.359,115.819C77.359,115.369 77.345,115.06 77.317,114.892C77.289,114.723 77.275,114.555 77.275,114.386L77.275,35.614C77.275,35.445 77.289,35.277 77.317,35.108C77.345,34.94 77.359,34.631 77.359,34.181L77.359,31.401C77.359,29.716 77.668,28.41 78.286,27.484C78.904,26.557 80.111,25.476 81.908,24.24L86.711,20.701L60.762,20.701L64.722,24.24C66.126,25.476 67.081,26.613 67.586,27.652C68.092,28.691 68.344,29.941 68.344,31.401L68.344,34.181C68.4,34.687 68.429,35.164 68.429,35.614L68.429,114.386C68.429,114.836 68.4,115.313 68.344,115.819L68.344,118.599C68.344,120.284 68.078,121.548 67.544,122.39C67.01,123.233 65.789,124.356 63.879,125.76L60.509,128.203ZM123.275,20.617L111.059,20.617C114.035,21.853 116.535,23.271 118.557,24.872C120.579,26.473 122.685,28.789 124.875,31.822L123.275,20.617ZM23.103,20.617L21.923,33.002C24.338,29.463 26.388,26.88 28.073,25.251C29.758,23.622 31.949,22.078 34.645,20.617L23.103,20.617Z" style="fill:currentColor;"/>
        </g>
    </g>
</svg>
