<?xml version="1.0" encoding="UTF-8" standalone="no"?>
<!DOCTYPE svg PUBLIC "-//W3C//DTD SVG 1.1//EN" "http://www.w3.org/Graphics/SVG/1.1/DTD/svg11.dtd">
<svg width="100%" height="100%" viewBox="0 0 28 28" version="1.1" xmlns="http://www.w3.org/2000/svg" xmlns:xlink="http://www.w3.org/1999/xlink" xml:space="preserve" xmlns:serif="http://www.serif.com/" style="fill-rule:evenodd;clip-rule:evenodd;stroke-linejoin:round;stroke-miterlimit:2;">
    <g id="textPost">
        <path d="M27.043,0.12l0.626,7.522l-0.647,-0c-0.404,-1.389 -0.953,-2.588 -1.647,-3.599c-0.695,-1.011 -1.503,-1.79 -2.427,-2.336c-0.923,-0.546 -1.89,-0.819 -2.901,-0.819c-0.796,0 -1.487,0.165 -2.073,0.496c-0.586,0.33 -1.021,0.785 -1.304,1.365c-0.27,0.552 -0.405,1.442 -0.405,2.669l0,16.135c0,1.2 0.081,2.079 0.243,2.639c0.162,0.559 0.472,1.048 0.93,1.466c0.823,0.741 2.022,1.22 3.599,1.435l0,0.627l-14.255,-0l0,-0.627c1.753,-0.242 3.033,-0.795 3.842,-1.658c0.364,-0.391 0.614,-0.869 0.748,-1.435c0.135,-0.567 0.203,-1.382 0.203,-2.447l-0,-16.135c-0,-1.335 -0.182,-2.305 -0.546,-2.912c-0.284,-0.499 -0.708,-0.893 -1.274,-1.183c-0.566,-0.29 -1.22,-0.435 -1.962,-0.435c-1.523,0 -2.915,0.604 -4.175,1.81c-1.26,1.206 -2.201,2.854 -2.821,4.944l-0.626,-0l0.626,-7.522l26.246,-0Zm-16.601,26.569l5.925,-0l-0.789,-0.587c-0.485,-0.364 -0.789,-0.64 -0.91,-0.829c-0.121,-0.188 -0.182,-0.485 -0.182,-0.889l0,-0.668c0,-0.107 -0.003,-0.181 -0.01,-0.222c-0.007,-0.04 -0.01,-0.081 -0.01,-0.121l-0,-18.906c-0,-0.04 0.003,-0.081 0.01,-0.121c0.007,-0.041 0.01,-0.115 0.01,-0.222l0,-0.668c0,-0.404 0.074,-0.718 0.223,-0.94c0.148,-0.222 0.438,-0.482 0.869,-0.778l1.153,-0.85l-6.228,0l0.95,0.85c0.337,0.296 0.566,0.569 0.688,0.818c0.121,0.25 0.182,0.55 0.182,0.9l-0,0.668c0.013,0.121 0.02,0.235 0.02,0.343l-0,18.906c-0,0.108 -0.007,0.222 -0.02,0.343l-0,0.668c-0,0.404 -0.064,0.707 -0.192,0.91c-0.129,0.202 -0.422,0.471 -0.88,0.808l-0.809,0.587Zm-8.977,-25.821l-0.283,2.972c0.579,-0.849 1.071,-1.469 1.476,-1.86c0.404,-0.391 0.93,-0.761 1.577,-1.112l-2.77,0Zm24.041,0l-2.932,0c0.714,0.297 1.314,0.637 1.8,1.021c0.485,0.384 0.99,0.94 1.516,1.668l-0.384,-2.689Z" style="fill:currentColor;"/>
    </g>
</svg>