<?xml version="1.0" encoding="UTF-8" standalone="no"?>
<!DOCTYPE svg PUBLIC "-//W3C//DTD SVG 1.1//EN" "http://www.w3.org/Graphics/SVG/1.1/DTD/svg11.dtd">
<svg width="100%" height="100%" viewBox="0 0 32 32" version="1.1" xmlns="http://www.w3.org/2000/svg" xmlns:xlink="http://www.w3.org/1999/xlink" xml:space="preserve" xmlns:serif="http://www.serif.com/" style="fill-rule:evenodd;clip-rule:evenodd;stroke-linejoin:round;stroke-miterlimit:2;">
    <g id="upDownArrow">
        <path d="M17.526,1.949c-0.461,-0.461 -1.086,-0.72 -1.738,-0.72c-0.652,-0 -1.277,0.259 -1.738,0.72c-3.195,3.195 -9.924,9.924 -12.664,12.664c-0.697,0.696 -0.805,1.788 -0.258,2.608c0,0 0,0.001 0.001,0.001c0.361,0.542 0.944,0.896 1.591,0.966c0.648,0.07 1.293,-0.151 1.762,-0.603c2.572,-2.478 7.131,-6.87 9.601,-9.251c0.951,-0.917 2.458,-0.917 3.41,0c2.47,2.381 7.028,6.773 9.6,9.251c0.469,0.452 1.115,0.673 1.762,0.603c0.648,-0.07 1.231,-0.424 1.592,-0.966c0.057,-0.084 0.112,-0.168 0.166,-0.249c0.451,-0.676 0.361,-1.575 -0.213,-2.15c-2.588,-2.588 -9.594,-9.594 -12.874,-12.874Z" style="fill:currentColor;"/>
        <path d="M15.788,17.011c0.541,0 1.06,0.215 1.442,0.598c0.383,0.382 0.598,0.901 0.598,1.442c-0,2.74 -0,7.58 -0,10.32c-0,0.541 -0.215,1.06 -0.598,1.443c-0.382,0.382 -0.901,0.597 -1.442,0.597c-0,0 -0,0 -0,0c-0.541,0 -1.06,-0.215 -1.443,-0.597c-0.382,-0.383 -0.597,-0.902 -0.597,-1.443c-0,-2.74 -0,-7.58 -0,-10.32c-0,-0.541 0.215,-1.06 0.597,-1.442c0.383,-0.383 0.902,-0.598 1.443,-0.598c-0,0 -0,0 -0,0Z" style="fill:currentColor"/>
    </g>
</svg>