<?xml version="1.0" encoding="UTF-8" standalone="no"?>
<!DOCTYPE svg PUBLIC "-//W3C//DTD SVG 1.1//EN" "http://www.w3.org/Graphics/SVG/1.1/DTD/svg11.dtd">
<svg width="100%" height="100%" viewBox="0 0 128 118" version="1.1" xmlns="http://www.w3.org/2000/svg" xmlns:xlink="http://www.w3.org/1999/xlink" xml:space="preserve" xmlns:serif="http://www.serif.com/" style="fill-rule:evenodd;clip-rule:evenodd;stroke-linejoin:round;stroke-miterlimit:2;">
    <g transform="matrix(1,0,0,1,-11,-16)">
        <g id="videoPost" transform="matrix(1.16111,0,0,1,-8.63889,2)">
            <g id="pause" transform="matrix(1.35714,0,0,1,47.0796,-1.5)">
                <g opacity="0.66">
                    <g transform="matrix(0.861244,0,0,0.975,10.4545,-5.45)">
                        <path d="M52,22C54.209,22 56,24.493 56,27.567C56,47.664 56,116.336 56,136.433C56,139.507 54.209,142 52,142C52,142 52,142 52,142C49.791,142 48,139.507 48,136.433C48,116.336 48,47.664 48,27.567C48,24.493 49.791,22 52,22C52,22 52,22 52,22Z" style="fill:currentColor;"/>
                    </g>
                    <g transform="matrix(0.861244,0,0,0.975,-15.9267,-5.45)">
                        <path d="M52,22C54.209,22 56,24.493 56,27.567C56,47.664 56,116.336 56,136.433C56,139.507 54.209,142 52,142C52,142 52,142 52,142C49.791,142 48,139.507 48,136.433C48,116.336 48,47.664 48,27.567C48,24.493 49.791,22 52,22C52,22 52,22 52,22Z" style="fill:currentColor;"/>
                    </g>
                </g>
            </g>
            <g transform="matrix(0.861244,0,0,0.961487,-48.4213,-2.99004)">
                <path d="M76.361,20.691C76.361,19.677 76.974,18.763 77.912,18.378C78.85,17.993 79.928,18.212 80.64,18.934L138.265,77.277C139.227,78.251 139.227,79.817 138.265,80.791L80.64,139.134C79.928,139.855 78.85,140.075 77.912,139.69C76.974,139.305 76.361,138.391 76.361,137.377L76.361,20.691ZM87.944,36.48C87.234,35.752 86.154,35.526 85.212,35.909C84.27,36.292 83.653,37.207 83.653,38.224L83.653,119.843C83.653,120.86 84.27,121.776 85.212,122.159C86.154,122.542 87.234,122.316 87.944,121.588L127.694,80.778C128.64,79.807 128.64,78.26 127.694,77.289L87.944,36.48Z" style="fill:currentColor;"/>
            </g>
            <g transform="matrix(0.861244,0,0,1,-48.4213,-6.5)">
                <path d="M87.944,38.585L127.694,77.823C128.64,78.756 128.64,80.244 127.694,81.177L87.944,120.415C87.234,121.115 86.154,121.333 85.212,120.964C84.27,120.596 83.653,119.716 83.653,118.738L83.653,40.262C83.653,39.284 84.27,38.404 85.212,38.036C86.154,37.667 87.234,37.885 87.944,38.585Z" style="fill:currentColor;fill-opacity:0.66;"/>
            </g>
        </g>
    </g>
</svg>
