<?xml version="1.0" encoding="UTF-8" standalone="no"?>
<!DOCTYPE svg PUBLIC "-//W3C//DTD SVG 1.1//EN" "http://www.w3.org/Graphics/SVG/1.1/DTD/svg11.dtd">
<svg width="100%" height="100%" viewBox="0 0 123 117" version="1.1" xmlns="http://www.w3.org/2000/svg" xmlns:xlink="http://www.w3.org/1999/xlink" xml:space="preserve" xmlns:serif="http://www.serif.com/" style="fill-rule:evenodd;clip-rule:evenodd;stroke-linejoin:round;stroke-miterlimit:2;">
    <g transform="matrix(1,0,0,1,-16,-21)">
        <g id="videoPost" transform="matrix(1.16111,0,0,1,-10.1389,5)">
            <g id="pause" opacity="0.66">
                <g transform="matrix(0.861244,0,0,0.975,10.4545,-5.45)">
                    <path d="M52.002,22C54.21,22 56,23.836 56,26.101C56,44.516 56,119.484 56,137.899C56,140.164 54.21,142 52.002,142C52.001,142 52.001,142 52,142C50.939,142 49.922,141.568 49.172,140.798C48.421,140.029 48,138.985 48,137.897C48,119.479 48,44.521 48,26.103C48,25.015 48.421,23.971 49.172,23.202C49.922,22.432 50.939,22 52,22C52.001,22 52.001,22 52.002,22Z" style="fill:currentColor;"/>
                </g>
                <g transform="matrix(0.861244,0,0,0.975,-18.8278,-5.45)">
                    <path d="M52.002,22C54.21,22 56,23.836 56,26.101C56,44.516 56,119.484 56,137.899C56,140.164 54.21,142 52.002,142C52.001,142 52.001,142 52,142C50.939,142 49.922,141.568 49.172,140.798C48.421,140.029 48,138.985 48,137.897C48,119.479 48,44.521 48,26.103C48,25.015 48.421,23.971 49.172,23.202C49.922,22.432 50.939,22 52,22C52.001,22 52.001,22 52.002,22Z" style="fill:currentColor;"/>
                </g>
            </g>
            <g transform="matrix(0.861244,0,0,0.961487,8.73206,-1.49004)">
                <path d="M76.361,20.691C76.361,19.677 76.974,18.763 77.912,18.378C78.85,17.993 79.928,18.212 80.64,18.934L138.265,77.277C139.227,78.251 139.227,79.817 138.265,80.791L80.64,139.134C79.928,139.855 78.85,140.075 77.912,139.69C76.974,139.305 76.361,138.391 76.361,137.377L76.361,20.691ZM87.944,36.48C87.234,35.752 86.154,35.526 85.212,35.909C84.27,36.292 83.653,37.207 83.653,38.224L83.653,119.843C83.653,120.86 84.27,121.776 85.212,122.159C86.154,122.542 87.234,122.316 87.944,121.588L127.694,80.778C128.64,79.807 128.64,78.26 127.694,77.289L87.944,36.48Z" style="fill:currentColor;"/>
            </g>
            <g transform="matrix(0.861244,0,0,1,8.73206,-5)">
                <path d="M87.944,38.585L127.694,77.823C128.64,78.756 128.64,80.244 127.694,81.177L87.944,120.415C87.234,121.115 86.154,121.333 85.212,120.964C84.27,120.596 83.653,119.716 83.653,118.738L83.653,40.262C83.653,39.284 84.27,38.404 85.212,38.036C86.154,37.667 87.234,37.885 87.944,38.585Z" style="fill:currentColor;fill-opacity:0.66;"/>
            </g>
        </g>
    </g>
</svg>
