<?xml version="1.0" encoding="UTF-8" standalone="no"?>
<!DOCTYPE svg PUBLIC "-//W3C//DTD SVG 1.1//EN" "http://www.w3.org/Graphics/SVG/1.1/DTD/svg11.dtd">
<svg width="100%" height="100%" viewBox="0 0 122 128" version="1.1" xmlns="http://www.w3.org/2000/svg" xmlns:xlink="http://www.w3.org/1999/xlink" xml:space="preserve" xmlns:serif="http://www.serif.com/" style="fill-rule:evenodd;clip-rule:evenodd;stroke-linejoin:round;stroke-miterlimit:2;">
    <g transform="matrix(1,0,0,1,-13,-10)">
        <g id="Volume" transform="matrix(1.16111,0,0,1,-8.63889,2)">
            <g transform="matrix(0.861244,0,0,1,19.2914,-1.91298)">
                <path d="M94.827,13.911C95.91,12.949 97.345,12.485 98.786,12.631C100.226,12.777 101.539,13.521 102.406,14.68C113.877,30.261 120.873,50.682 120.873,75.045C120.873,99.206 113.725,118.374 102.367,133.769C101.574,134.832 100.39,135.535 99.077,135.721C97.765,135.908 96.432,135.562 95.375,134.761C95.369,134.767 95.369,134.766 95.368,134.766C94.389,134.024 93.754,132.918 93.607,131.699C93.46,130.48 93.814,129.254 94.588,128.302C105.026,115.208 111.589,96.202 111.589,75.069C111.589,53.711 104.886,34.527 94.264,21.413C92.409,19.169 92.663,15.859 94.839,13.925C94.827,13.911 94.827,13.911 94.827,13.911Z" style="fill:currentColor;"/>
            </g>
            <g transform="matrix(0.861244,0,0,1,19.2914,-1.91298)">
                <path d="M82.81,116.041C81.885,117.219 80.511,117.958 79.018,118.081C77.525,118.205 76.048,117.701 74.941,116.691C74.927,116.705 74.927,116.704 74.926,116.704C73.18,115.11 73.038,112.409 74.608,110.641C82.41,101.738 87.277,89.088 87.277,75.067C87.277,60.817 82.25,47.984 74.237,39.049C72.474,37.114 72.612,34.116 74.546,32.351C74.533,32.335 74.534,32.334 74.535,32.333C75.554,31.403 76.908,30.93 78.284,31.023C79.66,31.116 80.938,31.768 81.822,32.826C90.701,43.649 96.206,58.582 96.206,75.067C96.206,90.923 91.113,105.344 82.81,116.041Z" style="fill:currentColor;"/>
            </g>
            <g transform="matrix(0.861244,0,0,1,19.2914,-1.91298)">
                <path d="M58.868,102.049C58.223,101.46 57.848,100.631 57.832,99.758C57.815,98.884 58.158,98.042 58.781,97.429C64.542,91.718 68.106,83.799 68.106,75.054C68.106,66.133 64.397,58.071 58.439,52.327C57.708,51.627 57.3,50.656 57.312,49.644C57.324,48.632 57.755,47.671 58.503,46.988C58.547,46.924 58.604,46.873 58.659,46.822C59.846,45.738 61.665,45.741 62.848,46.829C70.395,53.882 75.121,63.92 75.121,75.054C75.121,85.477 70.979,94.94 64.253,101.886C62.795,103.377 60.418,103.444 58.878,102.039C58.868,102.049 58.868,102.049 58.868,102.049Z" style="fill:currentColor;"/>
            </g>
            <g transform="matrix(0.70719,0,0,0.821127,-19.6501,11.365)">
                <path d="M102.087,49.7L102.087,100.375L76.749,75.038L102.087,49.7Z" style="fill:currentColor;fill-opacity:0.66;"/>
            </g>
            <g transform="matrix(0.70719,0,0,0.821127,-19.6501,11.365)">
                <path d="M60.577,93.127C58.962,93.127 57.414,92.486 56.272,91.344C55.13,90.202 54.488,88.653 54.488,87.038C54.488,80.335 54.488,69.623 54.488,62.92C54.488,61.305 55.13,59.756 56.272,58.614C57.414,57.472 58.963,56.831 60.577,56.831C66.191,56.831 74.247,56.831 78.293,56.831C79.907,56.831 81.455,56.189 82.597,55.048C86.235,51.412 94.756,42.896 101.71,35.944C103.452,34.203 106.071,33.683 108.346,34.626C110.621,35.568 112.104,37.789 112.104,40.251C112.104,59.026 112.104,91.341 112.104,110.194C112.104,112.666 110.611,114.892 108.324,115.829C106.037,116.766 103.411,116.228 101.677,114.467C94.683,107.365 86.106,98.657 82.45,94.944C81.305,93.782 79.742,93.127 78.111,93.127C74.084,93.127 66.137,93.127 60.577,93.127ZM102.087,64.401C102.087,61.938 100.603,59.718 98.328,58.775C96.052,57.833 93.433,58.354 91.692,60.095C87.969,63.818 83.976,67.811 81.055,70.732C78.677,73.11 78.677,76.965 81.055,79.343C83.976,82.265 87.969,86.258 91.692,89.98C93.433,91.722 96.052,92.243 98.328,91.3C100.603,90.358 102.087,88.138 102.087,85.675C102.087,78.986 102.087,71.089 102.087,64.401Z" style="fill:currentColor;"/>
            </g>
        </g>
    </g>
</svg>
