<?xml version="1.0" encoding="UTF-8" standalone="no"?>
<!DOCTYPE svg PUBLIC "-//W3C//DTD SVG 1.1//EN" "http://www.w3.org/Graphics/SVG/1.1/DTD/svg11.dtd">
<svg width="100%" height="100%" viewBox="0 0 84 84" version="1.1" xmlns="http://www.w3.org/2000/svg" xmlns:xlink="http://www.w3.org/1999/xlink" xml:space="preserve" xmlns:serif="http://www.serif.com/" style="fill-rule:evenodd;clip-rule:evenodd;stroke-linejoin:round;stroke-miterlimit:2;">
    <g transform="matrix(1,0,0,1,-33,-33)">
        <g transform="matrix(1,-1.2326e-32,0,1,-6.61489,8.58772)">
            <g id="X">
                <path d="M68.852,69.948C70.805,67.995 70.805,64.829 68.852,62.877C60.859,54.883 42.084,36.108 42.084,36.108C40.86,34.885 40.173,33.225 40.173,31.495C40.173,29.765 40.861,28.105 42.084,26.881C43.308,25.658 44.967,24.97 46.698,24.97C48.428,24.97 50.087,25.658 51.311,26.881C51.311,26.881 70.086,45.656 78.079,53.65C80.032,55.602 83.198,55.602 85.15,53.65C93.144,45.656 111.919,26.881 111.919,26.881C113.143,25.658 114.802,24.97 116.532,24.97C118.262,24.97 119.922,25.658 121.146,26.881C122.369,28.105 123.057,29.765 123.057,31.495C123.057,33.225 122.37,34.885 121.146,36.108C121.146,36.108 102.371,54.883 94.377,62.877C92.425,64.829 92.425,67.995 94.377,69.948C102.371,77.942 121.146,96.716 121.146,96.716C122.37,97.94 123.057,99.599 123.057,101.33C123.057,103.06 122.369,104.72 121.146,105.943C119.922,107.167 118.262,107.854 116.532,107.854C114.802,107.854 113.143,107.167 111.919,105.943C111.919,105.943 93.144,87.169 85.15,79.175C83.198,77.222 80.032,77.222 78.079,79.175C70.086,87.169 51.311,105.943 51.311,105.943C50.087,107.167 48.428,107.854 46.698,107.854C44.967,107.854 43.308,107.167 42.084,105.943C40.861,104.72 40.173,103.06 40.173,101.33C40.173,99.599 40.86,97.94 42.084,96.716C42.084,96.716 60.859,77.942 68.852,69.948Z" style="fill:currentColor;"/>
            </g>
        </g>
    </g>
</svg>
