<?xml version="1.0" encoding="UTF-8" standalone="no"?><!DOCTYPE svg PUBLIC "-//W3C//DTD SVG 1.1//EN" "http://www.w3.org/Graphics/SVG/1.1/DTD/svg11.dtd"><svg width="100%" height="100%" viewBox="0 0 25 24" version="1.1" xmlns="http://www.w3.org/2000/svg" xmlns:xlink="http://www.w3.org/1999/xlink" xml:space="preserve" xmlns:serif="http://www.serif.com/" style="fill-rule:evenodd;clip-rule:evenodd;stroke-linejoin:round;stroke-miterlimit:2;"><g id="SoftStar"><path d="M11.018,6.663c-0,-3.668 0.655,-6.646 1.462,-6.646c0.807,-0 1.462,2.978 1.462,6.646c1.876,-3.177 3.966,-5.435 4.665,-5.041c0.699,0.395 -0.256,3.294 -2.132,6.471c3.249,-1.834 6.213,-2.768 6.617,-2.085c0.404,0.684 -1.906,2.728 -5.155,4.562c3.751,-0 6.797,0.641 6.797,1.43c-0,0.789 -3.046,1.43 -6.797,1.43c3.249,1.834 5.559,3.878 5.155,4.562c-0.404,0.683 -3.368,-0.251 -6.617,-2.085c1.876,3.177 2.831,6.076 2.132,6.471c-0.699,0.394 -2.789,-1.864 -4.665,-5.041c0,3.668 -0.655,6.646 -1.462,6.646c-0.807,0 -1.462,-2.978 -1.462,-6.646c-1.876,3.177 -3.966,5.435 -4.665,5.041c-0.699,-0.395 0.256,-3.294 2.132,-6.471c-3.249,1.834 -6.213,2.768 -6.617,2.085c-0.404,-0.684 1.906,-2.728 5.155,-4.562c-3.751,0 -6.797,-0.641 -6.797,-1.43c0,-0.789 3.046,-1.43 6.797,-1.43c-3.249,-1.834 -5.559,-3.878 -5.155,-4.562c0.404,-0.683 3.368,0.251 6.617,2.085c-1.876,-3.177 -2.831,-6.076 -2.132,-6.471c0.699,-0.394 2.789,1.864 4.665,5.041Z" style="fill:#fff;fill-opacity:0.05;"/></g></svg>