<?xml version="1.0" encoding="UTF-8" standalone="no"?><!DOCTYPE svg PUBLIC "-//W3C//DTD SVG 1.1//EN" "http://www.w3.org/Graphics/SVG/1.1/DTD/svg11.dtd"><svg width="100%" height="100%" viewBox="0 0 27 27" version="1.1" xmlns="http://www.w3.org/2000/svg" xmlns:xlink="http://www.w3.org/1999/xlink" xml:space="preserve" xmlns:serif="http://www.serif.com/" style="fill-rule:evenodd;clip-rule:evenodd;stroke-linejoin:round;stroke-miterlimit:2;"><g id="Square"><path d="M22.8,0c0.955,-0 1.87,0.379 2.546,1.054c0.675,0.676 1.054,1.591 1.054,2.546l-0,19.2c0,0.955 -0.379,1.87 -1.054,2.546c-0.676,0.675 -1.591,1.054 -2.546,1.054l-19.2,0c-0.955,0 -1.87,-0.379 -2.546,-1.054c-0.675,-0.676 -1.054,-1.591 -1.054,-2.546l-0,-19.2c-0,-0.955 0.379,-1.87 1.054,-2.546c0.676,-0.675 1.591,-1.054 2.546,-1.054l19.2,0Z" style="fill:#fff;fill-opacity:0.05;"/></g></svg>